ISO-10303-21;
HEADER;
/* Generated by software containing ST-Developer
 * from STEP Tools, Inc. (www.steptools.com) 
 */

FILE_DESCRIPTION(
/* description */ (''),
/* implementation_level */ '2;1');

FILE_NAME(
/* name */ 'Draingaebox.step',
/* time_stamp */ '2026-09-21T03:07:56+03:00',
/* author */ (''),
/* organization */ (''),
/* preprocessor_version */ 'ST-DEVELOPER v20.2',
/* originating_system */ 'Autodesk Translation Framework v15.15.0.0',
/* authorisation */ '');

FILE_SCHEMA (('AUTOMOTIVE_DESIGN { 1 0 10303 214 3 1 1 }'));
ENDSEC;

DATA;
#10=MECHANICAL_DESIGN_GEOMETRIC_PRESENTATION_REPRESENTATION('',(#13),#500);
#11=SHAPE_REPRESENTATION_RELATIONSHIP('SRR','None',#507,#12);
#12=ADVANCED_BREP_SHAPE_REPRESENTATION('',(#14),#499);
#13=STYLED_ITEM('',(#516),#14);
#14=MANIFOLD_SOLID_BREP('Body1',#292);
#15=CYLINDRICAL_SURFACE('',#316,5.);
#16=CYLINDRICAL_SURFACE('',#320,5.00000000000002);
#17=CYLINDRICAL_SURFACE('',#323,10.);
#18=CYLINDRICAL_SURFACE('',#326,5.00000000000002);
#19=CYLINDRICAL_SURFACE('',#329,5.00000000000002);
#20=FACE_BOUND('',#38,.T.);
#21=FACE_OUTER_BOUND('',#37,.T.);
#22=FACE_OUTER_BOUND('',#39,.T.);
#23=FACE_OUTER_BOUND('',#40,.T.);
#24=FACE_OUTER_BOUND('',#41,.T.);
#25=FACE_OUTER_BOUND('',#42,.T.);
#26=FACE_OUTER_BOUND('',#43,.T.);
#27=FACE_OUTER_BOUND('',#44,.T.);
#28=FACE_OUTER_BOUND('',#45,.T.);
#29=FACE_OUTER_BOUND('',#46,.T.);
#30=FACE_OUTER_BOUND('',#47,.T.);
#31=FACE_OUTER_BOUND('',#48,.T.);
#32=FACE_OUTER_BOUND('',#49,.T.);
#33=FACE_OUTER_BOUND('',#50,.T.);
#34=FACE_OUTER_BOUND('',#51,.T.);
#35=FACE_OUTER_BOUND('',#52,.T.);
#36=FACE_OUTER_BOUND('',#53,.T.);
#37=EDGE_LOOP('',(#187,#188,#189,#190,#191,#192,#193,#194));
#38=EDGE_LOOP('',(#195,#196,#197,#198,#199));
#39=EDGE_LOOP('',(#200,#201,#202,#203,#204));
#40=EDGE_LOOP('',(#205,#206,#207,#208));
#41=EDGE_LOOP('',(#209,#210,#211,#212));
#42=EDGE_LOOP('',(#213,#214,#215,#216));
#43=EDGE_LOOP('',(#217,#218,#219,#220));
#44=EDGE_LOOP('',(#221,#222,#223,#224));
#45=EDGE_LOOP('',(#225,#226,#227,#228));
#46=EDGE_LOOP('',(#229,#230,#231,#232));
#47=EDGE_LOOP('',(#233,#234,#235,#236));
#48=EDGE_LOOP('',(#237,#238,#239,#240));
#49=EDGE_LOOP('',(#241,#242,#243,#244));
#50=EDGE_LOOP('',(#245,#246,#247,#248));
#51=EDGE_LOOP('',(#249,#250,#251,#252));
#52=EDGE_LOOP('',(#253,#254,#255,#256));
#53=EDGE_LOOP('',(#257,#258,#259,#260,#261,#262,#263,#264));
#54=LINE('',#421,#83);
#55=LINE('',#425,#84);
#56=LINE('',#429,#85);
#57=LINE('',#432,#86);
#58=LINE('',#435,#87);
#59=LINE('',#437,#88);
#60=LINE('',#439,#89);
#61=LINE('',#441,#90);
#62=LINE('',#446,#91);
#63=LINE('',#450,#92);
#64=LINE('',#452,#93);
#65=LINE('',#453,#94);
#66=LINE('',#455,#95);
#67=LINE('',#456,#96);
#68=LINE('',#458,#97);
#69=LINE('',#460,#98);
#70=LINE('',#462,#99);
#71=LINE('',#467,#100);
#72=LINE('',#468,#101);
#73=LINE('',#469,#102);
#74=LINE('',#473,#103);
#75=LINE('',#476,#104);
#76=LINE('',#477,#105);
#77=LINE('',#481,#106);
#78=LINE('',#484,#107);
#79=LINE('',#485,#108);
#80=LINE('',#489,#109);
#81=LINE('',#492,#110);
#82=LINE('',#493,#111);
#83=VECTOR('',#338,10.);
#84=VECTOR('',#341,10.);
#85=VECTOR('',#344,10.);
#86=VECTOR('',#347,10.);
#87=VECTOR('',#348,10.);
#88=VECTOR('',#349,10.);
#89=VECTOR('',#350,10.);
#90=VECTOR('',#351,10.);
#91=VECTOR('',#356,10.);
#92=VECTOR('',#359,10.);
#93=VECTOR('',#360,10.);
#94=VECTOR('',#361,10.);
#95=VECTOR('',#364,10.);
#96=VECTOR('',#365,10.);
#97=VECTOR('',#368,10.);
#98=VECTOR('',#371,10.);
#99=VECTOR('',#374,10.);
#100=VECTOR('',#379,10.);
#101=VECTOR('',#380,10.);
#102=VECTOR('',#381,10.);
#103=VECTOR('',#386,10.);
#104=VECTOR('',#389,10.);
#105=VECTOR('',#390,10.);
#106=VECTOR('',#395,10.);
#107=VECTOR('',#398,10.);
#108=VECTOR('',#399,10.);
#109=VECTOR('',#404,10.);
#110=VECTOR('',#407,10.);
#111=VECTOR('',#408,10.);
#112=CIRCLE('',#307,5.00000000000002);
#113=CIRCLE('',#308,5.00000000000002);
#114=CIRCLE('',#309,10.);
#115=CIRCLE('',#310,5.00000000000002);
#116=CIRCLE('',#311,5.);
#117=CIRCLE('',#313,5.);
#118=CIRCLE('',#321,5.00000000000002);
#119=CIRCLE('',#324,10.);
#120=CIRCLE('',#327,5.00000000000002);
#121=CIRCLE('',#330,5.00000000000002);
#122=VERTEX_POINT('',#417);
#123=VERTEX_POINT('',#418);
#124=VERTEX_POINT('',#420);
#125=VERTEX_POINT('',#422);
#126=VERTEX_POINT('',#424);
#127=VERTEX_POINT('',#426);
#128=VERTEX_POINT('',#428);
#129=VERTEX_POINT('',#430);
#130=VERTEX_POINT('',#433);
#131=VERTEX_POINT('',#434);
#132=VERTEX_POINT('',#436);
#133=VERTEX_POINT('',#438);
#134=VERTEX_POINT('',#440);
#135=VERTEX_POINT('',#444);
#136=VERTEX_POINT('',#445);
#137=VERTEX_POINT('',#447);
#138=VERTEX_POINT('',#449);
#139=VERTEX_POINT('',#451);
#140=VERTEX_POINT('',#465);
#141=VERTEX_POINT('',#466);
#142=VERTEX_POINT('',#471);
#143=VERTEX_POINT('',#475);
#144=VERTEX_POINT('',#479);
#145=VERTEX_POINT('',#483);
#146=VERTEX_POINT('',#487);
#147=VERTEX_POINT('',#491);
#148=EDGE_CURVE('',#122,#123,#112,.T.);
#149=EDGE_CURVE('',#123,#124,#54,.T.);
#150=EDGE_CURVE('',#124,#125,#113,.T.);
#151=EDGE_CURVE('',#125,#126,#55,.T.);
#152=EDGE_CURVE('',#126,#127,#114,.T.);
#153=EDGE_CURVE('',#127,#128,#56,.T.);
#154=EDGE_CURVE('',#128,#129,#115,.T.);
#155=EDGE_CURVE('',#129,#122,#57,.T.);
#156=EDGE_CURVE('',#130,#131,#58,.T.);
#157=EDGE_CURVE('',#131,#132,#59,.T.);
#158=EDGE_CURVE('',#132,#133,#60,.T.);
#159=EDGE_CURVE('',#133,#134,#61,.T.);
#160=EDGE_CURVE('',#134,#130,#116,.T.);
#161=EDGE_CURVE('',#135,#136,#62,.T.);
#162=EDGE_CURVE('',#137,#135,#117,.T.);
#163=EDGE_CURVE('',#138,#137,#63,.T.);
#164=EDGE_CURVE('',#139,#138,#64,.T.);
#165=EDGE_CURVE('',#136,#139,#65,.T.);
#166=EDGE_CURVE('',#138,#133,#66,.T.);
#167=EDGE_CURVE('',#139,#132,#67,.T.);
#168=EDGE_CURVE('',#137,#134,#68,.T.);
#169=EDGE_CURVE('',#135,#130,#69,.T.);
#170=EDGE_CURVE('',#136,#131,#70,.T.);
#171=EDGE_CURVE('',#140,#141,#71,.T.);
#172=EDGE_CURVE('',#140,#122,#72,.T.);
#173=EDGE_CURVE('',#141,#129,#73,.T.);
#174=EDGE_CURVE('',#142,#141,#118,.T.);
#175=EDGE_CURVE('',#142,#128,#74,.T.);
#176=EDGE_CURVE('',#142,#143,#75,.T.);
#177=EDGE_CURVE('',#143,#127,#76,.T.);
#178=EDGE_CURVE('',#144,#143,#119,.T.);
#179=EDGE_CURVE('',#144,#126,#77,.T.);
#180=EDGE_CURVE('',#144,#145,#78,.T.);
#181=EDGE_CURVE('',#145,#125,#79,.T.);
#182=EDGE_CURVE('',#146,#145,#120,.T.);
#183=EDGE_CURVE('',#146,#124,#80,.T.);
#184=EDGE_CURVE('',#146,#147,#81,.T.);
#185=EDGE_CURVE('',#147,#123,#82,.T.);
#186=EDGE_CURVE('',#140,#147,#121,.T.);
#187=ORIENTED_EDGE('',*,*,#148,.T.);
#188=ORIENTED_EDGE('',*,*,#149,.T.);
#189=ORIENTED_EDGE('',*,*,#150,.T.);
#190=ORIENTED_EDGE('',*,*,#151,.T.);
#191=ORIENTED_EDGE('',*,*,#152,.T.);
#192=ORIENTED_EDGE('',*,*,#153,.T.);
#193=ORIENTED_EDGE('',*,*,#154,.T.);
#194=ORIENTED_EDGE('',*,*,#155,.T.);
#195=ORIENTED_EDGE('',*,*,#156,.T.);
#196=ORIENTED_EDGE('',*,*,#157,.T.);
#197=ORIENTED_EDGE('',*,*,#158,.T.);
#198=ORIENTED_EDGE('',*,*,#159,.T.);
#199=ORIENTED_EDGE('',*,*,#160,.T.);
#200=ORIENTED_EDGE('',*,*,#161,.F.);
#201=ORIENTED_EDGE('',*,*,#162,.F.);
#202=ORIENTED_EDGE('',*,*,#163,.F.);
#203=ORIENTED_EDGE('',*,*,#164,.F.);
#204=ORIENTED_EDGE('',*,*,#165,.F.);
#205=ORIENTED_EDGE('',*,*,#164,.T.);
#206=ORIENTED_EDGE('',*,*,#166,.T.);
#207=ORIENTED_EDGE('',*,*,#158,.F.);
#208=ORIENTED_EDGE('',*,*,#167,.F.);
#209=ORIENTED_EDGE('',*,*,#163,.T.);
#210=ORIENTED_EDGE('',*,*,#168,.T.);
#211=ORIENTED_EDGE('',*,*,#159,.F.);
#212=ORIENTED_EDGE('',*,*,#166,.F.);
#213=ORIENTED_EDGE('',*,*,#162,.T.);
#214=ORIENTED_EDGE('',*,*,#169,.T.);
#215=ORIENTED_EDGE('',*,*,#160,.F.);
#216=ORIENTED_EDGE('',*,*,#168,.F.);
#217=ORIENTED_EDGE('',*,*,#165,.T.);
#218=ORIENTED_EDGE('',*,*,#167,.T.);
#219=ORIENTED_EDGE('',*,*,#157,.F.);
#220=ORIENTED_EDGE('',*,*,#170,.F.);
#221=ORIENTED_EDGE('',*,*,#161,.T.);
#222=ORIENTED_EDGE('',*,*,#170,.T.);
#223=ORIENTED_EDGE('',*,*,#156,.F.);
#224=ORIENTED_EDGE('',*,*,#169,.F.);
#225=ORIENTED_EDGE('',*,*,#171,.F.);
#226=ORIENTED_EDGE('',*,*,#172,.T.);
#227=ORIENTED_EDGE('',*,*,#155,.F.);
#228=ORIENTED_EDGE('',*,*,#173,.F.);
#229=ORIENTED_EDGE('',*,*,#174,.T.);
#230=ORIENTED_EDGE('',*,*,#173,.T.);
#231=ORIENTED_EDGE('',*,*,#154,.F.);
#232=ORIENTED_EDGE('',*,*,#175,.F.);
#233=ORIENTED_EDGE('',*,*,#176,.F.);
#234=ORIENTED_EDGE('',*,*,#175,.T.);
#235=ORIENTED_EDGE('',*,*,#153,.F.);
#236=ORIENTED_EDGE('',*,*,#177,.F.);
#237=ORIENTED_EDGE('',*,*,#178,.T.);
#238=ORIENTED_EDGE('',*,*,#177,.T.);
#239=ORIENTED_EDGE('',*,*,#152,.F.);
#240=ORIENTED_EDGE('',*,*,#179,.F.);
#241=ORIENTED_EDGE('',*,*,#180,.F.);
#242=ORIENTED_EDGE('',*,*,#179,.T.);
#243=ORIENTED_EDGE('',*,*,#151,.F.);
#244=ORIENTED_EDGE('',*,*,#181,.F.);
#245=ORIENTED_EDGE('',*,*,#182,.T.);
#246=ORIENTED_EDGE('',*,*,#181,.T.);
#247=ORIENTED_EDGE('',*,*,#150,.F.);
#248=ORIENTED_EDGE('',*,*,#183,.F.);
#249=ORIENTED_EDGE('',*,*,#184,.F.);
#250=ORIENTED_EDGE('',*,*,#183,.T.);
#251=ORIENTED_EDGE('',*,*,#149,.F.);
#252=ORIENTED_EDGE('',*,*,#185,.F.);
#253=ORIENTED_EDGE('',*,*,#186,.T.);
#254=ORIENTED_EDGE('',*,*,#185,.T.);
#255=ORIENTED_EDGE('',*,*,#148,.F.);
#256=ORIENTED_EDGE('',*,*,#172,.F.);
#257=ORIENTED_EDGE('',*,*,#186,.F.);
#258=ORIENTED_EDGE('',*,*,#171,.T.);
#259=ORIENTED_EDGE('',*,*,#174,.F.);
#260=ORIENTED_EDGE('',*,*,#176,.T.);
#261=ORIENTED_EDGE('',*,*,#178,.F.);
#262=ORIENTED_EDGE('',*,*,#180,.T.);
#263=ORIENTED_EDGE('',*,*,#182,.F.);
#264=ORIENTED_EDGE('',*,*,#184,.T.);
#265=PLANE('',#306);
#266=PLANE('',#312);
#267=PLANE('',#314);
#268=PLANE('',#315);
#269=PLANE('',#317);
#270=PLANE('',#318);
#271=PLANE('',#319);
#272=PLANE('',#322);
#273=PLANE('',#325);
#274=PLANE('',#328);
#275=PLANE('',#331);
#276=ADVANCED_FACE('',(#21,#20),#265,.T.);
#277=ADVANCED_FACE('',(#22),#266,.T.);
#278=ADVANCED_FACE('',(#23),#267,.T.);
#279=ADVANCED_FACE('',(#24),#268,.T.);
#280=ADVANCED_FACE('',(#25),#15,.F.);
#281=ADVANCED_FACE('',(#26),#269,.T.);
#282=ADVANCED_FACE('',(#27),#270,.T.);
#283=ADVANCED_FACE('',(#28),#271,.T.);
#284=ADVANCED_FACE('',(#29),#16,.T.);
#285=ADVANCED_FACE('',(#30),#272,.T.);
#286=ADVANCED_FACE('',(#31),#17,.T.);
#287=ADVANCED_FACE('',(#32),#273,.T.);
#288=ADVANCED_FACE('',(#33),#18,.T.);
#289=ADVANCED_FACE('',(#34),#274,.T.);
#290=ADVANCED_FACE('',(#35),#19,.T.);
#291=ADVANCED_FACE('',(#36),#275,.F.);
#292=CLOSED_SHELL('',(#276,#277,#278,#279,#280,#281,#282,#283,#284,#285,
#286,#287,#288,#289,#290,#291));
#293=DERIVED_UNIT_ELEMENT(#295,1.);
#294=DERIVED_UNIT_ELEMENT(#502,-3.);
#295=(
MASS_UNIT()
NAMED_UNIT(*)
SI_UNIT(.KILO.,.GRAM.)
);
#296=DERIVED_UNIT((#293,#294));
#297=MEASURE_REPRESENTATION_ITEM('density measure',
POSITIVE_RATIO_MEASURE(7850.),#296);
#298=PROPERTY_DEFINITION_REPRESENTATION(#303,#300);
#299=PROPERTY_DEFINITION_REPRESENTATION(#304,#301);
#300=REPRESENTATION('material name',(#302),#499);
#301=REPRESENTATION('density',(#297),#499);
#302=DESCRIPTIVE_REPRESENTATION_ITEM('Steel','Steel');
#303=PROPERTY_DEFINITION('material property','material name',#509);
#304=PROPERTY_DEFINITION('material property','density of part',#509);
#305=AXIS2_PLACEMENT_3D('',#415,#332,#333);
#306=AXIS2_PLACEMENT_3D('',#416,#334,#335);
#307=AXIS2_PLACEMENT_3D('',#419,#336,#337);
#308=AXIS2_PLACEMENT_3D('',#423,#339,#340);
#309=AXIS2_PLACEMENT_3D('',#427,#342,#343);
#310=AXIS2_PLACEMENT_3D('',#431,#345,#346);
#311=AXIS2_PLACEMENT_3D('',#442,#352,#353);
#312=AXIS2_PLACEMENT_3D('',#443,#354,#355);
#313=AXIS2_PLACEMENT_3D('',#448,#357,#358);
#314=AXIS2_PLACEMENT_3D('',#454,#362,#363);
#315=AXIS2_PLACEMENT_3D('',#457,#366,#367);
#316=AXIS2_PLACEMENT_3D('',#459,#369,#370);
#317=AXIS2_PLACEMENT_3D('',#461,#372,#373);
#318=AXIS2_PLACEMENT_3D('',#463,#375,#376);
#319=AXIS2_PLACEMENT_3D('',#464,#377,#378);
#320=AXIS2_PLACEMENT_3D('',#470,#382,#383);
#321=AXIS2_PLACEMENT_3D('',#472,#384,#385);
#322=AXIS2_PLACEMENT_3D('',#474,#387,#388);
#323=AXIS2_PLACEMENT_3D('',#478,#391,#392);
#324=AXIS2_PLACEMENT_3D('',#480,#393,#394);
#325=AXIS2_PLACEMENT_3D('',#482,#396,#397);
#326=AXIS2_PLACEMENT_3D('',#486,#400,#401);
#327=AXIS2_PLACEMENT_3D('',#488,#402,#403);
#328=AXIS2_PLACEMENT_3D('',#490,#405,#406);
#329=AXIS2_PLACEMENT_3D('',#494,#409,#410);
#330=AXIS2_PLACEMENT_3D('',#495,#411,#412);
#331=AXIS2_PLACEMENT_3D('',#496,#413,#414);
#332=DIRECTION('axis',(0.,0.,1.));
#333=DIRECTION('refdir',(1.,0.,0.));
#334=DIRECTION('center_axis',(0.,0.,1.));
#335=DIRECTION('ref_axis',(1.,0.,0.));
#336=DIRECTION('center_axis',(0.,0.,1.));
#337=DIRECTION('ref_axis',(-1.,0.,0.));
#338=DIRECTION('',(1.,5.9211894646675E-17,0.));
#339=DIRECTION('center_axis',(0.,0.,1.));
#340=DIRECTION('ref_axis',(3.55271367880049E-15,-1.,0.));
#341=DIRECTION('',(0.,1.,0.));
#342=DIRECTION('center_axis',(0.,0.,1.));
#343=DIRECTION('ref_axis',(1.,1.77635683940025E-15,0.));
#344=DIRECTION('',(-1.,3.01077430406822E-17,0.));
#345=DIRECTION('center_axis',(0.,0.,1.));
#346=DIRECTION('ref_axis',(0.,1.,0.));
#347=DIRECTION('',(0.,-1.,0.));
#348=DIRECTION('',(0.,-1.,0.));
#349=DIRECTION('',(-1.,-5.9211894646675E-17,0.));
#350=DIRECTION('',(0.,1.,0.));
#351=DIRECTION('',(1.,-3.01077430406822E-17,0.));
#352=DIRECTION('center_axis',(0.,0.,-1.));
#353=DIRECTION('ref_axis',(1.,1.77635683940025E-15,0.));
#354=DIRECTION('center_axis',(0.,0.,1.));
#355=DIRECTION('ref_axis',(1.,0.,0.));
#356=DIRECTION('',(0.,-1.,0.));
#357=DIRECTION('center_axis',(0.,0.,-1.));
#358=DIRECTION('ref_axis',(1.,1.77635683940025E-15,0.));
#359=DIRECTION('',(1.,-3.01077430406822E-17,0.));
#360=DIRECTION('',(0.,1.,0.));
#361=DIRECTION('',(-1.,-5.9211894646675E-17,0.));
#362=DIRECTION('center_axis',(1.,0.,0.));
#363=DIRECTION('ref_axis',(0.,1.,0.));
#364=DIRECTION('',(0.,0.,1.));
#365=DIRECTION('',(0.,0.,1.));
#366=DIRECTION('center_axis',(-3.01077430406822E-17,-1.,0.));
#367=DIRECTION('ref_axis',(1.,-3.01077430406822E-17,0.));
#368=DIRECTION('',(0.,0.,1.));
#369=DIRECTION('center_axis',(0.,0.,1.));
#370=DIRECTION('ref_axis',(1.,1.77635683940025E-15,0.));
#371=DIRECTION('',(0.,0.,1.));
#372=DIRECTION('center_axis',(-5.9211894646675E-17,1.,0.));
#373=DIRECTION('ref_axis',(-1.,-5.9211894646675E-17,0.));
#374=DIRECTION('',(0.,0.,1.));
#375=DIRECTION('center_axis',(-1.,0.,0.));
#376=DIRECTION('ref_axis',(0.,-1.,0.));
#377=DIRECTION('center_axis',(-1.,0.,0.));
#378=DIRECTION('ref_axis',(0.,-1.,0.));
#379=DIRECTION('',(0.,1.,0.));
#380=DIRECTION('',(0.,0.,1.));
#381=DIRECTION('',(0.,0.,1.));
#382=DIRECTION('center_axis',(0.,0.,1.));
#383=DIRECTION('ref_axis',(0.,1.,0.));
#384=DIRECTION('center_axis',(0.,0.,1.));
#385=DIRECTION('ref_axis',(0.,1.,0.));
#386=DIRECTION('',(0.,0.,1.));
#387=DIRECTION('center_axis',(3.01077430406822E-17,1.,0.));
#388=DIRECTION('ref_axis',(-1.,3.01077430406822E-17,0.));
#389=DIRECTION('',(1.,-3.01077430406822E-17,0.));
#390=DIRECTION('',(0.,0.,1.));
#391=DIRECTION('center_axis',(0.,0.,1.));
#392=DIRECTION('ref_axis',(1.,1.77635683940025E-15,0.));
#393=DIRECTION('center_axis',(0.,0.,1.));
#394=DIRECTION('ref_axis',(1.,1.77635683940025E-15,0.));
#395=DIRECTION('',(0.,0.,1.));
#396=DIRECTION('center_axis',(1.,0.,0.));
#397=DIRECTION('ref_axis',(0.,1.,0.));
#398=DIRECTION('',(0.,-1.,0.));
#399=DIRECTION('',(0.,0.,1.));
#400=DIRECTION('center_axis',(0.,0.,1.));
#401=DIRECTION('ref_axis',(3.55271367880049E-15,-1.,0.));
#402=DIRECTION('center_axis',(0.,0.,1.));
#403=DIRECTION('ref_axis',(3.55271367880049E-15,-1.,0.));
#404=DIRECTION('',(0.,0.,1.));
#405=DIRECTION('center_axis',(5.9211894646675E-17,-1.,0.));
#406=DIRECTION('ref_axis',(1.,5.9211894646675E-17,0.));
#407=DIRECTION('',(-1.,-5.9211894646675E-17,0.));
#408=DIRECTION('',(0.,0.,1.));
#409=DIRECTION('center_axis',(0.,0.,1.));
#410=DIRECTION('ref_axis',(-1.,0.,0.));
#411=DIRECTION('center_axis',(0.,0.,1.));
#412=DIRECTION('ref_axis',(-1.,0.,0.));
#413=DIRECTION('center_axis',(0.,0.,1.));
#414=DIRECTION('ref_axis',(1.,0.,0.));
#415=CARTESIAN_POINT('',(0.,0.,0.));
#416=CARTESIAN_POINT('Origin',(-1.77635683940025E-14,-35.,35.));
#417=CARTESIAN_POINT('',(-155.,-110.,35.));
#418=CARTESIAN_POINT('',(-150.,-115.,35.));
#419=CARTESIAN_POINT('Origin',(-150.,-110.,35.));
#420=CARTESIAN_POINT('',(150.,-115.,35.));
#421=CARTESIAN_POINT('',(150.,-115.,35.));
#422=CARTESIAN_POINT('',(155.,-110.,35.));
#423=CARTESIAN_POINT('Origin',(150.,-110.,35.));
#424=CARTESIAN_POINT('',(155.,35.,35.));
#425=CARTESIAN_POINT('',(155.,35.,35.));
#426=CARTESIAN_POINT('',(145.,45.,35.));
#427=CARTESIAN_POINT('Origin',(145.,35.,35.));
#428=CARTESIAN_POINT('',(-150.,45.,35.));
#429=CARTESIAN_POINT('',(-150.,45.,35.));
#430=CARTESIAN_POINT('',(-155.,40.,35.));
#431=CARTESIAN_POINT('Origin',(-150.,40.,35.));
#432=CARTESIAN_POINT('',(-155.,-110.,35.));
#433=CARTESIAN_POINT('',(150.,35.,35.));
#434=CARTESIAN_POINT('',(150.,-110.,35.));
#435=CARTESIAN_POINT('',(150.,35.,35.));
#436=CARTESIAN_POINT('',(-150.,-110.,35.));
#437=CARTESIAN_POINT('',(150.,-110.,35.));
#438=CARTESIAN_POINT('',(-150.,40.,35.));
#439=CARTESIAN_POINT('',(-150.,-110.,35.));
#440=CARTESIAN_POINT('',(145.,40.,35.));
#441=CARTESIAN_POINT('',(-150.,40.,35.));
#442=CARTESIAN_POINT('Origin',(145.,35.,35.));
#443=CARTESIAN_POINT('Origin',(0.,-35.,2.5));
#444=CARTESIAN_POINT('',(150.,35.,2.5));
#445=CARTESIAN_POINT('',(150.,-110.,2.5));
#446=CARTESIAN_POINT('',(150.,0.,2.5));
#447=CARTESIAN_POINT('',(145.,40.,2.5));
#448=CARTESIAN_POINT('Origin',(145.,35.,2.5));
#449=CARTESIAN_POINT('',(-150.,40.,2.5));
#450=CARTESIAN_POINT('',(-75.,40.,2.5));
#451=CARTESIAN_POINT('',(-150.,-110.,2.5));
#452=CARTESIAN_POINT('',(-150.,-72.5,2.5));
#453=CARTESIAN_POINT('',(75.,-110.,2.5));
#454=CARTESIAN_POINT('Origin',(-150.,-110.,0.));
#455=CARTESIAN_POINT('',(-150.,40.,0.));
#456=CARTESIAN_POINT('',(-150.,-110.,0.));
#457=CARTESIAN_POINT('Origin',(-150.,40.,0.));
#458=CARTESIAN_POINT('',(145.,40.,0.));
#459=CARTESIAN_POINT('Origin',(145.,35.,0.));
#460=CARTESIAN_POINT('',(150.,35.,0.));
#461=CARTESIAN_POINT('Origin',(150.,-110.,0.));
#462=CARTESIAN_POINT('',(150.,-110.,0.));
#463=CARTESIAN_POINT('Origin',(150.,35.,0.));
#464=CARTESIAN_POINT('Origin',(-155.,40.,0.));
#465=CARTESIAN_POINT('',(-155.,-110.,0.));
#466=CARTESIAN_POINT('',(-155.,40.,0.));
#467=CARTESIAN_POINT('',(-155.,-110.,0.));
#468=CARTESIAN_POINT('',(-155.,-110.,0.));
#469=CARTESIAN_POINT('',(-155.,40.,0.));
#470=CARTESIAN_POINT('Origin',(-150.,40.,0.));
#471=CARTESIAN_POINT('',(-150.,45.,0.));
#472=CARTESIAN_POINT('Origin',(-150.,40.,0.));
#473=CARTESIAN_POINT('',(-150.,45.,0.));
#474=CARTESIAN_POINT('Origin',(145.,45.,0.));
#475=CARTESIAN_POINT('',(145.,45.,0.));
#476=CARTESIAN_POINT('',(-150.,45.,0.));
#477=CARTESIAN_POINT('',(145.,45.,0.));
#478=CARTESIAN_POINT('Origin',(145.,35.,0.));
#479=CARTESIAN_POINT('',(155.,35.,0.));
#480=CARTESIAN_POINT('Origin',(145.,35.,0.));
#481=CARTESIAN_POINT('',(155.,35.,0.));
#482=CARTESIAN_POINT('Origin',(155.,-110.,0.));
#483=CARTESIAN_POINT('',(155.,-110.,0.));
#484=CARTESIAN_POINT('',(155.,35.,0.));
#485=CARTESIAN_POINT('',(155.,-110.,0.));
#486=CARTESIAN_POINT('Origin',(150.,-110.,0.));
#487=CARTESIAN_POINT('',(150.,-115.,0.));
#488=CARTESIAN_POINT('Origin',(150.,-110.,0.));
#489=CARTESIAN_POINT('',(150.,-115.,0.));
#490=CARTESIAN_POINT('Origin',(-150.,-115.,0.));
#491=CARTESIAN_POINT('',(-150.,-115.,0.));
#492=CARTESIAN_POINT('',(150.,-115.,0.));
#493=CARTESIAN_POINT('',(-150.,-115.,0.));
#494=CARTESIAN_POINT('Origin',(-150.,-110.,0.));
#495=CARTESIAN_POINT('Origin',(-150.,-110.,0.));
#496=CARTESIAN_POINT('Origin',(-1.77635683940025E-14,-35.,0.));
#497=UNCERTAINTY_MEASURE_WITH_UNIT(LENGTH_MEASURE(0.01),#501,
'DISTANCE_ACCURACY_VALUE',
'Maximum model space distance between geometric entities at asserted c
onnectivities');
#498=UNCERTAINTY_MEASURE_WITH_UNIT(LENGTH_MEASURE(0.01),#501,
'DISTANCE_ACCURACY_VALUE',
'Maximum model space distance between geometric entities at asserted c
onnectivities');
#499=(
GEOMETRIC_REPRESENTATION_CONTEXT(3)
GLOBAL_UNCERTAINTY_ASSIGNED_CONTEXT((#497))
GLOBAL_UNIT_ASSIGNED_CONTEXT((#501,#503,#504))
REPRESENTATION_CONTEXT('','3D')
);
#500=(
GEOMETRIC_REPRESENTATION_CONTEXT(3)
GLOBAL_UNCERTAINTY_ASSIGNED_CONTEXT((#498))
GLOBAL_UNIT_ASSIGNED_CONTEXT((#501,#503,#504))
REPRESENTATION_CONTEXT('','3D')
);
#501=(
LENGTH_UNIT()
NAMED_UNIT(*)
SI_UNIT(.MILLI.,.METRE.)
);
#502=(
LENGTH_UNIT()
NAMED_UNIT(*)
SI_UNIT($,.METRE.)
);
#503=(
NAMED_UNIT(*)
PLANE_ANGLE_UNIT()
SI_UNIT($,.RADIAN.)
);
#504=(
NAMED_UNIT(*)
SI_UNIT($,.STERADIAN.)
SOLID_ANGLE_UNIT()
);
#505=SHAPE_DEFINITION_REPRESENTATION(#506,#507);
#506=PRODUCT_DEFINITION_SHAPE('',$,#509);
#507=SHAPE_REPRESENTATION('',(#305),#499);
#508=PRODUCT_DEFINITION_CONTEXT('part definition',#513,'design');
#509=PRODUCT_DEFINITION('2026-09-20-23-00-51-797','Draingaebox',#510,#508);
#510=PRODUCT_DEFINITION_FORMATION('',$,#515);
#511=PRODUCT_RELATED_PRODUCT_CATEGORY('Draingaebox','Draingaebox',(#515));
#512=APPLICATION_PROTOCOL_DEFINITION('international standard',
'automotive_design',2009,#513);
#513=APPLICATION_CONTEXT(
'Core Data for Automotive Mechanical Design Process');
#514=PRODUCT_CONTEXT('part definition',#513,'mechanical');
#515=PRODUCT('2026-09-20-23-00-51-797','Draingaebox',$,(#514));
#516=PRESENTATION_STYLE_ASSIGNMENT((#517));
#517=SURFACE_STYLE_USAGE(.BOTH.,#518);
#518=SURFACE_SIDE_STYLE('',(#519));
#519=SURFACE_STYLE_FILL_AREA(#520);
#520=FILL_AREA_STYLE('Steel - Satin',(#521));
#521=FILL_AREA_STYLE_COLOUR('Steel - Satin',#522);
#522=COLOUR_RGB('Steel - Satin',0.627450980392157,0.627450980392157,0.627450980392157);
ENDSEC;
END-ISO-10303-21;
