ISO-10303-21;
HEADER;
/* Generated by software containing ST-Developer
 * from STEP Tools, Inc. (www.steptools.com) 
 */

FILE_DESCRIPTION(
/* description */ (''),
/* implementation_level */ '2;1');

FILE_NAME(
/* name */ 'Fan_Holder.step',
/* time_stamp */ '2026-09-21T03:08:46+03:00',
/* author */ (''),
/* organization */ (''),
/* preprocessor_version */ 'ST-DEVELOPER v20.2',
/* originating_system */ 'Autodesk Translation Framework v15.15.0.0',
/* authorisation */ '');

FILE_SCHEMA (('AUTOMOTIVE_DESIGN { 1 0 10303 214 3 1 1 }'));
ENDSEC;

DATA;
#10=MECHANICAL_DESIGN_GEOMETRIC_PRESENTATION_REPRESENTATION('',(#13),#927);
#11=SHAPE_REPRESENTATION_RELATIONSHIP('SRR','None',#934,#12);
#12=ADVANCED_BREP_SHAPE_REPRESENTATION('',(#14),#926);
#13=STYLED_ITEM('',(#943),#14);
#14=MANIFOLD_SOLID_BREP('Body1',#523);
#15=FACE_BOUND('',#79,.T.);
#16=FACE_BOUND('',#104,.T.);
#17=PLANE('',#559);
#18=PLANE('',#566);
#19=PLANE('',#567);
#20=PLANE('',#581);
#21=PLANE('',#584);
#22=PLANE('',#590);
#23=PLANE('',#593);
#24=PLANE('',#596);
#25=PLANE('',#599);
#26=PLANE('',#602);
#27=SPHERICAL_SURFACE('',#549,5.);
#28=SPHERICAL_SURFACE('',#551,5.);
#29=SPHERICAL_SURFACE('',#553,5.);
#30=SPHERICAL_SURFACE('',#555,5.);
#31=SPHERICAL_SURFACE('',#575,5.);
#32=SPHERICAL_SURFACE('',#577,5.);
#33=SPHERICAL_SURFACE('',#588,5.);
#34=SPHERICAL_SURFACE('',#589,5.);
#35=FACE_OUTER_BOUND('',#69,.T.);
#36=FACE_OUTER_BOUND('',#70,.T.);
#37=FACE_OUTER_BOUND('',#71,.T.);
#38=FACE_OUTER_BOUND('',#72,.T.);
#39=FACE_OUTER_BOUND('',#73,.T.);
#40=FACE_OUTER_BOUND('',#74,.T.);
#41=FACE_OUTER_BOUND('',#75,.T.);
#42=FACE_OUTER_BOUND('',#76,.T.);
#43=FACE_OUTER_BOUND('',#77,.T.);
#44=FACE_OUTER_BOUND('',#78,.T.);
#45=FACE_OUTER_BOUND('',#80,.T.);
#46=FACE_OUTER_BOUND('',#81,.T.);
#47=FACE_OUTER_BOUND('',#82,.T.);
#48=FACE_OUTER_BOUND('',#83,.T.);
#49=FACE_OUTER_BOUND('',#84,.T.);
#50=FACE_OUTER_BOUND('',#85,.T.);
#51=FACE_OUTER_BOUND('',#86,.T.);
#52=FACE_OUTER_BOUND('',#87,.T.);
#53=FACE_OUTER_BOUND('',#88,.T.);
#54=FACE_OUTER_BOUND('',#89,.T.);
#55=FACE_OUTER_BOUND('',#90,.T.);
#56=FACE_OUTER_BOUND('',#91,.T.);
#57=FACE_OUTER_BOUND('',#92,.T.);
#58=FACE_OUTER_BOUND('',#93,.T.);
#59=FACE_OUTER_BOUND('',#94,.T.);
#60=FACE_OUTER_BOUND('',#95,.T.);
#61=FACE_OUTER_BOUND('',#96,.T.);
#62=FACE_OUTER_BOUND('',#97,.T.);
#63=FACE_OUTER_BOUND('',#98,.T.);
#64=FACE_OUTER_BOUND('',#99,.T.);
#65=FACE_OUTER_BOUND('',#100,.T.);
#66=FACE_OUTER_BOUND('',#101,.T.);
#67=FACE_OUTER_BOUND('',#102,.T.);
#68=FACE_OUTER_BOUND('',#103,.T.);
#69=EDGE_LOOP('',(#329,#330,#331,#332));
#70=EDGE_LOOP('',(#333,#334,#335,#336));
#71=EDGE_LOOP('',(#337,#338,#339,#340));
#72=EDGE_LOOP('',(#341,#342,#343,#344));
#73=EDGE_LOOP('',(#345,#346,#347));
#74=EDGE_LOOP('',(#348,#349,#350));
#75=EDGE_LOOP('',(#351,#352,#353));
#76=EDGE_LOOP('',(#354,#355,#356));
#77=EDGE_LOOP('',(#357,#358,#359,#360));
#78=EDGE_LOOP('',(#361,#362,#363,#364));
#79=EDGE_LOOP('',(#365,#366,#367,#368,#369,#370,#371,#372));
#80=EDGE_LOOP('',(#373,#374,#375,#376));
#81=EDGE_LOOP('',(#377,#378,#379,#380));
#82=EDGE_LOOP('',(#381,#382,#383,#384));
#83=EDGE_LOOP('',(#385,#386,#387,#388));
#84=EDGE_LOOP('',(#389,#390,#391,#392));
#85=EDGE_LOOP('',(#393,#394,#395,#396));
#86=EDGE_LOOP('',(#397,#398,#399));
#87=EDGE_LOOP('',(#400,#401,#402));
#88=EDGE_LOOP('',(#403,#404,#405,#406));
#89=EDGE_LOOP('',(#407,#408,#409,#410));
#90=EDGE_LOOP('',(#411,#412,#413,#414));
#91=EDGE_LOOP('',(#415,#416,#417,#418));
#92=EDGE_LOOP('',(#419,#420,#421,#422));
#93=EDGE_LOOP('',(#423,#424,#425));
#94=EDGE_LOOP('',(#426,#427,#428));
#95=EDGE_LOOP('',(#429,#430,#431,#432));
#96=EDGE_LOOP('',(#433,#434,#435,#436));
#97=EDGE_LOOP('',(#437,#438,#439,#440));
#98=EDGE_LOOP('',(#441,#442,#443,#444));
#99=EDGE_LOOP('',(#445,#446,#447,#448));
#100=EDGE_LOOP('',(#449,#450,#451,#452));
#101=EDGE_LOOP('',(#453,#454,#455,#456));
#102=EDGE_LOOP('',(#457,#458,#459,#460));
#103=EDGE_LOOP('',(#461,#462,#463,#464));
#104=EDGE_LOOP('',(#465,#466,#467,#468,#469,#470,#471,#472));
#105=LINE('',#783,#145);
#106=LINE('',#786,#146);
#107=LINE('',#791,#147);
#108=LINE('',#794,#148);
#109=LINE('',#799,#149);
#110=LINE('',#802,#150);
#111=LINE('',#807,#151);
#112=LINE('',#809,#152);
#113=LINE('',#820,#153);
#114=LINE('',#823,#154);
#115=LINE('',#826,#155);
#116=LINE('',#827,#156);
#117=LINE('',#830,#157);
#118=LINE('',#834,#158);
#119=LINE('',#838,#159);
#120=LINE('',#842,#160);
#121=LINE('',#846,#161);
#122=LINE('',#850,#162);
#123=LINE('',#851,#163);
#124=LINE('',#855,#164);
#125=LINE('',#862,#165);
#126=LINE('',#864,#166);
#127=LINE('',#867,#167);
#128=LINE('',#869,#168);
#129=LINE('',#876,#169);
#130=LINE('',#880,#170);
#131=LINE('',#881,#171);
#132=LINE('',#883,#172);
#133=LINE('',#894,#173);
#134=LINE('',#895,#174);
#135=LINE('',#896,#175);
#136=LINE('',#900,#176);
#137=LINE('',#903,#177);
#138=LINE('',#904,#178);
#139=LINE('',#908,#179);
#140=LINE('',#911,#180);
#141=LINE('',#912,#181);
#142=LINE('',#916,#182);
#143=LINE('',#919,#183);
#144=LINE('',#920,#184);
#145=VECTOR('',#609,10.);
#146=VECTOR('',#612,10.);
#147=VECTOR('',#617,10.);
#148=VECTOR('',#620,10.);
#149=VECTOR('',#625,10.);
#150=VECTOR('',#628,10.);
#151=VECTOR('',#633,10.);
#152=VECTOR('',#636,10.);
#153=VECTOR('',#655,10.);
#154=VECTOR('',#658,10.);
#155=VECTOR('',#661,10.);
#156=VECTOR('',#662,10.);
#157=VECTOR('',#663,10.);
#158=VECTOR('',#666,10.);
#159=VECTOR('',#669,10.);
#160=VECTOR('',#672,10.);
#161=VECTOR('',#677,10.);
#162=VECTOR('',#682,10.);
#163=VECTOR('',#683,10.);
#164=VECTOR('',#688,10.);
#165=VECTOR('',#695,10.);
#166=VECTOR('',#698,10.);
#167=VECTOR('',#701,10.);
#168=VECTOR('',#704,10.);
#169=VECTOR('',#715,10.);
#170=VECTOR('',#720,10.);
#171=VECTOR('',#721,10.);
#172=VECTOR('',#724,10.);
#173=VECTOR('',#741,10.);
#174=VECTOR('',#742,10.);
#175=VECTOR('',#743,10.);
#176=VECTOR('',#748,10.);
#177=VECTOR('',#751,10.);
#178=VECTOR('',#752,10.);
#179=VECTOR('',#757,10.);
#180=VECTOR('',#760,10.);
#181=VECTOR('',#761,10.);
#182=VECTOR('',#766,10.);
#183=VECTOR('',#769,10.);
#184=VECTOR('',#770,10.);
#185=CIRCLE('',#538,5.);
#186=CIRCLE('',#539,5.);
#187=CIRCLE('',#541,5.);
#188=CIRCLE('',#542,5.);
#189=CIRCLE('',#544,5.);
#190=CIRCLE('',#545,5.);
#191=CIRCLE('',#547,5.);
#192=CIRCLE('',#548,5.);
#193=CIRCLE('',#550,4.99999999999999);
#194=CIRCLE('',#552,5.);
#195=CIRCLE('',#554,5.);
#196=CIRCLE('',#556,4.99999999999999);
#197=CIRCLE('',#558,5.);
#198=CIRCLE('',#560,2.5);
#199=CIRCLE('',#561,2.5);
#200=CIRCLE('',#562,2.5);
#201=CIRCLE('',#563,2.5);
#202=CIRCLE('',#565,4.99999999999999);
#203=CIRCLE('',#569,5.);
#204=CIRCLE('',#571,5.);
#205=CIRCLE('',#572,5.);
#206=CIRCLE('',#574,5.);
#207=CIRCLE('',#576,5.);
#208=CIRCLE('',#578,4.99999999999999);
#209=CIRCLE('',#580,5.);
#210=CIRCLE('',#583,5.);
#211=CIRCLE('',#586,5.);
#212=CIRCLE('',#587,5.);
#213=CIRCLE('',#592,2.5);
#214=CIRCLE('',#595,2.5);
#215=CIRCLE('',#598,2.5);
#216=CIRCLE('',#601,2.5);
#217=VERTEX_POINT('',#779);
#218=VERTEX_POINT('',#780);
#219=VERTEX_POINT('',#782);
#220=VERTEX_POINT('',#784);
#221=VERTEX_POINT('',#788);
#222=VERTEX_POINT('',#790);
#223=VERTEX_POINT('',#792);
#224=VERTEX_POINT('',#796);
#225=VERTEX_POINT('',#798);
#226=VERTEX_POINT('',#800);
#227=VERTEX_POINT('',#804);
#228=VERTEX_POINT('',#806);
#229=VERTEX_POINT('',#819);
#230=VERTEX_POINT('',#821);
#231=VERTEX_POINT('',#825);
#232=VERTEX_POINT('',#828);
#233=VERTEX_POINT('',#829);
#234=VERTEX_POINT('',#831);
#235=VERTEX_POINT('',#833);
#236=VERTEX_POINT('',#835);
#237=VERTEX_POINT('',#837);
#238=VERTEX_POINT('',#839);
#239=VERTEX_POINT('',#841);
#240=VERTEX_POINT('',#845);
#241=VERTEX_POINT('',#849);
#242=VERTEX_POINT('',#854);
#243=VERTEX_POINT('',#858);
#244=VERTEX_POINT('',#859);
#245=VERTEX_POINT('',#861);
#246=VERTEX_POINT('',#866);
#247=VERTEX_POINT('',#875);
#248=VERTEX_POINT('',#879);
#249=VERTEX_POINT('',#892);
#250=VERTEX_POINT('',#893);
#251=VERTEX_POINT('',#898);
#252=VERTEX_POINT('',#902);
#253=VERTEX_POINT('',#906);
#254=VERTEX_POINT('',#910);
#255=VERTEX_POINT('',#914);
#256=VERTEX_POINT('',#918);
#257=EDGE_CURVE('',#217,#218,#185,.T.);
#258=EDGE_CURVE('',#218,#219,#105,.T.);
#259=EDGE_CURVE('',#219,#220,#186,.T.);
#260=EDGE_CURVE('',#220,#217,#106,.T.);
#261=EDGE_CURVE('',#221,#219,#187,.T.);
#262=EDGE_CURVE('',#219,#222,#107,.T.);
#263=EDGE_CURVE('',#222,#223,#188,.T.);
#264=EDGE_CURVE('',#223,#221,#108,.T.);
#265=EDGE_CURVE('',#224,#222,#189,.T.);
#266=EDGE_CURVE('',#222,#225,#109,.T.);
#267=EDGE_CURVE('',#225,#226,#190,.T.);
#268=EDGE_CURVE('',#226,#224,#110,.T.);
#269=EDGE_CURVE('',#218,#227,#191,.T.);
#270=EDGE_CURVE('',#227,#228,#111,.T.);
#271=EDGE_CURVE('',#228,#225,#192,.T.);
#272=EDGE_CURVE('',#225,#218,#112,.T.);
#273=EDGE_CURVE('',#228,#226,#193,.T.);
#274=EDGE_CURVE('',#224,#223,#194,.T.);
#275=EDGE_CURVE('',#221,#220,#195,.T.);
#276=EDGE_CURVE('',#217,#227,#196,.T.);
#277=EDGE_CURVE('',#224,#229,#113,.T.);
#278=EDGE_CURVE('',#230,#229,#197,.T.);
#279=EDGE_CURVE('',#230,#223,#114,.T.);
#280=EDGE_CURVE('',#231,#226,#115,.T.);
#281=EDGE_CURVE('',#229,#231,#116,.T.);
#282=EDGE_CURVE('',#232,#233,#117,.T.);
#283=EDGE_CURVE('',#233,#234,#198,.T.);
#284=EDGE_CURVE('',#234,#235,#118,.T.);
#285=EDGE_CURVE('',#235,#236,#199,.T.);
#286=EDGE_CURVE('',#236,#237,#119,.T.);
#287=EDGE_CURVE('',#237,#238,#200,.T.);
#288=EDGE_CURVE('',#238,#239,#120,.T.);
#289=EDGE_CURVE('',#239,#232,#201,.T.);
#290=EDGE_CURVE('',#228,#240,#121,.T.);
#291=EDGE_CURVE('',#231,#240,#202,.T.);
#292=EDGE_CURVE('',#241,#227,#122,.T.);
#293=EDGE_CURVE('',#240,#241,#123,.T.);
#294=EDGE_CURVE('',#217,#242,#124,.T.);
#295=EDGE_CURVE('',#242,#241,#203,.T.);
#296=EDGE_CURVE('',#243,#244,#204,.T.);
#297=EDGE_CURVE('',#244,#245,#125,.T.);
#298=EDGE_CURVE('',#245,#242,#205,.T.);
#299=EDGE_CURVE('',#242,#243,#126,.T.);
#300=EDGE_CURVE('',#221,#246,#127,.T.);
#301=EDGE_CURVE('',#246,#243,#206,.T.);
#302=EDGE_CURVE('',#243,#220,#128,.T.);
#303=EDGE_CURVE('',#246,#244,#207,.T.);
#304=EDGE_CURVE('',#245,#241,#208,.T.);
#305=EDGE_CURVE('',#245,#247,#129,.T.);
#306=EDGE_CURVE('',#247,#240,#209,.T.);
#307=EDGE_CURVE('',#248,#244,#130,.T.);
#308=EDGE_CURVE('',#247,#248,#131,.T.);
#309=EDGE_CURVE('',#246,#230,#132,.T.);
#310=EDGE_CURVE('',#230,#248,#210,.T.);
#311=EDGE_CURVE('',#231,#247,#211,.T.);
#312=EDGE_CURVE('',#248,#229,#212,.T.);
#313=EDGE_CURVE('',#249,#250,#133,.T.);
#314=EDGE_CURVE('',#237,#249,#134,.T.);
#315=EDGE_CURVE('',#236,#250,#135,.T.);
#316=EDGE_CURVE('',#250,#251,#213,.T.);
#317=EDGE_CURVE('',#235,#251,#136,.T.);
#318=EDGE_CURVE('',#251,#252,#137,.T.);
#319=EDGE_CURVE('',#234,#252,#138,.T.);
#320=EDGE_CURVE('',#252,#253,#214,.T.);
#321=EDGE_CURVE('',#233,#253,#139,.T.);
#322=EDGE_CURVE('',#253,#254,#140,.T.);
#323=EDGE_CURVE('',#232,#254,#141,.T.);
#324=EDGE_CURVE('',#254,#255,#215,.T.);
#325=EDGE_CURVE('',#239,#255,#142,.T.);
#326=EDGE_CURVE('',#255,#256,#143,.T.);
#327=EDGE_CURVE('',#238,#256,#144,.T.);
#328=EDGE_CURVE('',#256,#249,#216,.T.);
#329=ORIENTED_EDGE('',*,*,#257,.T.);
#330=ORIENTED_EDGE('',*,*,#258,.T.);
#331=ORIENTED_EDGE('',*,*,#259,.T.);
#332=ORIENTED_EDGE('',*,*,#260,.T.);
#333=ORIENTED_EDGE('',*,*,#261,.T.);
#334=ORIENTED_EDGE('',*,*,#262,.T.);
#335=ORIENTED_EDGE('',*,*,#263,.T.);
#336=ORIENTED_EDGE('',*,*,#264,.T.);
#337=ORIENTED_EDGE('',*,*,#265,.T.);
#338=ORIENTED_EDGE('',*,*,#266,.T.);
#339=ORIENTED_EDGE('',*,*,#267,.T.);
#340=ORIENTED_EDGE('',*,*,#268,.T.);
#341=ORIENTED_EDGE('',*,*,#269,.T.);
#342=ORIENTED_EDGE('',*,*,#270,.T.);
#343=ORIENTED_EDGE('',*,*,#271,.T.);
#344=ORIENTED_EDGE('',*,*,#272,.T.);
#345=ORIENTED_EDGE('',*,*,#271,.F.);
#346=ORIENTED_EDGE('',*,*,#273,.T.);
#347=ORIENTED_EDGE('',*,*,#267,.F.);
#348=ORIENTED_EDGE('',*,*,#265,.F.);
#349=ORIENTED_EDGE('',*,*,#274,.T.);
#350=ORIENTED_EDGE('',*,*,#263,.F.);
#351=ORIENTED_EDGE('',*,*,#261,.F.);
#352=ORIENTED_EDGE('',*,*,#275,.T.);
#353=ORIENTED_EDGE('',*,*,#259,.F.);
#354=ORIENTED_EDGE('',*,*,#257,.F.);
#355=ORIENTED_EDGE('',*,*,#276,.T.);
#356=ORIENTED_EDGE('',*,*,#269,.F.);
#357=ORIENTED_EDGE('',*,*,#274,.F.);
#358=ORIENTED_EDGE('',*,*,#277,.T.);
#359=ORIENTED_EDGE('',*,*,#278,.F.);
#360=ORIENTED_EDGE('',*,*,#279,.T.);
#361=ORIENTED_EDGE('',*,*,#268,.F.);
#362=ORIENTED_EDGE('',*,*,#280,.F.);
#363=ORIENTED_EDGE('',*,*,#281,.F.);
#364=ORIENTED_EDGE('',*,*,#277,.F.);
#365=ORIENTED_EDGE('',*,*,#282,.T.);
#366=ORIENTED_EDGE('',*,*,#283,.T.);
#367=ORIENTED_EDGE('',*,*,#284,.T.);
#368=ORIENTED_EDGE('',*,*,#285,.T.);
#369=ORIENTED_EDGE('',*,*,#286,.T.);
#370=ORIENTED_EDGE('',*,*,#287,.T.);
#371=ORIENTED_EDGE('',*,*,#288,.T.);
#372=ORIENTED_EDGE('',*,*,#289,.T.);
#373=ORIENTED_EDGE('',*,*,#273,.F.);
#374=ORIENTED_EDGE('',*,*,#290,.T.);
#375=ORIENTED_EDGE('',*,*,#291,.F.);
#376=ORIENTED_EDGE('',*,*,#280,.T.);
#377=ORIENTED_EDGE('',*,*,#270,.F.);
#378=ORIENTED_EDGE('',*,*,#292,.F.);
#379=ORIENTED_EDGE('',*,*,#293,.F.);
#380=ORIENTED_EDGE('',*,*,#290,.F.);
#381=ORIENTED_EDGE('',*,*,#258,.F.);
#382=ORIENTED_EDGE('',*,*,#272,.F.);
#383=ORIENTED_EDGE('',*,*,#266,.F.);
#384=ORIENTED_EDGE('',*,*,#262,.F.);
#385=ORIENTED_EDGE('',*,*,#276,.F.);
#386=ORIENTED_EDGE('',*,*,#294,.T.);
#387=ORIENTED_EDGE('',*,*,#295,.T.);
#388=ORIENTED_EDGE('',*,*,#292,.T.);
#389=ORIENTED_EDGE('',*,*,#296,.T.);
#390=ORIENTED_EDGE('',*,*,#297,.T.);
#391=ORIENTED_EDGE('',*,*,#298,.T.);
#392=ORIENTED_EDGE('',*,*,#299,.T.);
#393=ORIENTED_EDGE('',*,*,#275,.F.);
#394=ORIENTED_EDGE('',*,*,#300,.T.);
#395=ORIENTED_EDGE('',*,*,#301,.T.);
#396=ORIENTED_EDGE('',*,*,#302,.T.);
#397=ORIENTED_EDGE('',*,*,#301,.F.);
#398=ORIENTED_EDGE('',*,*,#303,.T.);
#399=ORIENTED_EDGE('',*,*,#296,.F.);
#400=ORIENTED_EDGE('',*,*,#298,.F.);
#401=ORIENTED_EDGE('',*,*,#304,.T.);
#402=ORIENTED_EDGE('',*,*,#295,.F.);
#403=ORIENTED_EDGE('',*,*,#304,.F.);
#404=ORIENTED_EDGE('',*,*,#305,.T.);
#405=ORIENTED_EDGE('',*,*,#306,.T.);
#406=ORIENTED_EDGE('',*,*,#293,.T.);
#407=ORIENTED_EDGE('',*,*,#297,.F.);
#408=ORIENTED_EDGE('',*,*,#307,.F.);
#409=ORIENTED_EDGE('',*,*,#308,.F.);
#410=ORIENTED_EDGE('',*,*,#305,.F.);
#411=ORIENTED_EDGE('',*,*,#303,.F.);
#412=ORIENTED_EDGE('',*,*,#309,.T.);
#413=ORIENTED_EDGE('',*,*,#310,.T.);
#414=ORIENTED_EDGE('',*,*,#307,.T.);
#415=ORIENTED_EDGE('',*,*,#264,.F.);
#416=ORIENTED_EDGE('',*,*,#279,.F.);
#417=ORIENTED_EDGE('',*,*,#309,.F.);
#418=ORIENTED_EDGE('',*,*,#300,.F.);
#419=ORIENTED_EDGE('',*,*,#311,.T.);
#420=ORIENTED_EDGE('',*,*,#308,.T.);
#421=ORIENTED_EDGE('',*,*,#312,.T.);
#422=ORIENTED_EDGE('',*,*,#281,.T.);
#423=ORIENTED_EDGE('',*,*,#311,.F.);
#424=ORIENTED_EDGE('',*,*,#291,.T.);
#425=ORIENTED_EDGE('',*,*,#306,.F.);
#426=ORIENTED_EDGE('',*,*,#310,.F.);
#427=ORIENTED_EDGE('',*,*,#278,.T.);
#428=ORIENTED_EDGE('',*,*,#312,.F.);
#429=ORIENTED_EDGE('',*,*,#313,.F.);
#430=ORIENTED_EDGE('',*,*,#314,.F.);
#431=ORIENTED_EDGE('',*,*,#286,.F.);
#432=ORIENTED_EDGE('',*,*,#315,.T.);
#433=ORIENTED_EDGE('',*,*,#316,.F.);
#434=ORIENTED_EDGE('',*,*,#315,.F.);
#435=ORIENTED_EDGE('',*,*,#285,.F.);
#436=ORIENTED_EDGE('',*,*,#317,.T.);
#437=ORIENTED_EDGE('',*,*,#318,.F.);
#438=ORIENTED_EDGE('',*,*,#317,.F.);
#439=ORIENTED_EDGE('',*,*,#284,.F.);
#440=ORIENTED_EDGE('',*,*,#319,.T.);
#441=ORIENTED_EDGE('',*,*,#320,.F.);
#442=ORIENTED_EDGE('',*,*,#319,.F.);
#443=ORIENTED_EDGE('',*,*,#283,.F.);
#444=ORIENTED_EDGE('',*,*,#321,.T.);
#445=ORIENTED_EDGE('',*,*,#322,.F.);
#446=ORIENTED_EDGE('',*,*,#321,.F.);
#447=ORIENTED_EDGE('',*,*,#282,.F.);
#448=ORIENTED_EDGE('',*,*,#323,.T.);
#449=ORIENTED_EDGE('',*,*,#324,.F.);
#450=ORIENTED_EDGE('',*,*,#323,.F.);
#451=ORIENTED_EDGE('',*,*,#289,.F.);
#452=ORIENTED_EDGE('',*,*,#325,.T.);
#453=ORIENTED_EDGE('',*,*,#326,.F.);
#454=ORIENTED_EDGE('',*,*,#325,.F.);
#455=ORIENTED_EDGE('',*,*,#288,.F.);
#456=ORIENTED_EDGE('',*,*,#327,.T.);
#457=ORIENTED_EDGE('',*,*,#328,.F.);
#458=ORIENTED_EDGE('',*,*,#327,.F.);
#459=ORIENTED_EDGE('',*,*,#287,.F.);
#460=ORIENTED_EDGE('',*,*,#314,.T.);
#461=ORIENTED_EDGE('',*,*,#260,.F.);
#462=ORIENTED_EDGE('',*,*,#302,.F.);
#463=ORIENTED_EDGE('',*,*,#299,.F.);
#464=ORIENTED_EDGE('',*,*,#294,.F.);
#465=ORIENTED_EDGE('',*,*,#322,.T.);
#466=ORIENTED_EDGE('',*,*,#324,.T.);
#467=ORIENTED_EDGE('',*,*,#326,.T.);
#468=ORIENTED_EDGE('',*,*,#328,.T.);
#469=ORIENTED_EDGE('',*,*,#313,.T.);
#470=ORIENTED_EDGE('',*,*,#316,.T.);
#471=ORIENTED_EDGE('',*,*,#318,.T.);
#472=ORIENTED_EDGE('',*,*,#320,.T.);
#473=CYLINDRICAL_SURFACE('',#537,5.);
#474=CYLINDRICAL_SURFACE('',#540,5.);
#475=CYLINDRICAL_SURFACE('',#543,5.);
#476=CYLINDRICAL_SURFACE('',#546,5.);
#477=CYLINDRICAL_SURFACE('',#557,5.);
#478=CYLINDRICAL_SURFACE('',#564,5.);
#479=CYLINDRICAL_SURFACE('',#568,5.);
#480=CYLINDRICAL_SURFACE('',#570,5.);
#481=CYLINDRICAL_SURFACE('',#573,5.);
#482=CYLINDRICAL_SURFACE('',#579,5.);
#483=CYLINDRICAL_SURFACE('',#582,5.);
#484=CYLINDRICAL_SURFACE('',#585,5.);
#485=CYLINDRICAL_SURFACE('',#591,2.5);
#486=CYLINDRICAL_SURFACE('',#594,2.5);
#487=CYLINDRICAL_SURFACE('',#597,2.5);
#488=CYLINDRICAL_SURFACE('',#600,2.5);
#489=ADVANCED_FACE('',(#35),#473,.T.);
#490=ADVANCED_FACE('',(#36),#474,.T.);
#491=ADVANCED_FACE('',(#37),#475,.T.);
#492=ADVANCED_FACE('',(#38),#476,.T.);
#493=ADVANCED_FACE('',(#39),#27,.T.);
#494=ADVANCED_FACE('',(#40),#28,.T.);
#495=ADVANCED_FACE('',(#41),#29,.T.);
#496=ADVANCED_FACE('',(#42),#30,.T.);
#497=ADVANCED_FACE('',(#43),#477,.T.);
#498=ADVANCED_FACE('',(#44,#15),#17,.T.);
#499=ADVANCED_FACE('',(#45),#478,.T.);
#500=ADVANCED_FACE('',(#46),#18,.T.);
#501=ADVANCED_FACE('',(#47),#19,.T.);
#502=ADVANCED_FACE('',(#48),#479,.T.);
#503=ADVANCED_FACE('',(#49),#480,.T.);
#504=ADVANCED_FACE('',(#50),#481,.T.);
#505=ADVANCED_FACE('',(#51),#31,.T.);
#506=ADVANCED_FACE('',(#52),#32,.T.);
#507=ADVANCED_FACE('',(#53),#482,.T.);
#508=ADVANCED_FACE('',(#54),#20,.T.);
#509=ADVANCED_FACE('',(#55),#483,.T.);
#510=ADVANCED_FACE('',(#56),#21,.T.);
#511=ADVANCED_FACE('',(#57),#484,.T.);
#512=ADVANCED_FACE('',(#58),#33,.T.);
#513=ADVANCED_FACE('',(#59),#34,.T.);
#514=ADVANCED_FACE('',(#60),#22,.F.);
#515=ADVANCED_FACE('',(#61),#485,.F.);
#516=ADVANCED_FACE('',(#62),#23,.F.);
#517=ADVANCED_FACE('',(#63),#486,.F.);
#518=ADVANCED_FACE('',(#64),#24,.F.);
#519=ADVANCED_FACE('',(#65),#487,.F.);
#520=ADVANCED_FACE('',(#66),#25,.F.);
#521=ADVANCED_FACE('',(#67),#488,.F.);
#522=ADVANCED_FACE('',(#68,#16),#26,.F.);
#523=CLOSED_SHELL('',(#489,#490,#491,#492,#493,#494,#495,#496,#497,#498,
#499,#500,#501,#502,#503,#504,#505,#506,#507,#508,#509,#510,#511,#512,#513,
#514,#515,#516,#517,#518,#519,#520,#521,#522));
#524=DERIVED_UNIT_ELEMENT(#526,1.);
#525=DERIVED_UNIT_ELEMENT(#929,-3.);
#526=(
MASS_UNIT()
NAMED_UNIT(*)
SI_UNIT(.KILO.,.GRAM.)
);
#527=DERIVED_UNIT((#524,#525));
#528=MEASURE_REPRESENTATION_ITEM('density measure',
POSITIVE_RATIO_MEASURE(7850.),#527);
#529=PROPERTY_DEFINITION_REPRESENTATION(#534,#531);
#530=PROPERTY_DEFINITION_REPRESENTATION(#535,#532);
#531=REPRESENTATION('material name',(#533),#926);
#532=REPRESENTATION('density',(#528),#926);
#533=DESCRIPTIVE_REPRESENTATION_ITEM('Steel','Steel');
#534=PROPERTY_DEFINITION('material property','material name',#936);
#535=PROPERTY_DEFINITION('material property','density of part',#936);
#536=AXIS2_PLACEMENT_3D('',#777,#603,#604);
#537=AXIS2_PLACEMENT_3D('',#778,#605,#606);
#538=AXIS2_PLACEMENT_3D('',#781,#607,#608);
#539=AXIS2_PLACEMENT_3D('',#785,#610,#611);
#540=AXIS2_PLACEMENT_3D('',#787,#613,#614);
#541=AXIS2_PLACEMENT_3D('',#789,#615,#616);
#542=AXIS2_PLACEMENT_3D('',#793,#618,#619);
#543=AXIS2_PLACEMENT_3D('',#795,#621,#622);
#544=AXIS2_PLACEMENT_3D('',#797,#623,#624);
#545=AXIS2_PLACEMENT_3D('',#801,#626,#627);
#546=AXIS2_PLACEMENT_3D('',#803,#629,#630);
#547=AXIS2_PLACEMENT_3D('',#805,#631,#632);
#548=AXIS2_PLACEMENT_3D('',#808,#634,#635);
#549=AXIS2_PLACEMENT_3D('',#810,#637,#638);
#550=AXIS2_PLACEMENT_3D('',#811,#639,#640);
#551=AXIS2_PLACEMENT_3D('',#812,#641,#642);
#552=AXIS2_PLACEMENT_3D('',#813,#643,#644);
#553=AXIS2_PLACEMENT_3D('',#814,#645,#646);
#554=AXIS2_PLACEMENT_3D('',#815,#647,#648);
#555=AXIS2_PLACEMENT_3D('',#816,#649,#650);
#556=AXIS2_PLACEMENT_3D('',#817,#651,#652);
#557=AXIS2_PLACEMENT_3D('',#818,#653,#654);
#558=AXIS2_PLACEMENT_3D('',#822,#656,#657);
#559=AXIS2_PLACEMENT_3D('',#824,#659,#660);
#560=AXIS2_PLACEMENT_3D('',#832,#664,#665);
#561=AXIS2_PLACEMENT_3D('',#836,#667,#668);
#562=AXIS2_PLACEMENT_3D('',#840,#670,#671);
#563=AXIS2_PLACEMENT_3D('',#843,#673,#674);
#564=AXIS2_PLACEMENT_3D('',#844,#675,#676);
#565=AXIS2_PLACEMENT_3D('',#847,#678,#679);
#566=AXIS2_PLACEMENT_3D('',#848,#680,#681);
#567=AXIS2_PLACEMENT_3D('',#852,#684,#685);
#568=AXIS2_PLACEMENT_3D('',#853,#686,#687);
#569=AXIS2_PLACEMENT_3D('',#856,#689,#690);
#570=AXIS2_PLACEMENT_3D('',#857,#691,#692);
#571=AXIS2_PLACEMENT_3D('',#860,#693,#694);
#572=AXIS2_PLACEMENT_3D('',#863,#696,#697);
#573=AXIS2_PLACEMENT_3D('',#865,#699,#700);
#574=AXIS2_PLACEMENT_3D('',#868,#702,#703);
#575=AXIS2_PLACEMENT_3D('',#870,#705,#706);
#576=AXIS2_PLACEMENT_3D('',#871,#707,#708);
#577=AXIS2_PLACEMENT_3D('',#872,#709,#710);
#578=AXIS2_PLACEMENT_3D('',#873,#711,#712);
#579=AXIS2_PLACEMENT_3D('',#874,#713,#714);
#580=AXIS2_PLACEMENT_3D('',#877,#716,#717);
#581=AXIS2_PLACEMENT_3D('',#878,#718,#719);
#582=AXIS2_PLACEMENT_3D('',#882,#722,#723);
#583=AXIS2_PLACEMENT_3D('',#884,#725,#726);
#584=AXIS2_PLACEMENT_3D('',#885,#727,#728);
#585=AXIS2_PLACEMENT_3D('',#886,#729,#730);
#586=AXIS2_PLACEMENT_3D('',#887,#731,#732);
#587=AXIS2_PLACEMENT_3D('',#888,#733,#734);
#588=AXIS2_PLACEMENT_3D('',#889,#735,#736);
#589=AXIS2_PLACEMENT_3D('',#890,#737,#738);
#590=AXIS2_PLACEMENT_3D('',#891,#739,#740);
#591=AXIS2_PLACEMENT_3D('',#897,#744,#745);
#592=AXIS2_PLACEMENT_3D('',#899,#746,#747);
#593=AXIS2_PLACEMENT_3D('',#901,#749,#750);
#594=AXIS2_PLACEMENT_3D('',#905,#753,#754);
#595=AXIS2_PLACEMENT_3D('',#907,#755,#756);
#596=AXIS2_PLACEMENT_3D('',#909,#758,#759);
#597=AXIS2_PLACEMENT_3D('',#913,#762,#763);
#598=AXIS2_PLACEMENT_3D('',#915,#764,#765);
#599=AXIS2_PLACEMENT_3D('',#917,#767,#768);
#600=AXIS2_PLACEMENT_3D('',#921,#771,#772);
#601=AXIS2_PLACEMENT_3D('',#922,#773,#774);
#602=AXIS2_PLACEMENT_3D('',#923,#775,#776);
#603=DIRECTION('axis',(0.,0.,1.));
#604=DIRECTION('refdir',(1.,0.,0.));
#605=DIRECTION('center_axis',(0.,1.,0.));
#606=DIRECTION('ref_axis',(-0.707106781186547,0.,-0.707106781186547));
#607=DIRECTION('center_axis',(0.,1.,0.));
#608=DIRECTION('ref_axis',(0.,0.,-1.));
#609=DIRECTION('',(0.,1.,0.));
#610=DIRECTION('center_axis',(0.,-1.,0.));
#611=DIRECTION('ref_axis',(-1.,0.,0.));
#612=DIRECTION('',(0.,-1.,0.));
#613=DIRECTION('center_axis',(0.,0.,1.));
#614=DIRECTION('ref_axis',(-0.707106781186547,0.707106781186547,0.));
#615=DIRECTION('center_axis',(0.,0.,1.));
#616=DIRECTION('ref_axis',(0.,1.,0.));
#617=DIRECTION('',(0.,0.,1.));
#618=DIRECTION('center_axis',(0.,0.,-1.));
#619=DIRECTION('ref_axis',(-1.,0.,0.));
#620=DIRECTION('',(0.,0.,-1.));
#621=DIRECTION('center_axis',(0.,-1.,0.));
#622=DIRECTION('ref_axis',(-0.707106781186547,0.,0.707106781186547));
#623=DIRECTION('center_axis',(0.,-1.,0.));
#624=DIRECTION('ref_axis',(0.,0.,1.));
#625=DIRECTION('',(0.,-1.,0.));
#626=DIRECTION('center_axis',(0.,1.,0.));
#627=DIRECTION('ref_axis',(-1.,0.,0.));
#628=DIRECTION('',(0.,1.,0.));
#629=DIRECTION('center_axis',(0.,0.,1.));
#630=DIRECTION('ref_axis',(-0.707106781186547,-0.707106781186547,0.));
#631=DIRECTION('center_axis',(0.,0.,1.));
#632=DIRECTION('ref_axis',(-1.,0.,0.));
#633=DIRECTION('',(0.,0.,1.));
#634=DIRECTION('center_axis',(0.,0.,-1.));
#635=DIRECTION('ref_axis',(0.,-1.,0.));
#636=DIRECTION('',(0.,0.,-1.));
#637=DIRECTION('center_axis',(0.408248290463863,-0.816496580927726,-0.408248290463864));
#638=DIRECTION('ref_axis',(-0.577350269189625,-0.577350269189628,0.577350269189625));
#639=DIRECTION('center_axis',(-1.,0.,0.));
#640=DIRECTION('ref_axis',(0.,-0.707106781186547,0.707106781186548));
#641=DIRECTION('center_axis',(-0.408248290463862,-0.816496580927726,0.408248290463863));
#642=DIRECTION('ref_axis',(-0.577350269189626,0.577350269189626,0.577350269189626));
#643=DIRECTION('center_axis',(-1.,0.,0.));
#644=DIRECTION('ref_axis',(0.,0.707106781186548,0.707106781186547));
#645=DIRECTION('center_axis',(-0.408248290463862,-0.816496580927726,-0.408248290463863));
#646=DIRECTION('ref_axis',(-0.577350269189626,0.577350269189626,-0.577350269189626));
#647=DIRECTION('center_axis',(-1.,0.,0.));
#648=DIRECTION('ref_axis',(0.,0.707106781186548,-0.707106781186547));
#649=DIRECTION('center_axis',(0.408248290463863,-0.816496580927726,0.408248290463864));
#650=DIRECTION('ref_axis',(-0.577350269189625,-0.577350269189628,-0.577350269189625));
#651=DIRECTION('center_axis',(-1.,0.,0.));
#652=DIRECTION('ref_axis',(0.,-0.707106781186547,-0.707106781186548));
#653=DIRECTION('center_axis',(-1.,0.,0.));
#654=DIRECTION('ref_axis',(0.,0.707106781186547,0.707106781186547));
#655=DIRECTION('',(1.,0.,0.));
#656=DIRECTION('center_axis',(1.,0.,0.));
#657=DIRECTION('ref_axis',(0.,0.707106781186548,0.707106781186547));
#658=DIRECTION('',(-1.,0.,0.));
#659=DIRECTION('center_axis',(0.,0.,1.));
#660=DIRECTION('ref_axis',(1.,0.,0.));
#661=DIRECTION('',(-1.,0.,0.));
#662=DIRECTION('',(0.,-1.,0.));
#663=DIRECTION('',(1.,0.,0.));
#664=DIRECTION('center_axis',(0.,0.,-1.));
#665=DIRECTION('ref_axis',(1.,1.77635683940025E-15,0.));
#666=DIRECTION('',(0.,-1.,0.));
#667=DIRECTION('center_axis',(0.,0.,-1.));
#668=DIRECTION('ref_axis',(0.,-1.,0.));
#669=DIRECTION('',(-1.,0.,0.));
#670=DIRECTION('center_axis',(0.,0.,-1.));
#671=DIRECTION('ref_axis',(-1.,0.,0.));
#672=DIRECTION('',(0.,1.,0.));
#673=DIRECTION('center_axis',(0.,0.,-1.));
#674=DIRECTION('ref_axis',(-3.55271367880049E-15,1.,0.));
#675=DIRECTION('center_axis',(1.,0.,0.));
#676=DIRECTION('ref_axis',(0.,-0.707106781186547,0.707106781186547));
#677=DIRECTION('',(1.,0.,0.));
#678=DIRECTION('center_axis',(1.,0.,0.));
#679=DIRECTION('ref_axis',(0.,-0.707106781186547,0.707106781186548));
#680=DIRECTION('center_axis',(0.,-1.,0.));
#681=DIRECTION('ref_axis',(1.,0.,0.));
#682=DIRECTION('',(-1.,0.,0.));
#683=DIRECTION('',(0.,0.,-1.));
#684=DIRECTION('center_axis',(-1.,0.,0.));
#685=DIRECTION('ref_axis',(0.,-1.,0.));
#686=DIRECTION('center_axis',(-1.,0.,0.));
#687=DIRECTION('ref_axis',(0.,-0.707106781186547,-0.707106781186547));
#688=DIRECTION('',(1.,0.,0.));
#689=DIRECTION('center_axis',(-1.,0.,0.));
#690=DIRECTION('ref_axis',(0.,0.,-1.));
#691=DIRECTION('center_axis',(0.,-1.,0.));
#692=DIRECTION('ref_axis',(0.707106781186547,0.,-0.707106781186547));
#693=DIRECTION('center_axis',(0.,-1.,0.));
#694=DIRECTION('ref_axis',(0.,0.,-1.));
#695=DIRECTION('',(0.,-1.,0.));
#696=DIRECTION('center_axis',(0.,1.,0.));
#697=DIRECTION('ref_axis',(1.,0.,0.));
#698=DIRECTION('',(0.,1.,0.));
#699=DIRECTION('center_axis',(1.,0.,0.));
#700=DIRECTION('ref_axis',(0.,0.707106781186547,-0.707106781186547));
#701=DIRECTION('',(1.,0.,0.));
#702=DIRECTION('center_axis',(-1.,0.,0.));
#703=DIRECTION('ref_axis',(0.,1.,0.));
#704=DIRECTION('',(-1.,0.,0.));
#705=DIRECTION('center_axis',(0.40824829046386,-0.816496580927727,-0.408248290463864));
#706=DIRECTION('ref_axis',(0.577350269189628,0.577350269189625,-0.577350269189625));
#707=DIRECTION('center_axis',(0.,0.,-1.));
#708=DIRECTION('ref_axis',(0.707106781186547,0.707106781186548,0.));
#709=DIRECTION('center_axis',(-0.408248290463861,-0.816496580927727,0.408248290463864));
#710=DIRECTION('ref_axis',(0.577350269189627,-0.577350269189627,-0.577350269189624));
#711=DIRECTION('center_axis',(0.,0.,-1.));
#712=DIRECTION('ref_axis',(0.707106781186547,-0.707106781186547,0.));
#713=DIRECTION('center_axis',(0.,0.,1.));
#714=DIRECTION('ref_axis',(0.707106781186547,-0.707106781186547,0.));
#715=DIRECTION('',(0.,0.,1.));
#716=DIRECTION('center_axis',(0.,0.,-1.));
#717=DIRECTION('ref_axis',(1.,0.,0.));
#718=DIRECTION('center_axis',(1.,0.,0.));
#719=DIRECTION('ref_axis',(0.,1.,0.));
#720=DIRECTION('',(0.,0.,-1.));
#721=DIRECTION('',(0.,1.,0.));
#722=DIRECTION('center_axis',(0.,0.,1.));
#723=DIRECTION('ref_axis',(0.707106781186547,0.707106781186547,0.));
#724=DIRECTION('',(0.,0.,1.));
#725=DIRECTION('center_axis',(0.,0.,-1.));
#726=DIRECTION('ref_axis',(0.,1.,0.));
#727=DIRECTION('center_axis',(0.,1.,0.));
#728=DIRECTION('ref_axis',(-1.,0.,0.));
#729=DIRECTION('center_axis',(0.,1.,0.));
#730=DIRECTION('ref_axis',(0.707106781186547,0.,0.707106781186547));
#731=DIRECTION('center_axis',(0.,1.,0.));
#732=DIRECTION('ref_axis',(0.,0.,1.));
#733=DIRECTION('center_axis',(0.,-1.,0.));
#734=DIRECTION('ref_axis',(1.,0.,0.));
#735=DIRECTION('center_axis',(-0.408248290463861,-0.816496580927727,-0.408248290463864));
#736=DIRECTION('ref_axis',(0.577350269189627,-0.577350269189627,0.577350269189624));
#737=DIRECTION('center_axis',(0.40824829046386,-0.816496580927727,0.408248290463864));
#738=DIRECTION('ref_axis',(0.577350269189628,0.577350269189625,0.577350269189625));
#739=DIRECTION('center_axis',(0.,-1.,0.));
#740=DIRECTION('ref_axis',(-1.,0.,0.));
#741=DIRECTION('',(1.,0.,0.));
#742=DIRECTION('',(0.,0.,-1.));
#743=DIRECTION('',(0.,0.,-1.));
#744=DIRECTION('center_axis',(0.,0.,-1.));
#745=DIRECTION('ref_axis',(0.,-1.,0.));
#746=DIRECTION('center_axis',(0.,0.,1.));
#747=DIRECTION('ref_axis',(0.,-1.,0.));
#748=DIRECTION('',(0.,0.,-1.));
#749=DIRECTION('center_axis',(1.,0.,0.));
#750=DIRECTION('ref_axis',(0.,-1.,0.));
#751=DIRECTION('',(0.,1.,0.));
#752=DIRECTION('',(0.,0.,-1.));
#753=DIRECTION('center_axis',(0.,0.,-1.));
#754=DIRECTION('ref_axis',(1.,1.77635683940025E-15,0.));
#755=DIRECTION('center_axis',(0.,0.,1.));
#756=DIRECTION('ref_axis',(1.,1.77635683940025E-15,0.));
#757=DIRECTION('',(0.,0.,-1.));
#758=DIRECTION('center_axis',(0.,1.,0.));
#759=DIRECTION('ref_axis',(1.,0.,0.));
#760=DIRECTION('',(-1.,0.,0.));
#761=DIRECTION('',(0.,0.,-1.));
#762=DIRECTION('center_axis',(0.,0.,-1.));
#763=DIRECTION('ref_axis',(-3.55271367880049E-15,1.,0.));
#764=DIRECTION('center_axis',(0.,0.,1.));
#765=DIRECTION('ref_axis',(-3.55271367880049E-15,1.,0.));
#766=DIRECTION('',(0.,0.,-1.));
#767=DIRECTION('center_axis',(-1.,0.,0.));
#768=DIRECTION('ref_axis',(0.,1.,0.));
#769=DIRECTION('',(0.,-1.,0.));
#770=DIRECTION('',(0.,0.,-1.));
#771=DIRECTION('center_axis',(0.,0.,-1.));
#772=DIRECTION('ref_axis',(-1.,0.,0.));
#773=DIRECTION('center_axis',(0.,0.,1.));
#774=DIRECTION('ref_axis',(-1.,0.,0.));
#775=DIRECTION('center_axis',(0.,0.,1.));
#776=DIRECTION('ref_axis',(1.,0.,0.));
#777=CARTESIAN_POINT('',(0.,0.,0.));
#778=CARTESIAN_POINT('Origin',(-95.,0.,5.));
#779=CARTESIAN_POINT('',(-95.,-145.,0.));
#780=CARTESIAN_POINT('',(-100.,-145.,5.));
#781=CARTESIAN_POINT('Origin',(-95.,-145.,5.));
#782=CARTESIAN_POINT('',(-100.,45.,5.));
#783=CARTESIAN_POINT('',(-100.,0.,5.));
#784=CARTESIAN_POINT('',(-95.,45.,0.));
#785=CARTESIAN_POINT('Origin',(-95.,45.,5.));
#786=CARTESIAN_POINT('',(-95.,0.,0.));
#787=CARTESIAN_POINT('Origin',(-95.,45.,0.));
#788=CARTESIAN_POINT('',(-95.,50.,5.));
#789=CARTESIAN_POINT('Origin',(-95.,45.,5.));
#790=CARTESIAN_POINT('',(-100.,45.,10.));
#791=CARTESIAN_POINT('',(-100.,45.,0.));
#792=CARTESIAN_POINT('',(-95.,50.,10.));
#793=CARTESIAN_POINT('Origin',(-95.,45.,10.));
#794=CARTESIAN_POINT('',(-95.,50.,0.));
#795=CARTESIAN_POINT('Origin',(-95.,0.,10.));
#796=CARTESIAN_POINT('',(-95.,45.,15.));
#797=CARTESIAN_POINT('Origin',(-95.,45.,10.));
#798=CARTESIAN_POINT('',(-100.,-145.,10.));
#799=CARTESIAN_POINT('',(-100.,0.,10.));
#800=CARTESIAN_POINT('',(-95.,-145.,15.));
#801=CARTESIAN_POINT('Origin',(-95.,-145.,10.));
#802=CARTESIAN_POINT('',(-95.,0.,15.));
#803=CARTESIAN_POINT('Origin',(-95.,-145.,0.));
#804=CARTESIAN_POINT('',(-95.,-150.,5.));
#805=CARTESIAN_POINT('Origin',(-95.,-145.,5.));
#806=CARTESIAN_POINT('',(-95.,-150.,10.));
#807=CARTESIAN_POINT('',(-95.,-150.,0.));
#808=CARTESIAN_POINT('Origin',(-95.,-145.,10.));
#809=CARTESIAN_POINT('',(-100.,-145.,0.));
#810=CARTESIAN_POINT('Origin',(-95.,-145.,10.));
#811=CARTESIAN_POINT('Origin',(-95.,-145.,10.));
#812=CARTESIAN_POINT('Origin',(-95.,45.,10.));
#813=CARTESIAN_POINT('Origin',(-95.,45.,10.));
#814=CARTESIAN_POINT('Origin',(-95.,45.,5.));
#815=CARTESIAN_POINT('Origin',(-95.,45.,5.));
#816=CARTESIAN_POINT('Origin',(-95.,-145.,5.));
#817=CARTESIAN_POINT('Origin',(-95.,-145.,5.));
#818=CARTESIAN_POINT('Origin',(200.,45.,10.));
#819=CARTESIAN_POINT('',(295.,45.,15.));
#820=CARTESIAN_POINT('',(200.,45.,15.));
#821=CARTESIAN_POINT('',(295.,50.,10.));
#822=CARTESIAN_POINT('Origin',(295.,45.,10.));
#823=CARTESIAN_POINT('',(200.,50.,10.));
#824=CARTESIAN_POINT('Origin',(100.,-50.,15.));
#825=CARTESIAN_POINT('',(295.,-145.,15.));
#826=CARTESIAN_POINT('',(0.,-145.,15.));
#827=CARTESIAN_POINT('',(295.,-100.,15.));
#828=CARTESIAN_POINT('',(60.5000008642673,-9.00000013411045,15.));
#829=CARTESIAN_POINT('',(136.500002071261,-9.00000013411045,15.));
#830=CARTESIAN_POINT('',(80.2500004321337,-9.00000013411045,15.));
#831=CARTESIAN_POINT('',(139.000002071261,-11.5000001341105,15.));
#832=CARTESIAN_POINT('Origin',(136.500002071261,-11.5000001341105,15.));
#833=CARTESIAN_POINT('',(139.000002071261,-86.5000013262033,15.));
#834=CARTESIAN_POINT('',(139.000002071261,-30.7500000670552,15.));
#835=CARTESIAN_POINT('',(136.500002071261,-89.0000013262033,15.));
#836=CARTESIAN_POINT('Origin',(136.500002071261,-86.5000013262033,15.));
#837=CARTESIAN_POINT('',(60.5000008642673,-89.0000013262033,15.));
#838=CARTESIAN_POINT('',(118.250001035631,-89.0000013262033,15.));
#839=CARTESIAN_POINT('',(58.0000008642674,-86.5000013262033,15.));
#840=CARTESIAN_POINT('Origin',(60.5000008642674,-86.5000013262033,15.));
#841=CARTESIAN_POINT('',(58.0000008642673,-11.5000001341105,15.));
#842=CARTESIAN_POINT('',(58.0000008642673,-68.2500006631017,15.));
#843=CARTESIAN_POINT('Origin',(60.5000008642674,-11.5000001341105,15.));
#844=CARTESIAN_POINT('Origin',(0.,-145.,10.));
#845=CARTESIAN_POINT('',(295.,-150.,10.));
#846=CARTESIAN_POINT('',(0.,-150.,10.));
#847=CARTESIAN_POINT('Origin',(295.,-145.,10.));
#848=CARTESIAN_POINT('Origin',(-100.,-150.,0.));
#849=CARTESIAN_POINT('',(295.,-150.,5.));
#850=CARTESIAN_POINT('',(0.,-150.,5.));
#851=CARTESIAN_POINT('',(295.,-150.,0.));
#852=CARTESIAN_POINT('Origin',(-100.,50.,0.));
#853=CARTESIAN_POINT('Origin',(0.,-145.,5.));
#854=CARTESIAN_POINT('',(295.,-145.,0.));
#855=CARTESIAN_POINT('',(0.,-145.,0.));
#856=CARTESIAN_POINT('Origin',(295.,-145.,5.));
#857=CARTESIAN_POINT('Origin',(295.,-100.,5.));
#858=CARTESIAN_POINT('',(295.,45.,0.));
#859=CARTESIAN_POINT('',(300.,45.,5.));
#860=CARTESIAN_POINT('Origin',(295.,45.,5.));
#861=CARTESIAN_POINT('',(300.,-145.,5.));
#862=CARTESIAN_POINT('',(300.,-100.,5.));
#863=CARTESIAN_POINT('Origin',(295.,-145.,5.));
#864=CARTESIAN_POINT('',(295.,-100.,0.));
#865=CARTESIAN_POINT('Origin',(200.,45.,5.));
#866=CARTESIAN_POINT('',(295.,50.,5.));
#867=CARTESIAN_POINT('',(200.,50.,5.));
#868=CARTESIAN_POINT('Origin',(295.,45.,5.));
#869=CARTESIAN_POINT('',(200.,45.,0.));
#870=CARTESIAN_POINT('Origin',(295.,45.,5.));
#871=CARTESIAN_POINT('Origin',(295.,45.,5.));
#872=CARTESIAN_POINT('Origin',(295.,-145.,5.));
#873=CARTESIAN_POINT('Origin',(295.,-145.,5.));
#874=CARTESIAN_POINT('Origin',(295.,-145.,0.));
#875=CARTESIAN_POINT('',(300.,-145.,10.));
#876=CARTESIAN_POINT('',(300.,-145.,0.));
#877=CARTESIAN_POINT('Origin',(295.,-145.,10.));
#878=CARTESIAN_POINT('Origin',(300.,-150.,0.));
#879=CARTESIAN_POINT('',(300.,45.,10.));
#880=CARTESIAN_POINT('',(300.,45.,0.));
#881=CARTESIAN_POINT('',(300.,-100.,10.));
#882=CARTESIAN_POINT('Origin',(295.,45.,0.));
#883=CARTESIAN_POINT('',(295.,50.,0.));
#884=CARTESIAN_POINT('Origin',(295.,45.,10.));
#885=CARTESIAN_POINT('Origin',(300.,50.,0.));
#886=CARTESIAN_POINT('Origin',(295.,-100.,10.));
#887=CARTESIAN_POINT('Origin',(295.,-145.,10.));
#888=CARTESIAN_POINT('Origin',(295.,45.,10.));
#889=CARTESIAN_POINT('Origin',(295.,-145.,10.));
#890=CARTESIAN_POINT('Origin',(295.,45.,10.));
#891=CARTESIAN_POINT('Origin',(136.500002071261,-89.0000013262033,15.));
#892=CARTESIAN_POINT('',(60.5000008642673,-89.0000013262033,0.));
#893=CARTESIAN_POINT('',(136.500002071261,-89.0000013262033,0.));
#894=CARTESIAN_POINT('',(118.250001035631,-89.0000013262033,0.));
#895=CARTESIAN_POINT('',(60.5000008642673,-89.0000013262033,15.));
#896=CARTESIAN_POINT('',(136.500002071261,-89.0000013262033,15.));
#897=CARTESIAN_POINT('Origin',(136.500002071261,-86.5000013262033,15.));
#898=CARTESIAN_POINT('',(139.000002071261,-86.5000013262033,0.));
#899=CARTESIAN_POINT('Origin',(136.500002071261,-86.5000013262033,0.));
#900=CARTESIAN_POINT('',(139.000002071261,-86.5000013262033,15.));
#901=CARTESIAN_POINT('Origin',(139.000002071261,-11.5000001341105,15.));
#902=CARTESIAN_POINT('',(139.000002071261,-11.5000001341105,0.));
#903=CARTESIAN_POINT('',(139.000002071261,-30.7500000670552,0.));
#904=CARTESIAN_POINT('',(139.000002071261,-11.5000001341105,15.));
#905=CARTESIAN_POINT('Origin',(136.500002071261,-11.5000001341105,15.));
#906=CARTESIAN_POINT('',(136.500002071261,-9.00000013411045,0.));
#907=CARTESIAN_POINT('Origin',(136.500002071261,-11.5000001341105,0.));
#908=CARTESIAN_POINT('',(136.500002071261,-9.00000013411045,15.));
#909=CARTESIAN_POINT('Origin',(60.5000008642673,-9.00000013411045,15.));
#910=CARTESIAN_POINT('',(60.5000008642673,-9.00000013411045,0.));
#911=CARTESIAN_POINT('',(80.2500004321337,-9.00000013411045,0.));
#912=CARTESIAN_POINT('',(60.5000008642673,-9.00000013411045,15.));
#913=CARTESIAN_POINT('Origin',(60.5000008642674,-11.5000001341105,15.));
#914=CARTESIAN_POINT('',(58.0000008642673,-11.5000001341105,0.));
#915=CARTESIAN_POINT('Origin',(60.5000008642674,-11.5000001341105,0.));
#916=CARTESIAN_POINT('',(58.0000008642673,-11.5000001341105,15.));
#917=CARTESIAN_POINT('Origin',(58.0000008642674,-86.5000013262033,15.));
#918=CARTESIAN_POINT('',(58.0000008642674,-86.5000013262033,0.));
#919=CARTESIAN_POINT('',(58.0000008642673,-68.2500006631017,0.));
#920=CARTESIAN_POINT('',(58.0000008642674,-86.5000013262033,15.));
#921=CARTESIAN_POINT('Origin',(60.5000008642674,-86.5000013262033,15.));
#922=CARTESIAN_POINT('Origin',(60.5000008642674,-86.5000013262033,0.));
#923=CARTESIAN_POINT('Origin',(100.,-50.,0.));
#924=UNCERTAINTY_MEASURE_WITH_UNIT(LENGTH_MEASURE(0.01),#928,
'DISTANCE_ACCURACY_VALUE',
'Maximum model space distance between geometric entities at asserted c
onnectivities');
#925=UNCERTAINTY_MEASURE_WITH_UNIT(LENGTH_MEASURE(0.01),#928,
'DISTANCE_ACCURACY_VALUE',
'Maximum model space distance between geometric entities at asserted c
onnectivities');
#926=(
GEOMETRIC_REPRESENTATION_CONTEXT(3)
GLOBAL_UNCERTAINTY_ASSIGNED_CONTEXT((#924))
GLOBAL_UNIT_ASSIGNED_CONTEXT((#928,#930,#931))
REPRESENTATION_CONTEXT('','3D')
);
#927=(
GEOMETRIC_REPRESENTATION_CONTEXT(3)
GLOBAL_UNCERTAINTY_ASSIGNED_CONTEXT((#925))
GLOBAL_UNIT_ASSIGNED_CONTEXT((#928,#930,#931))
REPRESENTATION_CONTEXT('','3D')
);
#928=(
LENGTH_UNIT()
NAMED_UNIT(*)
SI_UNIT(.MILLI.,.METRE.)
);
#929=(
LENGTH_UNIT()
NAMED_UNIT(*)
SI_UNIT($,.METRE.)
);
#930=(
NAMED_UNIT(*)
PLANE_ANGLE_UNIT()
SI_UNIT($,.RADIAN.)
);
#931=(
NAMED_UNIT(*)
SI_UNIT($,.STERADIAN.)
SOLID_ANGLE_UNIT()
);
#932=SHAPE_DEFINITION_REPRESENTATION(#933,#934);
#933=PRODUCT_DEFINITION_SHAPE('',$,#936);
#934=SHAPE_REPRESENTATION('',(#536),#926);
#935=PRODUCT_DEFINITION_CONTEXT('part definition',#940,'design');
#936=PRODUCT_DEFINITION('2026-09-20-20-59-47-244','Fan_Holder',#937,#935);
#937=PRODUCT_DEFINITION_FORMATION('',$,#942);
#938=PRODUCT_RELATED_PRODUCT_CATEGORY('Fan_Holder','Fan_Holder',(#942));
#939=APPLICATION_PROTOCOL_DEFINITION('international standard',
'automotive_design',2009,#940);
#940=APPLICATION_CONTEXT(
'Core Data for Automotive Mechanical Design Process');
#941=PRODUCT_CONTEXT('part definition',#940,'mechanical');
#942=PRODUCT('2026-09-20-20-59-47-244','Fan_Holder',$,(#941));
#943=PRESENTATION_STYLE_ASSIGNMENT((#944));
#944=SURFACE_STYLE_USAGE(.BOTH.,#945);
#945=SURFACE_SIDE_STYLE('',(#946));
#946=SURFACE_STYLE_FILL_AREA(#947);
#947=FILL_AREA_STYLE('Steel - Satin',(#948));
#948=FILL_AREA_STYLE_COLOUR('Steel - Satin',#949);
#949=COLOUR_RGB('Steel - Satin',0.627450980392157,0.627450980392157,0.627450980392157);
ENDSEC;
END-ISO-10303-21;
