ISO-10303-21;
HEADER;
/* Generated by software containing ST-Developer
 * from STEP Tools, Inc. (www.steptools.com) 
 */

FILE_DESCRIPTION(
/* description */ (''),
/* implementation_level */ '2;1');

FILE_NAME(
/* name */ 'Light Bulb.step',
/* time_stamp */ '2026-07-14T18:09:09+05:00',
/* author */ (''),
/* organization */ (''),
/* preprocessor_version */ 'ST-DEVELOPER v20.1',
/* originating_system */ 'Autodesk Translation Framework v15.8.0.0',
/* authorisation */ '');

FILE_SCHEMA (('AUTOMOTIVE_DESIGN { 1 0 10303 214 3 1 1 }'));
ENDSEC;

DATA;
#10=MECHANICAL_DESIGN_GEOMETRIC_PRESENTATION_REPRESENTATION('',(#136,#137,
#138,#139,#140,#141,#142,#143,#144,#145),#294);
#11=SHAPE_REPRESENTATION_RELATIONSHIP('SRR','None',#301,#12);
#12=ADVANCED_BREP_SHAPE_REPRESENTATION('',(#13,#14),#293);
#13=MANIFOLD_SOLID_BREP('Body1',#156);
#14=MANIFOLD_SOLID_BREP('Body2',#157);
#15=FACE_BOUND('',#41,.T.);
#16=SPHERICAL_SURFACE('',#188,30.);
#17=TOROIDAL_SURFACE('',#178,11.,4.);
#18=TOROIDAL_SURFACE('',#185,60.,45.);
#19=PLANE('',#177);
#20=PLANE('',#193);
#21=PLANE('',#194);
#22=CYLINDRICAL_SURFACE('',#174,10.88225);
#23=CYLINDRICAL_SURFACE('',#182,15.);
#24=FACE_OUTER_BOUND('',#34,.T.);
#25=FACE_OUTER_BOUND('',#35,.T.);
#26=FACE_OUTER_BOUND('',#36,.T.);
#27=FACE_OUTER_BOUND('',#37,.T.);
#28=FACE_OUTER_BOUND('',#38,.T.);
#29=FACE_OUTER_BOUND('',#39,.T.);
#30=FACE_OUTER_BOUND('',#40,.T.);
#31=FACE_OUTER_BOUND('',#42,.T.);
#32=FACE_OUTER_BOUND('',#43,.T.);
#33=FACE_OUTER_BOUND('',#44,.T.);
#34=EDGE_LOOP('',(#98,#99,#100,#101));
#35=EDGE_LOOP('',(#102,#103,#104,#105,#106));
#36=EDGE_LOOP('',(#107));
#37=EDGE_LOOP('',(#108,#109,#110,#111,#112,#113));
#38=EDGE_LOOP('',(#114,#115,#116,#117,#118,#119));
#39=EDGE_LOOP('',(#120,#121,#122,#123,#124));
#40=EDGE_LOOP('',(#125,#126));
#41=EDGE_LOOP('',(#127));
#42=EDGE_LOOP('',(#128,#129,#130,#131));
#43=EDGE_LOOP('',(#132));
#44=EDGE_LOOP('',(#133));
#45=LINE('',#254,#49);
#46=LINE('',#258,#50);
#47=LINE('',#273,#51);
#48=LINE('',#287,#52);
#49=VECTOR('',#201,9.38225);
#50=VECTOR('',#206,11.);
#51=VECTOR('',#225,15.);
#52=VECTOR('',#242,6.8825);
#53=CIRCLE('',#172,7.88225);
#54=CIRCLE('',#173,10.88225);
#55=CIRCLE('',#175,10.88225);
#56=CIRCLE('',#176,10.88225);
#57=CIRCLE('',#179,4.);
#58=CIRCLE('',#180,15.);
#59=CIRCLE('',#181,15.);
#60=CIRCLE('',#183,15.);
#61=CIRCLE('',#184,15.);
#62=CIRCLE('',#186,24.);
#63=CIRCLE('',#187,45.);
#64=CIRCLE('',#189,30.);
#65=CIRCLE('',#191,5.8825);
#66=CIRCLE('',#192,7.8825);
#67=VERTEX_POINT('',#251);
#68=VERTEX_POINT('',#253);
#69=VERTEX_POINT('',#257);
#70=VERTEX_POINT('',#259);
#71=VERTEX_POINT('',#264);
#72=VERTEX_POINT('',#266);
#73=VERTEX_POINT('',#270);
#74=VERTEX_POINT('',#271);
#75=VERTEX_POINT('',#276);
#76=VERTEX_POINT('',#280);
#77=VERTEX_POINT('',#281);
#78=VERTEX_POINT('',#284);
#79=VERTEX_POINT('',#286);
#80=EDGE_CURVE('',#67,#67,#53,.T.);
#81=EDGE_CURVE('',#67,#68,#45,.T.);
#82=EDGE_CURVE('',#68,#68,#54,.T.);
#83=EDGE_CURVE('',#68,#69,#46,.T.);
#84=EDGE_CURVE('',#70,#69,#55,.T.);
#85=EDGE_CURVE('',#69,#70,#56,.T.);
#86=EDGE_CURVE('',#70,#71,#57,.T.);
#87=EDGE_CURVE('',#71,#72,#58,.T.);
#88=EDGE_CURVE('',#72,#71,#59,.T.);
#89=EDGE_CURVE('',#73,#74,#60,.T.);
#90=EDGE_CURVE('',#73,#72,#47,.T.);
#91=EDGE_CURVE('',#74,#73,#61,.T.);
#92=EDGE_CURVE('',#75,#75,#62,.T.);
#93=EDGE_CURVE('',#75,#74,#63,.T.);
#94=EDGE_CURVE('',#76,#77,#64,.T.);
#95=EDGE_CURVE('',#78,#78,#65,.T.);
#96=EDGE_CURVE('',#78,#79,#48,.T.);
#97=EDGE_CURVE('',#79,#79,#66,.T.);
#98=ORIENTED_EDGE('',*,*,#80,.T.);
#99=ORIENTED_EDGE('',*,*,#81,.T.);
#100=ORIENTED_EDGE('',*,*,#82,.T.);
#101=ORIENTED_EDGE('',*,*,#81,.F.);
#102=ORIENTED_EDGE('',*,*,#82,.F.);
#103=ORIENTED_EDGE('',*,*,#83,.T.);
#104=ORIENTED_EDGE('',*,*,#84,.F.);
#105=ORIENTED_EDGE('',*,*,#85,.F.);
#106=ORIENTED_EDGE('',*,*,#83,.F.);
#107=ORIENTED_EDGE('',*,*,#80,.F.);
#108=ORIENTED_EDGE('',*,*,#85,.T.);
#109=ORIENTED_EDGE('',*,*,#86,.T.);
#110=ORIENTED_EDGE('',*,*,#87,.T.);
#111=ORIENTED_EDGE('',*,*,#88,.T.);
#112=ORIENTED_EDGE('',*,*,#86,.F.);
#113=ORIENTED_EDGE('',*,*,#84,.T.);
#114=ORIENTED_EDGE('',*,*,#89,.F.);
#115=ORIENTED_EDGE('',*,*,#90,.T.);
#116=ORIENTED_EDGE('',*,*,#87,.F.);
#117=ORIENTED_EDGE('',*,*,#88,.F.);
#118=ORIENTED_EDGE('',*,*,#90,.F.);
#119=ORIENTED_EDGE('',*,*,#91,.F.);
#120=ORIENTED_EDGE('',*,*,#92,.T.);
#121=ORIENTED_EDGE('',*,*,#93,.T.);
#122=ORIENTED_EDGE('',*,*,#91,.T.);
#123=ORIENTED_EDGE('',*,*,#89,.T.);
#124=ORIENTED_EDGE('',*,*,#93,.F.);
#125=ORIENTED_EDGE('',*,*,#94,.T.);
#126=ORIENTED_EDGE('',*,*,#94,.F.);
#127=ORIENTED_EDGE('',*,*,#92,.F.);
#128=ORIENTED_EDGE('',*,*,#95,.T.);
#129=ORIENTED_EDGE('',*,*,#96,.T.);
#130=ORIENTED_EDGE('',*,*,#97,.F.);
#131=ORIENTED_EDGE('',*,*,#96,.F.);
#132=ORIENTED_EDGE('',*,*,#95,.F.);
#133=ORIENTED_EDGE('',*,*,#97,.T.);
#134=CONICAL_SURFACE('',#171,9.38225,0.785398163397448);
#135=CONICAL_SURFACE('',#190,6.8825,0.785398163397448);
#136=STYLED_ITEM('',(#311),#146);
#137=STYLED_ITEM('',(#312),#147);
#138=STYLED_ITEM('',(#313),#149);
#139=STYLED_ITEM('',(#313),#150);
#140=STYLED_ITEM('',(#314),#151);
#141=STYLED_ITEM('',(#315),#152);
#142=STYLED_ITEM('',(#310),#13);
#143=STYLED_ITEM('',(#311),#153);
#144=STYLED_ITEM('',(#313),#154);
#145=STYLED_ITEM('',(#310),#14);
#146=ADVANCED_FACE('',(#24),#134,.T.);
#147=ADVANCED_FACE('',(#25),#22,.T.);
#148=ADVANCED_FACE('',(#26),#19,.T.);
#149=ADVANCED_FACE('',(#27),#17,.T.);
#150=ADVANCED_FACE('',(#28),#23,.T.);
#151=ADVANCED_FACE('',(#29),#18,.F.);
#152=ADVANCED_FACE('',(#30,#15),#16,.T.);
#153=ADVANCED_FACE('',(#31),#135,.T.);
#154=ADVANCED_FACE('',(#32),#20,.T.);
#155=ADVANCED_FACE('',(#33),#21,.T.);
#156=CLOSED_SHELL('',(#146,#147,#148,#149,#150,#151,#152));
#157=CLOSED_SHELL('',(#153,#154,#155));
#158=DERIVED_UNIT_ELEMENT(#160,1.);
#159=DERIVED_UNIT_ELEMENT(#296,-3.);
#160=(
MASS_UNIT()
NAMED_UNIT(*)
SI_UNIT(.KILO.,.GRAM.)
);
#161=DERIVED_UNIT((#158,#159));
#162=MEASURE_REPRESENTATION_ITEM('density measure',
POSITIVE_RATIO_MEASURE(7850.),#161);
#163=PROPERTY_DEFINITION_REPRESENTATION(#168,#165);
#164=PROPERTY_DEFINITION_REPRESENTATION(#169,#166);
#165=REPRESENTATION('material name',(#167),#293);
#166=REPRESENTATION('density',(#162),#293);
#167=DESCRIPTIVE_REPRESENTATION_ITEM('Steel','Steel');
#168=PROPERTY_DEFINITION('material property','material name',#303);
#169=PROPERTY_DEFINITION('material property','density of part',#303);
#170=AXIS2_PLACEMENT_3D('',#249,#195,#196);
#171=AXIS2_PLACEMENT_3D('',#250,#197,#198);
#172=AXIS2_PLACEMENT_3D('',#252,#199,#200);
#173=AXIS2_PLACEMENT_3D('',#255,#202,#203);
#174=AXIS2_PLACEMENT_3D('',#256,#204,#205);
#175=AXIS2_PLACEMENT_3D('',#260,#207,#208);
#176=AXIS2_PLACEMENT_3D('',#261,#209,#210);
#177=AXIS2_PLACEMENT_3D('',#262,#211,#212);
#178=AXIS2_PLACEMENT_3D('',#263,#213,#214);
#179=AXIS2_PLACEMENT_3D('',#265,#215,#216);
#180=AXIS2_PLACEMENT_3D('',#267,#217,#218);
#181=AXIS2_PLACEMENT_3D('',#268,#219,#220);
#182=AXIS2_PLACEMENT_3D('',#269,#221,#222);
#183=AXIS2_PLACEMENT_3D('',#272,#223,#224);
#184=AXIS2_PLACEMENT_3D('',#274,#226,#227);
#185=AXIS2_PLACEMENT_3D('',#275,#228,#229);
#186=AXIS2_PLACEMENT_3D('',#277,#230,#231);
#187=AXIS2_PLACEMENT_3D('',#278,#232,#233);
#188=AXIS2_PLACEMENT_3D('',#279,#234,#235);
#189=AXIS2_PLACEMENT_3D('',#282,#236,#237);
#190=AXIS2_PLACEMENT_3D('',#283,#238,#239);
#191=AXIS2_PLACEMENT_3D('',#285,#240,#241);
#192=AXIS2_PLACEMENT_3D('',#288,#243,#244);
#193=AXIS2_PLACEMENT_3D('',#289,#245,#246);
#194=AXIS2_PLACEMENT_3D('',#290,#247,#248);
#195=DIRECTION('axis',(0.,0.,1.));
#196=DIRECTION('refdir',(1.,0.,0.));
#197=DIRECTION('center_axis',(0.,1.,2.22044604925031E-16));
#198=DIRECTION('ref_axis',(1.,0.,0.));
#199=DIRECTION('center_axis',(0.,1.,2.22044604925031E-16));
#200=DIRECTION('ref_axis',(1.,0.,0.));
#201=DIRECTION('',(-0.707106781186547,0.707106781186547,7.04136402448282E-17));
#202=DIRECTION('center_axis',(0.,-1.,-2.22044604925031E-16));
#203=DIRECTION('ref_axis',(1.,0.,0.));
#204=DIRECTION('center_axis',(0.,-1.,-2.22044604925031E-16));
#205=DIRECTION('ref_axis',(1.,0.,0.));
#206=DIRECTION('',(0.,1.,2.22044604925031E-16));
#207=DIRECTION('center_axis',(0.,1.,2.22044604925031E-16));
#208=DIRECTION('ref_axis',(1.,0.,0.));
#209=DIRECTION('center_axis',(0.,1.,2.22044604925031E-16));
#210=DIRECTION('ref_axis',(1.,0.,0.));
#211=DIRECTION('center_axis',(0.,-1.,-2.22044604925031E-16));
#212=DIRECTION('ref_axis',(1.,0.,0.));
#213=DIRECTION('center_axis',(0.,-1.,2.22044604925031E-16));
#214=DIRECTION('ref_axis',(0.,-2.07241631263363E-16,-1.));
#215=DIRECTION('center_axis',(-1.,-2.71926214689378E-32,-1.22464679914735E-16));
#216=DIRECTION('ref_axis',(-1.22464679914735E-16,2.22044604925031E-16,1.));
#217=DIRECTION('center_axis',(0.,-1.,2.22044604925031E-16));
#218=DIRECTION('ref_axis',(-1.,0.,1.22464679914735E-16));
#219=DIRECTION('center_axis',(0.,-1.,2.22044604925031E-16));
#220=DIRECTION('ref_axis',(-1.,0.,1.22464679914735E-16));
#221=DIRECTION('center_axis',(0.,1.,-2.22044604925031E-16));
#222=DIRECTION('ref_axis',(1.,0.,0.));
#223=DIRECTION('center_axis',(0.,1.,-2.22044604925031E-16));
#224=DIRECTION('ref_axis',(1.,0.,0.));
#225=DIRECTION('',(0.,-1.,2.22044604925031E-16));
#226=DIRECTION('center_axis',(0.,1.,-2.22044604925031E-16));
#227=DIRECTION('ref_axis',(1.,0.,0.));
#228=DIRECTION('center_axis',(0.,-1.,2.22044604925031E-16));
#229=DIRECTION('ref_axis',(0.,-2.19929894401936E-16,-1.));
#230=DIRECTION('center_axis',(0.,-1.,2.22044604925031E-16));
#231=DIRECTION('ref_axis',(1.,0.,0.));
#232=DIRECTION('center_axis',(-1.,-2.71926214689378E-32,-1.22464679914735E-16));
#233=DIRECTION('ref_axis',(-1.22464679914735E-16,2.11471052309554E-16,1.));
#234=DIRECTION('center_axis',(6.12323399573677E-17,0.,1.));
#235=DIRECTION('ref_axis',(1.,0.,0.));
#236=DIRECTION('center_axis',(0.,-1.,0.));
#237=DIRECTION('ref_axis',(-1.,0.,0.));
#238=DIRECTION('center_axis',(0.,1.,2.22044604925031E-16));
#239=DIRECTION('ref_axis',(-1.,0.,0.));
#240=DIRECTION('center_axis',(0.,1.,2.22044604925031E-16));
#241=DIRECTION('ref_axis',(-1.,0.,0.));
#242=DIRECTION('',(0.707106781186548,0.707106781186548,2.43604851491927E-16));
#243=DIRECTION('center_axis',(0.,1.,2.22044604925031E-16));
#244=DIRECTION('ref_axis',(1.,0.,0.));
#245=DIRECTION('center_axis',(0.,-1.,-2.22044604925031E-16));
#246=DIRECTION('ref_axis',(1.,0.,0.));
#247=DIRECTION('center_axis',(0.,1.,2.22044604925031E-16));
#248=DIRECTION('ref_axis',(-1.,0.,0.));
#249=CARTESIAN_POINT('',(0.,0.,0.));
#250=CARTESIAN_POINT('Origin',(0.,-13.5,-2.99760216648792E-15));
#251=CARTESIAN_POINT('',(-7.88225,-15.,-2.36537185061755E-15));
#252=CARTESIAN_POINT('Origin',(0.,-15.,-3.33066907387547E-15));
#253=CARTESIAN_POINT('',(-10.88225,-12.,-3.9972265221025E-15));
#254=CARTESIAN_POINT('',(-9.38225,-13.5,-4.14659640961795E-15));
#255=CARTESIAN_POINT('Origin',(0.,-12.,-2.66453525910037E-15));
#256=CARTESIAN_POINT('Origin',(0.,-7.5,-1.66533453693773E-15));
#257=CARTESIAN_POINT('',(-10.88225,0.00173350844393905,-4.43280660200553E-16));
#258=CARTESIAN_POINT('',(-10.88225,-7.5,-2.99802579993986E-15));
#259=CARTESIAN_POINT('',(-1.33269126300213E-15,0.00173350844393674,10.88225));
#260=CARTESIAN_POINT('Origin',(0.,0.00173350844393905,-1.77597192320268E-15));
#261=CARTESIAN_POINT('Origin',(0.,0.00173350844393905,-1.77597192320268E-15));
#262=CARTESIAN_POINT('Origin',(0.,-15.,-3.33066907387547E-15));
#263=CARTESIAN_POINT('Origin',(0.,4.,-8.88178419700125E-16));
#264=CARTESIAN_POINT('',(-1.83697019872103E-15,4.,15.));
#265=CARTESIAN_POINT('Origin',(-1.34711147906209E-15,4.,11.));
#266=CARTESIAN_POINT('',(-15.,4.,9.48791779020905E-16));
#267=CARTESIAN_POINT('Origin',(0.,4.,-8.88178419700125E-16));
#268=CARTESIAN_POINT('Origin',(0.,4.,-8.88178419700125E-16));
#269=CARTESIAN_POINT('Origin',(0.,20.,-4.44089209850063E-15));
#270=CARTESIAN_POINT('',(-15.,15.,-1.49369887515444E-15));
#271=CARTESIAN_POINT('',(-1.83697019872103E-15,15.,15.));
#272=CARTESIAN_POINT('Origin',(0.,15.,-3.33066907387547E-15));
#273=CARTESIAN_POINT('',(-15.,20.,-2.6039218997796E-15));
#274=CARTESIAN_POINT('Origin',(0.,15.,-3.33066907387547E-15));
#275=CARTESIAN_POINT('Origin',(0.,15.,-3.33066907387547E-15));
#276=CARTESIAN_POINT('',(-2.93915231795365E-15,42.,24.));
#277=CARTESIAN_POINT('Origin',(0.,42.,-1.33226762955019E-15));
#278=CARTESIAN_POINT('Origin',(-7.34788079488412E-15,15.,60.));
#279=CARTESIAN_POINT('Origin',(0.,60.,0.));
#280=CARTESIAN_POINT('',(-1.83697019872103E-15,60.,30.));
#281=CARTESIAN_POINT('',(-1.83697019872103E-15,60.,-30.));
#282=CARTESIAN_POINT('Origin',(0.,60.,0.));
#283=CARTESIAN_POINT('Origin',(0.,-16.,-2.22044604925033E-16));
#284=CARTESIAN_POINT('',(5.8825,-17.,-1.1644876894485E-15));
#285=CARTESIAN_POINT('Origin',(0.,-17.,-4.44089209850064E-16));
#286=CARTESIAN_POINT('',(7.8825,-15.,-1.4791141972894E-30));
#287=CARTESIAN_POINT('',(6.8825,-16.,6.20818554588133E-16));
#288=CARTESIAN_POINT('Origin',(0.,-15.,-1.4791141972894E-30));
#289=CARTESIAN_POINT('Origin',(0.,-17.,-4.44089209850064E-16));
#290=CARTESIAN_POINT('Origin',(0.,-15.,-1.4791141972894E-30));
#291=UNCERTAINTY_MEASURE_WITH_UNIT(LENGTH_MEASURE(0.01),#295,
'DISTANCE_ACCURACY_VALUE',
'Maximum model space distance between geometric entities at asserted c
onnectivities');
#292=UNCERTAINTY_MEASURE_WITH_UNIT(LENGTH_MEASURE(0.01),#295,
'DISTANCE_ACCURACY_VALUE',
'Maximum model space distance between geometric entities at asserted c
onnectivities');
#293=(
GEOMETRIC_REPRESENTATION_CONTEXT(3)
GLOBAL_UNCERTAINTY_ASSIGNED_CONTEXT((#291))
GLOBAL_UNIT_ASSIGNED_CONTEXT((#295,#297,#298))
REPRESENTATION_CONTEXT('','3D')
);
#294=(
GEOMETRIC_REPRESENTATION_CONTEXT(3)
GLOBAL_UNCERTAINTY_ASSIGNED_CONTEXT((#292))
GLOBAL_UNIT_ASSIGNED_CONTEXT((#295,#297,#298))
REPRESENTATION_CONTEXT('','3D')
);
#295=(
LENGTH_UNIT()
NAMED_UNIT(*)
SI_UNIT(.MILLI.,.METRE.)
);
#296=(
LENGTH_UNIT()
NAMED_UNIT(*)
SI_UNIT($,.METRE.)
);
#297=(
NAMED_UNIT(*)
PLANE_ANGLE_UNIT()
SI_UNIT($,.RADIAN.)
);
#298=(
NAMED_UNIT(*)
SI_UNIT($,.STERADIAN.)
SOLID_ANGLE_UNIT()
);
#299=SHAPE_DEFINITION_REPRESENTATION(#300,#301);
#300=PRODUCT_DEFINITION_SHAPE('',$,#303);
#301=SHAPE_REPRESENTATION('',(#170),#293);
#302=PRODUCT_DEFINITION_CONTEXT('part definition',#307,'design');
#303=PRODUCT_DEFINITION('2026-07-13-21-58-14-085','Light Bulb',#304,#302);
#304=PRODUCT_DEFINITION_FORMATION('',$,#309);
#305=PRODUCT_RELATED_PRODUCT_CATEGORY('Light Bulb','Light Bulb',(#309));
#306=APPLICATION_PROTOCOL_DEFINITION('international standard',
'automotive_design',2009,#307);
#307=APPLICATION_CONTEXT(
'Core Data for Automotive Mechanical Design Process');
#308=PRODUCT_CONTEXT('part definition',#307,'mechanical');
#309=PRODUCT('2026-07-13-21-58-14-085','Light Bulb',$,(#308));
#310=PRESENTATION_STYLE_ASSIGNMENT((#316));
#311=PRESENTATION_STYLE_ASSIGNMENT((#317));
#312=PRESENTATION_STYLE_ASSIGNMENT((#318));
#313=PRESENTATION_STYLE_ASSIGNMENT((#319));
#314=PRESENTATION_STYLE_ASSIGNMENT((#320));
#315=PRESENTATION_STYLE_ASSIGNMENT((#321));
#316=SURFACE_STYLE_USAGE(.BOTH.,#322);
#317=SURFACE_STYLE_USAGE(.BOTH.,#323);
#318=SURFACE_STYLE_USAGE(.BOTH.,#324);
#319=SURFACE_STYLE_USAGE(.BOTH.,#325);
#320=SURFACE_STYLE_USAGE(.BOTH.,#326);
#321=SURFACE_STYLE_USAGE(.BOTH.,#327);
#322=SURFACE_SIDE_STYLE('',(#328));
#323=SURFACE_SIDE_STYLE('',(#329));
#324=SURFACE_SIDE_STYLE('',(#330));
#325=SURFACE_SIDE_STYLE('',(#331));
#326=SURFACE_SIDE_STYLE('',(#332));
#327=SURFACE_SIDE_STYLE('',(#333));
#328=SURFACE_STYLE_FILL_AREA(#334);
#329=SURFACE_STYLE_FILL_AREA(#335);
#330=SURFACE_STYLE_FILL_AREA(#336);
#331=SURFACE_STYLE_FILL_AREA(#337);
#332=SURFACE_STYLE_FILL_AREA(#338);
#333=SURFACE_STYLE_FILL_AREA(#339);
#334=FILL_AREA_STYLE('Steel - Satin',(#340));
#335=FILL_AREA_STYLE('Plastic - Glossy (Grey)',(#341));
#336=FILL_AREA_STYLE('Base Material - Metal',(#342));
#337=FILL_AREA_STYLE('Aluminum - Satin',(#343));
#338=FILL_AREA_STYLE('Plastic - Translucent Matte (Gray)',(#344));
#339=FILL_AREA_STYLE('Plastic - Translucent Glossy (White)',(#345));
#340=FILL_AREA_STYLE_COLOUR('Steel - Satin',#346);
#341=FILL_AREA_STYLE_COLOUR('Plastic - Glossy (Grey)',#347);
#342=FILL_AREA_STYLE_COLOUR('Base Material - Metal',#348);
#343=FILL_AREA_STYLE_COLOUR('Aluminum - Satin',#349);
#344=FILL_AREA_STYLE_COLOUR('Plastic - Translucent Matte (Gray)',#350);
#345=FILL_AREA_STYLE_COLOUR('Plastic - Translucent Glossy (White)',#351);
#346=COLOUR_RGB('Steel - Satin',0.627450980392157,0.627450980392157,0.627450980392157);
#347=COLOUR_RGB('Plastic - Glossy (Grey)',0.701960784313725,0.701960784313725,
0.701960784313725);
#348=COLOUR_RGB('Base Material - Metal',0.909803921568627,0.917647058823529,
0.92156862745098);
#349=COLOUR_RGB('Aluminum - Satin',0.96078431372549,0.96078431372549,0.964705882352941);
#350=COLOUR_RGB('Plastic - Translucent Matte (Gray)',0.701960784313725,
0.701960784313725,0.701960784313725);
#351=COLOUR_RGB('Plastic - Translucent Glossy (White)',0.964705882352941,
0.964705882352941,0.952941176470588);
ENDSEC;
END-ISO-10303-21;
