%TF.GenerationSoftware,KiCad,Pcbnew,10.0.6*%
%TF.CreationDate,2026-09-19T08:08:51+03:00*%
%TF.ProjectId,Opti-Grow,4f707469-2d47-4726-9f77-2e6b69636164,rev?*%
%TF.SameCoordinates,Original*%
%TF.FileFunction,Plated,1,2,PTH,Drill*%
%TF.FilePolarity,Positive*%
%FSLAX46Y46*%
G04 Gerber Fmt 4.6, Leading zero omitted, Abs format (unit mm)*
G04 Created by KiCad (PCBNEW 10.0.6) date 2026-09-19 08:08:51*
%MOMM*%
%LPD*%
G01*
G04 APERTURE LIST*
%TA.AperFunction,ComponentDrill*%
%ADD10C,0.800000*%
%TD*%
%TA.AperFunction,ComponentDrill*%
%ADD11C,1.020000*%
%TD*%
G04 APERTURE END LIST*
D10*
%TO.C,J5*%
X134620000Y-74153000D03*
X134620000Y-76153000D03*
X134620000Y-78153000D03*
X134620000Y-80153000D03*
X134620000Y-82153000D03*
X134620000Y-84153000D03*
X134620000Y-86153000D03*
X134620000Y-88153000D03*
%TO.C,J4*%
X139319000Y-93123000D03*
X139319000Y-95123000D03*
X139319000Y-97123000D03*
%TO.C,J3*%
X175768000Y-92456000D03*
X175768000Y-94456000D03*
X175768000Y-96456000D03*
%TO.C,J1*%
X180721000Y-58293000D03*
X180721000Y-60293000D03*
X180721000Y-62293000D03*
D11*
%TO.C,REF\u002A\u002A*%
X146558000Y-45974000D03*
X146558000Y-48514000D03*
X146558000Y-51054000D03*
X146558000Y-53594000D03*
X146558000Y-56134000D03*
X146558000Y-58674000D03*
X146558000Y-61214000D03*
X146558000Y-63754000D03*
X146558000Y-66294000D03*
X146558000Y-68834000D03*
X146558000Y-71374000D03*
X146558000Y-73914000D03*
X146558000Y-76454000D03*
X146558000Y-78994000D03*
X146558000Y-81534000D03*
X146558000Y-84074000D03*
X146558000Y-86614000D03*
X146558000Y-89154000D03*
X146558000Y-91694000D03*
X146558000Y-94234000D03*
X146558000Y-96774000D03*
X146558000Y-99314000D03*
X169418000Y-45974000D03*
X169418000Y-48514000D03*
X169418000Y-51054000D03*
X169418000Y-53594000D03*
X169418000Y-56134000D03*
X169418000Y-58674000D03*
X169418000Y-61214000D03*
X169418000Y-63754000D03*
X169418000Y-66294000D03*
X169418000Y-68834000D03*
X169418000Y-71374000D03*
X169418000Y-73914000D03*
X169418000Y-76454000D03*
X169418000Y-78994000D03*
X169418000Y-81534000D03*
X169418000Y-84074000D03*
X169418000Y-86614000D03*
X169418000Y-89154000D03*
X169418000Y-91694000D03*
X169418000Y-94234000D03*
X169418000Y-96774000D03*
X169418000Y-99314000D03*
M02*
