%TF.GenerationSoftware,KiCad,Pcbnew,10.0.6*%
%TF.CreationDate,2026-09-19T08:08:47+03:00*%
%TF.ProjectId,Opti-Grow,4f707469-2d47-4726-9f77-2e6b69636164,rev?*%
%TF.SameCoordinates,Original*%
%TF.FileFunction,Soldermask,Bot*%
%TF.FilePolarity,Negative*%
%FSLAX46Y46*%
G04 Gerber Fmt 4.6, Leading zero omitted, Abs format (unit mm)*
G04 Created by KiCad (PCBNEW 10.0.6) date 2026-09-19 08:08:47*
%MOMM*%
%LPD*%
G01*
G04 APERTURE LIST*
G04 Aperture macros list*
%AMRoundRect*
0 Rectangle with rounded corners*
0 $1 Rounding radius*
0 $2 $3 $4 $5 $6 $7 $8 $9 X,Y pos of 4 corners*
0 Add a 4 corners polygon primitive as box body*
4,1,4,$2,$3,$4,$5,$6,$7,$8,$9,$2,$3,0*
0 Add four circle primitives for the rounded corners*
1,1,$1+$1,$2,$3*
1,1,$1+$1,$4,$5*
1,1,$1+$1,$6,$7*
1,1,$1+$1,$8,$9*
0 Add four rect primitives between the rounded corners*
20,1,$1+$1,$2,$3,$4,$5,0*
20,1,$1+$1,$4,$5,$6,$7,0*
20,1,$1+$1,$6,$7,$8,$9,0*
20,1,$1+$1,$8,$9,$2,$3,0*%
G04 Aperture macros list end*
%ADD10R,1.350000X1.350000*%
%ADD11C,1.350000*%
%ADD12RoundRect,0.102000X0.765000X0.765000X-0.765000X0.765000X-0.765000X-0.765000X0.765000X-0.765000X0*%
%ADD13C,1.734000*%
G04 APERTURE END LIST*
D10*
%TO.C,J5*%
X134620000Y-74153000D03*
D11*
X134620000Y-76153000D03*
X134620000Y-78153000D03*
X134620000Y-80153000D03*
X134620000Y-82153000D03*
X134620000Y-84153000D03*
X134620000Y-86153000D03*
X134620000Y-88153000D03*
%TD*%
D10*
%TO.C,J4*%
X139319000Y-93123000D03*
D11*
X139319000Y-95123000D03*
X139319000Y-97123000D03*
%TD*%
D10*
%TO.C,J3*%
X175768000Y-92456000D03*
D11*
X175768000Y-94456000D03*
X175768000Y-96456000D03*
%TD*%
D10*
%TO.C,J1*%
X180721000Y-58293000D03*
D11*
X180721000Y-60293000D03*
X180721000Y-62293000D03*
%TD*%
D12*
%TO.C,REF\u002A\u002A*%
X169418000Y-99314000D03*
D13*
X169418000Y-96774000D03*
X169418000Y-94234000D03*
X169418000Y-91694000D03*
X169418000Y-89154000D03*
X169418000Y-86614000D03*
X169418000Y-84074000D03*
X169418000Y-81534000D03*
X169418000Y-78994000D03*
X169418000Y-76454000D03*
X169418000Y-73914000D03*
X169418000Y-71374000D03*
X169418000Y-68834000D03*
X169418000Y-66294000D03*
X169418000Y-63754000D03*
X169418000Y-61214000D03*
X169418000Y-58674000D03*
X169418000Y-56134000D03*
X169418000Y-53594000D03*
X169418000Y-51054000D03*
X169418000Y-48514000D03*
X169418000Y-45974000D03*
X146558000Y-99314000D03*
X146558000Y-96774000D03*
X146558000Y-94234000D03*
X146558000Y-91694000D03*
X146558000Y-89154000D03*
X146558000Y-86614000D03*
X146558000Y-84074000D03*
X146558000Y-81534000D03*
X146558000Y-78994000D03*
X146558000Y-76454000D03*
X146558000Y-73914000D03*
X146558000Y-71374000D03*
X146558000Y-68834000D03*
X146558000Y-66294000D03*
X146558000Y-63754000D03*
X146558000Y-61214000D03*
X146558000Y-58674000D03*
X146558000Y-56134000D03*
X146558000Y-53594000D03*
X146558000Y-51054000D03*
X146558000Y-48514000D03*
X146558000Y-45974000D03*
%TD*%
M02*
