%TF.GenerationSoftware,KiCad,Pcbnew,10.0.6*%
%TF.CreationDate,2026-09-19T08:08:47+03:00*%
%TF.ProjectId,Opti-Grow,4f707469-2d47-4726-9f77-2e6b69636164,rev?*%
%TF.SameCoordinates,Original*%
%TF.FileFunction,Copper,L2,Bot*%
%TF.FilePolarity,Positive*%
%FSLAX46Y46*%
G04 Gerber Fmt 4.6, Leading zero omitted, Abs format (unit mm)*
G04 Created by KiCad (PCBNEW 10.0.6) date 2026-09-19 08:08:47*
%MOMM*%
%LPD*%
G01*
G04 APERTURE LIST*
%TA.AperFunction,ComponentPad*%
%ADD10R,1.350000X1.350000*%
%TD*%
%TA.AperFunction,ComponentPad*%
%ADD11C,1.350000*%
%TD*%
%TA.AperFunction,ComponentPad*%
%ADD12R,1.530000X1.530000*%
%TD*%
%TA.AperFunction,ComponentPad*%
%ADD13C,1.530000*%
%TD*%
G04 APERTURE END LIST*
D10*
%TO.P,J5,1,Pin_1_1*%
%TO.N,VCC*%
X134620000Y-74153000D03*
D11*
%TO.P,J5,2,Pin_2_2*%
%TO.N,GND*%
X134620000Y-76153000D03*
%TO.P,J5,3,Pin_3_3*%
%TO.N,peltier 2*%
X134620000Y-78153000D03*
%TO.P,J5,4,Pin_4_4*%
%TO.N,peltier 1*%
X134620000Y-80153000D03*
%TO.P,J5,5,Pin_5_5*%
%TO.N,heat lamp*%
X134620000Y-82153000D03*
%TO.P,J5,6,Pin_6_6*%
%TO.N,growing light*%
X134620000Y-84153000D03*
%TO.P,J5,7,Pin_7_7*%
%TO.N,water pump*%
X134620000Y-86153000D03*
%TO.P,J5,8,Pin_8_8*%
%TO.N,humidifier*%
X134620000Y-88153000D03*
%TD*%
D10*
%TO.P,J4,1,Pin_1_1*%
%TO.N,LDR*%
X139319000Y-93123000D03*
D11*
%TO.P,J4,2,Pin_2_2*%
%TO.N,GND*%
X139319000Y-95123000D03*
%TO.P,J4,3,Pin_3_3*%
%TO.N,VCC 3V*%
X139319000Y-97123000D03*
%TD*%
D10*
%TO.P,J3,1,Pin_1_1*%
%TO.N,GND*%
X175768000Y-92456000D03*
D11*
%TO.P,J3,2,Pin_2_2*%
%TO.N,DHT22*%
X175768000Y-94456000D03*
%TO.P,J3,3,Pin_3_3*%
%TO.N,VCC 3V*%
X175768000Y-96456000D03*
%TD*%
D10*
%TO.P,J1,1,Pin_1_1*%
%TO.N,GND*%
X180721000Y-58293000D03*
D11*
%TO.P,J1,2,Pin_2_2*%
%TO.N,VCC*%
X180721000Y-60293000D03*
%TO.P,J1,3,Pin_3_3*%
%TO.N,soil*%
X180721000Y-62293000D03*
%TD*%
D12*
%TO.P,REF\u002A\u002A,J1_1*%
%TO.N,N/C*%
X169418000Y-99314000D03*
D13*
%TO.P,REF\u002A\u002A,J1_2*%
X169418000Y-96774000D03*
%TO.P,REF\u002A\u002A,J1_3*%
X169418000Y-94234000D03*
%TO.P,REF\u002A\u002A,J1_4*%
X169418000Y-91694000D03*
%TO.P,REF\u002A\u002A,J1_5*%
X169418000Y-89154000D03*
%TO.P,REF\u002A\u002A,J1_6*%
X169418000Y-86614000D03*
%TO.P,REF\u002A\u002A,J1_7*%
X169418000Y-84074000D03*
%TO.P,REF\u002A\u002A,J1_8*%
X169418000Y-81534000D03*
%TO.P,REF\u002A\u002A,J1_9*%
X169418000Y-78994000D03*
%TO.P,REF\u002A\u002A,J1_10*%
X169418000Y-76454000D03*
%TO.P,REF\u002A\u002A,J1_11*%
X169418000Y-73914000D03*
%TO.P,REF\u002A\u002A,J1_12*%
X169418000Y-71374000D03*
%TO.P,REF\u002A\u002A,J1_13*%
X169418000Y-68834000D03*
%TO.P,REF\u002A\u002A,J1_14*%
X169418000Y-66294000D03*
%TO.P,REF\u002A\u002A,J1_15*%
X169418000Y-63754000D03*
%TO.P,REF\u002A\u002A,J1_16*%
X169418000Y-61214000D03*
%TO.P,REF\u002A\u002A,J1_17*%
X169418000Y-58674000D03*
%TO.P,REF\u002A\u002A,J1_18*%
X169418000Y-56134000D03*
%TO.P,REF\u002A\u002A,J1_19*%
X169418000Y-53594000D03*
%TO.P,REF\u002A\u002A,J1_20*%
X169418000Y-51054000D03*
%TO.P,REF\u002A\u002A,J1_21*%
X169418000Y-48514000D03*
%TO.P,REF\u002A\u002A,J1_22*%
X169418000Y-45974000D03*
%TO.P,REF\u002A\u002A,J3_1*%
X146558000Y-99314000D03*
%TO.P,REF\u002A\u002A,J3_2*%
X146558000Y-96774000D03*
%TO.P,REF\u002A\u002A,J3_3*%
X146558000Y-94234000D03*
%TO.P,REF\u002A\u002A,J3_4*%
X146558000Y-91694000D03*
%TO.P,REF\u002A\u002A,J3_5*%
X146558000Y-89154000D03*
%TO.P,REF\u002A\u002A,J3_6*%
X146558000Y-86614000D03*
%TO.P,REF\u002A\u002A,J3_7*%
X146558000Y-84074000D03*
%TO.P,REF\u002A\u002A,J3_8*%
X146558000Y-81534000D03*
%TO.P,REF\u002A\u002A,J3_9*%
X146558000Y-78994000D03*
%TO.P,REF\u002A\u002A,J3_10*%
X146558000Y-76454000D03*
%TO.P,REF\u002A\u002A,J3_11*%
X146558000Y-73914000D03*
%TO.P,REF\u002A\u002A,J3_12*%
X146558000Y-71374000D03*
%TO.P,REF\u002A\u002A,J3_13*%
X146558000Y-68834000D03*
%TO.P,REF\u002A\u002A,J3_14*%
X146558000Y-66294000D03*
%TO.P,REF\u002A\u002A,J3_15*%
X146558000Y-63754000D03*
%TO.P,REF\u002A\u002A,J3_16*%
X146558000Y-61214000D03*
%TO.P,REF\u002A\u002A,J3_17*%
X146558000Y-58674000D03*
%TO.P,REF\u002A\u002A,J3_18*%
X146558000Y-56134000D03*
%TO.P,REF\u002A\u002A,J3_19*%
X146558000Y-53594000D03*
%TO.P,REF\u002A\u002A,J3_20*%
X146558000Y-51054000D03*
%TO.P,REF\u002A\u002A,J3_21*%
X146558000Y-48514000D03*
%TO.P,REF\u002A\u002A,J3_22*%
X146558000Y-45974000D03*
%TD*%
%TA.AperFunction,Conductor*%
%TO.N,GND*%
G36*
X181216324Y-37457587D02*
G01*
X181256259Y-37459081D01*
X181695082Y-37475500D01*
X181704306Y-37476192D01*
X182178101Y-37529575D01*
X182187247Y-37530954D01*
X182549901Y-37599572D01*
X182655708Y-37619592D01*
X182664749Y-37621655D01*
X182838139Y-37668114D01*
X183125287Y-37745056D01*
X183134133Y-37747784D01*
X183584158Y-37905255D01*
X183592778Y-37908637D01*
X183749645Y-37977078D01*
X184029784Y-38099302D01*
X184038138Y-38103326D01*
X184459640Y-38326096D01*
X184467671Y-38330732D01*
X184871370Y-38584394D01*
X184879031Y-38589618D01*
X185262640Y-38872733D01*
X185269891Y-38878515D01*
X185631267Y-39189505D01*
X185638064Y-39195812D01*
X185975187Y-39532935D01*
X185981494Y-39539732D01*
X186260848Y-39864347D01*
X186292484Y-39901108D01*
X186298266Y-39908359D01*
X186581381Y-40291968D01*
X186586605Y-40299629D01*
X186840267Y-40703328D01*
X186844903Y-40711359D01*
X187067673Y-41132861D01*
X187071697Y-41141215D01*
X187262359Y-41578215D01*
X187265747Y-41586848D01*
X187423212Y-42036859D01*
X187425945Y-42045719D01*
X187549344Y-42506250D01*
X187551407Y-42515291D01*
X187640043Y-42983741D01*
X187641425Y-42992910D01*
X187694806Y-43466681D01*
X187695499Y-43475928D01*
X187713413Y-43954674D01*
X187713500Y-43959311D01*
X187713500Y-129395688D01*
X187713413Y-129400325D01*
X187695499Y-129879071D01*
X187694806Y-129888318D01*
X187641425Y-130362089D01*
X187640043Y-130371258D01*
X187551407Y-130839708D01*
X187549344Y-130848749D01*
X187425943Y-131309288D01*
X187423209Y-131318149D01*
X187395433Y-131397527D01*
X187368088Y-131442191D01*
X183542496Y-135449954D01*
X183493755Y-135481377D01*
X183134137Y-135607213D01*
X183125276Y-135609946D01*
X182664749Y-135733344D01*
X182655708Y-135735407D01*
X182187258Y-135824043D01*
X182178089Y-135825425D01*
X181704318Y-135878806D01*
X181695071Y-135879499D01*
X181216325Y-135897413D01*
X181211688Y-135897500D01*
X133748312Y-135897500D01*
X133743675Y-135897413D01*
X133264928Y-135879499D01*
X133255681Y-135878806D01*
X132781910Y-135825425D01*
X132772741Y-135824043D01*
X132304291Y-135735407D01*
X132295250Y-135733344D01*
X131834711Y-135609943D01*
X131825850Y-135607209D01*
X131730291Y-135573771D01*
X131688170Y-135548787D01*
X127840423Y-132076430D01*
X127809845Y-132033960D01*
X127796064Y-132002374D01*
X127697637Y-131776778D01*
X127694252Y-131768151D01*
X127659464Y-131668733D01*
X127536784Y-131318133D01*
X127534054Y-131309280D01*
X127498043Y-131174887D01*
X127410655Y-130848749D01*
X127408592Y-130839708D01*
X127383285Y-130705960D01*
X127319954Y-130371247D01*
X127318574Y-130362088D01*
X127306990Y-130259273D01*
X127305769Y-130248437D01*
X129166500Y-130248437D01*
X129166500Y-130609562D01*
X129201896Y-130968957D01*
X129272344Y-131323130D01*
X129272347Y-131323141D01*
X129377181Y-131668733D01*
X129515381Y-132002376D01*
X129515383Y-132002381D01*
X129685609Y-132320852D01*
X129685620Y-132320870D01*
X129886244Y-132621125D01*
X129886254Y-132621139D01*
X130115354Y-132900297D01*
X130370702Y-133155645D01*
X130370707Y-133155649D01*
X130370708Y-133155650D01*
X130649866Y-133384750D01*
X130950136Y-133585384D01*
X130950145Y-133585389D01*
X130950147Y-133585390D01*
X131268618Y-133755616D01*
X131268620Y-133755616D01*
X131268626Y-133755620D01*
X131602268Y-133893819D01*
X131947849Y-133998650D01*
X131947855Y-133998651D01*
X131947858Y-133998652D01*
X131947869Y-133998655D01*
X132302042Y-134069103D01*
X132661434Y-134104500D01*
X132661437Y-134104500D01*
X133022563Y-134104500D01*
X133022566Y-134104500D01*
X133381958Y-134069103D01*
X133450904Y-134055388D01*
X133736130Y-133998655D01*
X133736141Y-133998652D01*
X133736141Y-133998651D01*
X133736151Y-133998650D01*
X134081732Y-133893819D01*
X134415374Y-133755620D01*
X134733864Y-133585384D01*
X135034134Y-133384750D01*
X135313292Y-133155650D01*
X135568650Y-132900292D01*
X135797750Y-132621134D01*
X135998384Y-132320864D01*
X136168620Y-132002374D01*
X136306819Y-131668732D01*
X136411650Y-131323151D01*
X136411652Y-131323141D01*
X136411655Y-131323130D01*
X136482103Y-130968957D01*
X136517500Y-130609566D01*
X136517500Y-130375437D01*
X177934500Y-130375437D01*
X177934500Y-130736562D01*
X177969896Y-131095957D01*
X178040344Y-131450130D01*
X178040347Y-131450141D01*
X178145181Y-131795733D01*
X178283381Y-132129376D01*
X178283383Y-132129381D01*
X178453609Y-132447852D01*
X178453620Y-132447870D01*
X178654244Y-132748125D01*
X178654254Y-132748139D01*
X178883354Y-133027297D01*
X179138702Y-133282645D01*
X179138707Y-133282649D01*
X179138708Y-133282650D01*
X179417866Y-133511750D01*
X179718136Y-133712384D01*
X179718145Y-133712389D01*
X179718147Y-133712390D01*
X180036618Y-133882616D01*
X180036620Y-133882616D01*
X180036626Y-133882620D01*
X180370268Y-134020819D01*
X180715849Y-134125650D01*
X180715855Y-134125651D01*
X180715858Y-134125652D01*
X180715869Y-134125655D01*
X181070042Y-134196103D01*
X181429434Y-134231500D01*
X181429437Y-134231500D01*
X181790563Y-134231500D01*
X181790566Y-134231500D01*
X182149958Y-134196103D01*
X182218904Y-134182388D01*
X182504130Y-134125655D01*
X182504141Y-134125652D01*
X182504141Y-134125651D01*
X182504151Y-134125650D01*
X182849732Y-134020819D01*
X183183374Y-133882620D01*
X183501864Y-133712384D01*
X183802134Y-133511750D01*
X184081292Y-133282650D01*
X184336650Y-133027292D01*
X184565750Y-132748134D01*
X184766384Y-132447864D01*
X184936620Y-132129374D01*
X185074819Y-131795732D01*
X185179650Y-131450151D01*
X185179652Y-131450141D01*
X185179655Y-131450130D01*
X185250103Y-131095957D01*
X185285500Y-130736566D01*
X185285500Y-130375434D01*
X185250103Y-130016042D01*
X185243134Y-129981005D01*
X185179655Y-129661869D01*
X185179652Y-129661858D01*
X185179651Y-129661855D01*
X185179650Y-129661849D01*
X185074819Y-129316268D01*
X184936620Y-128982626D01*
X184825030Y-128773856D01*
X184766390Y-128664147D01*
X184766389Y-128664145D01*
X184766384Y-128664136D01*
X184565750Y-128363866D01*
X184336650Y-128084708D01*
X184336649Y-128084707D01*
X184336645Y-128084702D01*
X184081297Y-127829354D01*
X183802139Y-127600254D01*
X183802138Y-127600253D01*
X183802134Y-127600250D01*
X183501864Y-127399616D01*
X183501859Y-127399613D01*
X183501852Y-127399609D01*
X183183381Y-127229383D01*
X183183376Y-127229381D01*
X182849733Y-127091181D01*
X182504141Y-126986347D01*
X182504130Y-126986344D01*
X182149957Y-126915896D01*
X181879279Y-126889237D01*
X181790566Y-126880500D01*
X181429434Y-126880500D01*
X181347465Y-126888573D01*
X181070042Y-126915896D01*
X180715869Y-126986344D01*
X180715858Y-126986347D01*
X180370266Y-127091181D01*
X180036623Y-127229381D01*
X180036618Y-127229383D01*
X179718147Y-127399609D01*
X179718129Y-127399620D01*
X179417874Y-127600244D01*
X179417860Y-127600254D01*
X179138702Y-127829354D01*
X178883354Y-128084702D01*
X178654254Y-128363860D01*
X178654244Y-128363874D01*
X178453620Y-128664129D01*
X178453609Y-128664147D01*
X178283383Y-128982618D01*
X178283381Y-128982623D01*
X178145181Y-129316266D01*
X178040347Y-129661858D01*
X178040344Y-129661869D01*
X177969896Y-130016042D01*
X177947008Y-130248434D01*
X177934912Y-130371258D01*
X177934500Y-130375437D01*
X136517500Y-130375437D01*
X136517500Y-130248434D01*
X136482103Y-129889042D01*
X136467495Y-129815603D01*
X136411655Y-129534869D01*
X136411652Y-129534858D01*
X136411651Y-129534855D01*
X136411650Y-129534849D01*
X136306819Y-129189268D01*
X136168620Y-128855626D01*
X136057030Y-128646856D01*
X135998390Y-128537147D01*
X135998389Y-128537145D01*
X135998384Y-128537136D01*
X135797750Y-128236866D01*
X135568650Y-127957708D01*
X135568649Y-127957707D01*
X135568645Y-127957702D01*
X135313297Y-127702354D01*
X135034139Y-127473254D01*
X135034138Y-127473253D01*
X135034134Y-127473250D01*
X134733864Y-127272616D01*
X134733859Y-127272613D01*
X134733852Y-127272609D01*
X134415381Y-127102383D01*
X134415376Y-127102381D01*
X134081733Y-126964181D01*
X133736141Y-126859347D01*
X133736130Y-126859344D01*
X133381957Y-126788896D01*
X133111279Y-126762237D01*
X133022566Y-126753500D01*
X132661434Y-126753500D01*
X132579465Y-126761573D01*
X132302042Y-126788896D01*
X131947869Y-126859344D01*
X131947858Y-126859347D01*
X131602266Y-126964181D01*
X131268623Y-127102381D01*
X131268618Y-127102383D01*
X130950147Y-127272609D01*
X130950129Y-127272620D01*
X130649874Y-127473244D01*
X130649860Y-127473254D01*
X130370702Y-127702354D01*
X130115354Y-127957702D01*
X129886254Y-128236860D01*
X129886244Y-128236874D01*
X129685620Y-128537129D01*
X129685609Y-128537147D01*
X129515383Y-128855618D01*
X129515381Y-128855623D01*
X129377181Y-129189266D01*
X129272347Y-129534858D01*
X129272344Y-129534869D01*
X129201896Y-129889042D01*
X129166500Y-130248437D01*
X127305769Y-130248437D01*
X127279584Y-130016042D01*
X127265192Y-129888306D01*
X127264500Y-129879070D01*
X127262125Y-129815603D01*
X127246587Y-129400324D01*
X127246500Y-129395688D01*
X127246500Y-92400135D01*
X138143500Y-92400135D01*
X138143500Y-93845870D01*
X138143501Y-93845876D01*
X138149908Y-93905483D01*
X138200202Y-94040328D01*
X138200206Y-94040335D01*
X138286452Y-94155544D01*
X138286455Y-94155547D01*
X138371938Y-94219540D01*
X138413809Y-94275473D01*
X138418793Y-94345165D01*
X138397946Y-94391690D01*
X138314051Y-94507163D01*
X138230084Y-94671956D01*
X138230083Y-94671959D01*
X138172933Y-94847852D01*
X138144000Y-95030526D01*
X138144000Y-95215473D01*
X138172933Y-95398147D01*
X138230083Y-95574040D01*
X138230084Y-95574043D01*
X138314050Y-95738834D01*
X138329015Y-95759430D01*
X138919000Y-95169445D01*
X138919000Y-95175661D01*
X138946259Y-95277394D01*
X138998920Y-95368606D01*
X139073394Y-95443080D01*
X139164606Y-95495741D01*
X139266339Y-95523000D01*
X139272553Y-95523000D01*
X138658355Y-96137196D01*
X138627833Y-96172163D01*
X138553213Y-96226378D01*
X138422381Y-96357210D01*
X138422381Y-96357211D01*
X138422379Y-96357213D01*
X138375672Y-96421499D01*
X138313622Y-96506903D01*
X138229620Y-96671764D01*
X138229619Y-96671767D01*
X138172445Y-96847734D01*
X138143500Y-97030486D01*
X138143500Y-97215513D01*
X138172445Y-97398265D01*
X138229619Y-97574232D01*
X138229620Y-97574235D01*
X138313622Y-97739096D01*
X138422379Y-97888787D01*
X138553213Y-98019621D01*
X138702904Y-98128378D01*
X138754142Y-98154485D01*
X138867764Y-98212379D01*
X138867767Y-98212380D01*
X138927066Y-98231647D01*
X139043736Y-98269555D01*
X139226486Y-98298500D01*
X139226487Y-98298500D01*
X139411513Y-98298500D01*
X139411514Y-98298500D01*
X139594264Y-98269555D01*
X139770235Y-98212379D01*
X139935096Y-98128378D01*
X140084787Y-98019621D01*
X140215621Y-97888787D01*
X140324378Y-97739096D01*
X140408379Y-97574235D01*
X140465555Y-97398264D01*
X140494500Y-97215514D01*
X140494500Y-97030486D01*
X140465555Y-96847736D01*
X140408379Y-96671765D01*
X140408379Y-96671764D01*
X140324377Y-96506903D01*
X140215621Y-96357213D01*
X140084787Y-96226379D01*
X140084786Y-96226378D01*
X140010165Y-96172162D01*
X139995190Y-96152742D01*
X139365448Y-95523000D01*
X139371661Y-95523000D01*
X139473394Y-95495741D01*
X139564606Y-95443080D01*
X139639080Y-95368606D01*
X139691741Y-95277394D01*
X139719000Y-95175661D01*
X139719000Y-95169447D01*
X140308983Y-95759430D01*
X140308984Y-95759430D01*
X140323942Y-95738845D01*
X140323947Y-95738836D01*
X140407915Y-95574043D01*
X140407916Y-95574040D01*
X140465066Y-95398147D01*
X140494000Y-95215473D01*
X140494000Y-95030526D01*
X140465066Y-94847852D01*
X140407916Y-94671959D01*
X140407915Y-94671956D01*
X140323947Y-94507161D01*
X140240054Y-94391691D01*
X140216574Y-94325884D01*
X140232400Y-94257831D01*
X140266058Y-94219542D01*
X140351546Y-94155546D01*
X140437796Y-94040331D01*
X140488091Y-93905483D01*
X140494500Y-93845873D01*
X140494499Y-92400128D01*
X140488091Y-92340517D01*
X140439558Y-92210394D01*
X140437797Y-92205671D01*
X140437793Y-92205664D01*
X140351547Y-92090455D01*
X140351544Y-92090452D01*
X140236335Y-92004206D01*
X140236328Y-92004202D01*
X140101482Y-91953908D01*
X140101483Y-91953908D01*
X140041883Y-91947501D01*
X140041881Y-91947500D01*
X140041873Y-91947500D01*
X140041864Y-91947500D01*
X138596129Y-91947500D01*
X138596123Y-91947501D01*
X138536516Y-91953908D01*
X138401671Y-92004202D01*
X138401664Y-92004206D01*
X138286455Y-92090452D01*
X138286452Y-92090455D01*
X138200206Y-92205664D01*
X138200202Y-92205671D01*
X138149908Y-92340517D01*
X138143501Y-92400116D01*
X138143501Y-92400123D01*
X138143500Y-92400135D01*
X127246500Y-92400135D01*
X127246500Y-73430135D01*
X133444500Y-73430135D01*
X133444500Y-74875870D01*
X133444501Y-74875876D01*
X133450908Y-74935483D01*
X133501202Y-75070328D01*
X133501206Y-75070335D01*
X133587452Y-75185544D01*
X133587455Y-75185547D01*
X133672938Y-75249540D01*
X133714809Y-75305473D01*
X133719793Y-75375165D01*
X133698946Y-75421690D01*
X133615051Y-75537163D01*
X133531084Y-75701956D01*
X133531083Y-75701959D01*
X133473933Y-75877852D01*
X133445000Y-76060526D01*
X133445000Y-76245473D01*
X133473933Y-76428147D01*
X133531083Y-76604040D01*
X133531084Y-76604043D01*
X133615050Y-76768834D01*
X133630015Y-76789430D01*
X134220000Y-76199445D01*
X134220000Y-76205661D01*
X134247259Y-76307394D01*
X134299920Y-76398606D01*
X134374394Y-76473080D01*
X134465606Y-76525741D01*
X134567339Y-76553000D01*
X134573553Y-76553000D01*
X133959355Y-77167196D01*
X133928833Y-77202163D01*
X133854213Y-77256378D01*
X133723381Y-77387210D01*
X133723381Y-77387211D01*
X133723379Y-77387213D01*
X133700091Y-77419266D01*
X133614622Y-77536903D01*
X133530620Y-77701764D01*
X133530619Y-77701767D01*
X133473445Y-77877734D01*
X133444500Y-78060486D01*
X133444500Y-78245513D01*
X133473445Y-78428265D01*
X133530619Y-78604232D01*
X133530620Y-78604235D01*
X133578221Y-78697656D01*
X133614622Y-78769096D01*
X133723379Y-78918787D01*
X133854213Y-79049621D01*
X133858421Y-79052678D01*
X133858432Y-79052686D01*
X133901094Y-79108019D01*
X133907069Y-79177633D01*
X133874459Y-79239426D01*
X133858432Y-79253314D01*
X133854210Y-79256381D01*
X133723381Y-79387210D01*
X133723381Y-79387211D01*
X133723379Y-79387213D01*
X133676672Y-79451499D01*
X133614622Y-79536903D01*
X133530620Y-79701764D01*
X133530619Y-79701767D01*
X133473445Y-79877734D01*
X133444500Y-80060486D01*
X133444500Y-80245513D01*
X133473445Y-80428265D01*
X133530619Y-80604232D01*
X133530620Y-80604235D01*
X133584297Y-80709580D01*
X133614622Y-80769096D01*
X133723379Y-80918787D01*
X133854213Y-81049621D01*
X133858421Y-81052678D01*
X133858432Y-81052686D01*
X133901094Y-81108019D01*
X133907069Y-81177633D01*
X133874459Y-81239426D01*
X133858432Y-81253314D01*
X133854210Y-81256381D01*
X133723381Y-81387210D01*
X133723381Y-81387211D01*
X133723379Y-81387213D01*
X133676672Y-81451499D01*
X133614622Y-81536903D01*
X133530620Y-81701764D01*
X133530619Y-81701767D01*
X133473445Y-81877734D01*
X133444500Y-82060486D01*
X133444500Y-82245513D01*
X133473445Y-82428265D01*
X133530619Y-82604232D01*
X133530620Y-82604235D01*
X133536795Y-82616353D01*
X133614622Y-82769096D01*
X133723379Y-82918787D01*
X133854213Y-83049621D01*
X133858421Y-83052678D01*
X133858432Y-83052686D01*
X133901094Y-83108019D01*
X133907069Y-83177633D01*
X133874459Y-83239426D01*
X133858432Y-83253314D01*
X133854210Y-83256381D01*
X133723381Y-83387210D01*
X133723381Y-83387211D01*
X133723379Y-83387213D01*
X133706291Y-83410733D01*
X133614622Y-83536903D01*
X133530620Y-83701764D01*
X133530619Y-83701767D01*
X133473445Y-83877734D01*
X133444500Y-84060486D01*
X133444500Y-84245513D01*
X133473445Y-84428265D01*
X133530619Y-84604232D01*
X133530620Y-84604235D01*
X133598404Y-84737266D01*
X133614622Y-84769096D01*
X133723379Y-84918787D01*
X133854213Y-85049621D01*
X133858421Y-85052678D01*
X133858432Y-85052686D01*
X133901094Y-85108019D01*
X133907069Y-85177633D01*
X133874459Y-85239426D01*
X133858432Y-85253314D01*
X133854210Y-85256381D01*
X133723381Y-85387210D01*
X133723381Y-85387211D01*
X133723379Y-85387213D01*
X133709359Y-85406510D01*
X133614622Y-85536903D01*
X133530620Y-85701764D01*
X133530619Y-85701767D01*
X133473445Y-85877734D01*
X133444500Y-86060486D01*
X133444500Y-86245513D01*
X133473445Y-86428265D01*
X133530619Y-86604232D01*
X133530620Y-86604235D01*
X133614622Y-86769096D01*
X133723379Y-86918787D01*
X133854213Y-87049621D01*
X133858421Y-87052678D01*
X133858432Y-87052686D01*
X133901094Y-87108019D01*
X133907069Y-87177633D01*
X133874459Y-87239426D01*
X133858432Y-87253314D01*
X133854210Y-87256381D01*
X133723381Y-87387210D01*
X133723381Y-87387211D01*
X133723379Y-87387213D01*
X133686176Y-87438418D01*
X133614622Y-87536903D01*
X133530620Y-87701764D01*
X133530619Y-87701767D01*
X133473445Y-87877734D01*
X133444500Y-88060486D01*
X133444500Y-88245513D01*
X133473445Y-88428265D01*
X133530619Y-88604232D01*
X133530620Y-88604235D01*
X133614622Y-88769096D01*
X133723379Y-88918787D01*
X133854213Y-89049621D01*
X134003904Y-89158378D01*
X134084763Y-89199577D01*
X134168764Y-89242379D01*
X134168767Y-89242380D01*
X134256750Y-89270967D01*
X134344736Y-89299555D01*
X134527486Y-89328500D01*
X134527487Y-89328500D01*
X134712513Y-89328500D01*
X134712514Y-89328500D01*
X134895264Y-89299555D01*
X135071235Y-89242379D01*
X135236096Y-89158378D01*
X135385787Y-89049621D01*
X135516621Y-88918787D01*
X135625378Y-88769096D01*
X135709379Y-88604235D01*
X135766555Y-88428264D01*
X135795500Y-88245514D01*
X135795500Y-88060486D01*
X135766555Y-87877736D01*
X135709379Y-87701765D01*
X135709379Y-87701764D01*
X135646964Y-87579269D01*
X135625378Y-87536904D01*
X135516621Y-87387213D01*
X135385787Y-87256379D01*
X135381576Y-87253319D01*
X135338909Y-87197994D01*
X135332926Y-87128381D01*
X135365529Y-87066585D01*
X135381570Y-87052684D01*
X135385787Y-87049621D01*
X135516621Y-86918787D01*
X135625378Y-86769096D01*
X135709379Y-86604235D01*
X135766555Y-86428264D01*
X135795500Y-86245514D01*
X135795500Y-86060486D01*
X135766555Y-85877736D01*
X135709379Y-85701765D01*
X135709379Y-85701764D01*
X135625377Y-85536903D01*
X135516621Y-85387213D01*
X135385787Y-85256379D01*
X135381576Y-85253319D01*
X135338909Y-85197994D01*
X135332926Y-85128381D01*
X135365529Y-85066585D01*
X135381570Y-85052684D01*
X135385787Y-85049621D01*
X135516621Y-84918787D01*
X135625378Y-84769096D01*
X135709379Y-84604235D01*
X135766555Y-84428264D01*
X135795500Y-84245514D01*
X135795500Y-84060486D01*
X135766555Y-83877736D01*
X135709379Y-83701765D01*
X135709379Y-83701764D01*
X135625377Y-83536903D01*
X135516621Y-83387213D01*
X135385787Y-83256379D01*
X135381576Y-83253319D01*
X135338909Y-83197994D01*
X135332926Y-83128381D01*
X135365529Y-83066585D01*
X135381570Y-83052684D01*
X135385787Y-83049621D01*
X135516621Y-82918787D01*
X135625378Y-82769096D01*
X135709379Y-82604235D01*
X135766555Y-82428264D01*
X135795500Y-82245514D01*
X135795500Y-82060486D01*
X135766555Y-81877736D01*
X135709379Y-81701765D01*
X135709379Y-81701764D01*
X135625377Y-81536903D01*
X135516621Y-81387213D01*
X135385787Y-81256379D01*
X135381576Y-81253319D01*
X135338909Y-81197994D01*
X135332926Y-81128381D01*
X135365529Y-81066585D01*
X135381570Y-81052684D01*
X135385787Y-81049621D01*
X135516621Y-80918787D01*
X135625378Y-80769096D01*
X135709379Y-80604235D01*
X135766555Y-80428264D01*
X135795500Y-80245514D01*
X135795500Y-80060486D01*
X135766555Y-79877736D01*
X135709379Y-79701765D01*
X135709379Y-79701764D01*
X135625377Y-79536903D01*
X135516621Y-79387213D01*
X135385787Y-79256379D01*
X135381576Y-79253319D01*
X135338909Y-79197994D01*
X135332926Y-79128381D01*
X135365529Y-79066585D01*
X135381570Y-79052684D01*
X135385787Y-79049621D01*
X135516621Y-78918787D01*
X135625378Y-78769096D01*
X135709379Y-78604235D01*
X135766555Y-78428264D01*
X135795500Y-78245514D01*
X135795500Y-78060486D01*
X135766555Y-77877736D01*
X135736914Y-77786510D01*
X135709380Y-77701767D01*
X135709379Y-77701764D01*
X135625377Y-77536903D01*
X135516621Y-77387213D01*
X135385787Y-77256379D01*
X135385786Y-77256378D01*
X135311165Y-77202162D01*
X135296190Y-77182742D01*
X134666448Y-76553000D01*
X134672661Y-76553000D01*
X134774394Y-76525741D01*
X134865606Y-76473080D01*
X134940080Y-76398606D01*
X134992741Y-76307394D01*
X135020000Y-76205661D01*
X135020000Y-76199447D01*
X135609983Y-76789430D01*
X135609984Y-76789430D01*
X135624942Y-76768845D01*
X135624947Y-76768836D01*
X135708915Y-76604043D01*
X135708916Y-76604040D01*
X135766066Y-76428147D01*
X135795000Y-76245473D01*
X135795000Y-76060526D01*
X135766066Y-75877852D01*
X135708916Y-75701959D01*
X135708915Y-75701956D01*
X135624947Y-75537161D01*
X135541054Y-75421691D01*
X135517574Y-75355884D01*
X135533400Y-75287831D01*
X135567058Y-75249542D01*
X135652546Y-75185546D01*
X135738796Y-75070331D01*
X135789091Y-74935483D01*
X135795500Y-74875873D01*
X135795499Y-73430128D01*
X135789091Y-73370517D01*
X135738796Y-73235669D01*
X135738795Y-73235668D01*
X135738793Y-73235664D01*
X135652547Y-73120455D01*
X135652544Y-73120452D01*
X135537335Y-73034206D01*
X135537328Y-73034202D01*
X135402482Y-72983908D01*
X135402483Y-72983908D01*
X135342883Y-72977501D01*
X135342881Y-72977500D01*
X135342873Y-72977500D01*
X135342864Y-72977500D01*
X133897129Y-72977500D01*
X133897123Y-72977501D01*
X133837516Y-72983908D01*
X133702671Y-73034202D01*
X133702664Y-73034206D01*
X133587455Y-73120452D01*
X133587452Y-73120455D01*
X133501206Y-73235664D01*
X133501202Y-73235671D01*
X133450908Y-73370517D01*
X133444705Y-73428217D01*
X133444501Y-73430123D01*
X133444500Y-73430135D01*
X127246500Y-73430135D01*
X127246500Y-43959311D01*
X127246587Y-43954675D01*
X127246738Y-43950634D01*
X127264500Y-43475915D01*
X127265191Y-43466695D01*
X127274910Y-43380437D01*
X129547500Y-43380437D01*
X129547500Y-43741562D01*
X129582896Y-44100957D01*
X129653344Y-44455130D01*
X129653347Y-44455141D01*
X129758181Y-44800733D01*
X129896381Y-45134376D01*
X129896383Y-45134381D01*
X130066609Y-45452852D01*
X130066620Y-45452870D01*
X130267244Y-45753125D01*
X130267254Y-45753139D01*
X130496354Y-46032297D01*
X130751702Y-46287645D01*
X130751707Y-46287649D01*
X130751708Y-46287650D01*
X131030866Y-46516750D01*
X131331136Y-46717384D01*
X131331145Y-46717389D01*
X131331147Y-46717390D01*
X131649618Y-46887616D01*
X131649620Y-46887616D01*
X131649626Y-46887620D01*
X131983268Y-47025819D01*
X132328849Y-47130650D01*
X132328855Y-47130651D01*
X132328858Y-47130652D01*
X132328869Y-47130655D01*
X132683042Y-47201103D01*
X133042434Y-47236500D01*
X133042437Y-47236500D01*
X133403563Y-47236500D01*
X133403566Y-47236500D01*
X133762958Y-47201103D01*
X133861560Y-47181490D01*
X134117130Y-47130655D01*
X134117141Y-47130652D01*
X134117141Y-47130651D01*
X134117151Y-47130650D01*
X134462732Y-47025819D01*
X134796374Y-46887620D01*
X135114864Y-46717384D01*
X135415134Y-46516750D01*
X135694292Y-46287650D01*
X135949650Y-46032292D01*
X136079227Y-45874403D01*
X145292500Y-45874403D01*
X145292500Y-46073596D01*
X145323661Y-46270340D01*
X145323661Y-46270343D01*
X145385213Y-46459780D01*
X145475647Y-46637266D01*
X145592731Y-46798418D01*
X145733582Y-46939269D01*
X145894734Y-47056353D01*
X145964453Y-47091877D01*
X146046172Y-47133515D01*
X146096968Y-47181490D01*
X146113763Y-47249311D01*
X146091225Y-47315446D01*
X146046172Y-47354485D01*
X145894733Y-47431647D01*
X145802790Y-47498447D01*
X145733582Y-47548731D01*
X145733580Y-47548733D01*
X145733579Y-47548733D01*
X145592733Y-47689579D01*
X145592733Y-47689580D01*
X145592731Y-47689582D01*
X145542447Y-47758790D01*
X145475647Y-47850733D01*
X145385213Y-48028219D01*
X145323661Y-48217656D01*
X145323661Y-48217659D01*
X145292500Y-48414403D01*
X145292500Y-48613596D01*
X145323661Y-48810340D01*
X145323661Y-48810343D01*
X145385213Y-48999780D01*
X145385215Y-48999783D01*
X145475647Y-49177266D01*
X145592731Y-49338418D01*
X145733582Y-49479269D01*
X145894734Y-49596353D01*
X145964453Y-49631877D01*
X146046172Y-49673515D01*
X146096968Y-49721490D01*
X146113763Y-49789311D01*
X146091225Y-49855446D01*
X146046172Y-49894485D01*
X145894733Y-49971647D01*
X145802790Y-50038447D01*
X145733582Y-50088731D01*
X145733580Y-50088733D01*
X145733579Y-50088733D01*
X145592733Y-50229579D01*
X145592733Y-50229580D01*
X145592731Y-50229582D01*
X145542447Y-50298790D01*
X145475647Y-50390733D01*
X145385213Y-50568219D01*
X145323661Y-50757656D01*
X145323661Y-50757659D01*
X145292500Y-50954403D01*
X145292500Y-51153596D01*
X145323661Y-51350340D01*
X145323661Y-51350343D01*
X145385213Y-51539780D01*
X145385215Y-51539783D01*
X145475647Y-51717266D01*
X145592731Y-51878418D01*
X145733582Y-52019269D01*
X145894734Y-52136353D01*
X145964453Y-52171877D01*
X146046172Y-52213515D01*
X146096968Y-52261490D01*
X146113763Y-52329311D01*
X146091225Y-52395446D01*
X146046172Y-52434485D01*
X145894733Y-52511647D01*
X145802790Y-52578447D01*
X145733582Y-52628731D01*
X145733580Y-52628733D01*
X145733579Y-52628733D01*
X145592733Y-52769579D01*
X145592733Y-52769580D01*
X145592731Y-52769582D01*
X145542447Y-52838790D01*
X145475647Y-52930733D01*
X145385213Y-53108219D01*
X145323661Y-53297656D01*
X145323661Y-53297659D01*
X145292500Y-53494403D01*
X145292500Y-53693596D01*
X145323661Y-53890340D01*
X145323661Y-53890343D01*
X145385213Y-54079780D01*
X145385215Y-54079783D01*
X145475647Y-54257266D01*
X145592731Y-54418418D01*
X145733582Y-54559269D01*
X145894734Y-54676353D01*
X145964453Y-54711877D01*
X146046172Y-54753515D01*
X146096968Y-54801490D01*
X146113763Y-54869311D01*
X146091225Y-54935446D01*
X146046172Y-54974485D01*
X145894733Y-55051647D01*
X145802790Y-55118447D01*
X145733582Y-55168731D01*
X145733580Y-55168733D01*
X145733579Y-55168733D01*
X145592733Y-55309579D01*
X145592733Y-55309580D01*
X145592731Y-55309582D01*
X145542447Y-55378790D01*
X145475647Y-55470733D01*
X145385213Y-55648219D01*
X145323661Y-55837656D01*
X145323661Y-55837659D01*
X145292500Y-56034403D01*
X145292500Y-56233596D01*
X145323661Y-56430340D01*
X145323661Y-56430343D01*
X145385213Y-56619780D01*
X145385215Y-56619783D01*
X145475647Y-56797266D01*
X145592731Y-56958418D01*
X145733582Y-57099269D01*
X145894734Y-57216353D01*
X145964453Y-57251877D01*
X146046172Y-57293515D01*
X146096968Y-57341490D01*
X146113763Y-57409311D01*
X146091225Y-57475446D01*
X146046172Y-57514485D01*
X145894733Y-57591647D01*
X145802790Y-57658447D01*
X145733582Y-57708731D01*
X145733580Y-57708733D01*
X145733579Y-57708733D01*
X145592733Y-57849579D01*
X145592733Y-57849580D01*
X145592731Y-57849582D01*
X145561186Y-57893000D01*
X145475647Y-58010733D01*
X145385213Y-58188219D01*
X145323661Y-58377656D01*
X145323661Y-58377659D01*
X145292500Y-58574403D01*
X145292500Y-58773596D01*
X145323661Y-58970340D01*
X145323661Y-58970343D01*
X145385213Y-59159780D01*
X145410849Y-59210093D01*
X145475647Y-59337266D01*
X145592731Y-59498418D01*
X145733582Y-59639269D01*
X145894734Y-59756353D01*
X145964453Y-59791877D01*
X146046172Y-59833515D01*
X146096968Y-59881490D01*
X146113763Y-59949311D01*
X146091225Y-60015446D01*
X146046172Y-60054485D01*
X145894733Y-60131647D01*
X145802790Y-60198447D01*
X145733582Y-60248731D01*
X145733580Y-60248733D01*
X145733579Y-60248733D01*
X145592733Y-60389579D01*
X145592733Y-60389580D01*
X145592731Y-60389582D01*
X145542447Y-60458790D01*
X145475647Y-60550733D01*
X145385213Y-60728219D01*
X145323661Y-60917656D01*
X145323661Y-60917659D01*
X145292500Y-61114403D01*
X145292500Y-61313596D01*
X145323661Y-61510340D01*
X145323661Y-61510343D01*
X145385213Y-61699780D01*
X145385215Y-61699783D01*
X145475647Y-61877266D01*
X145592731Y-62038418D01*
X145733582Y-62179269D01*
X145894734Y-62296353D01*
X145964453Y-62331877D01*
X146046172Y-62373515D01*
X146096968Y-62421490D01*
X146113763Y-62489311D01*
X146091225Y-62555446D01*
X146046172Y-62594485D01*
X145894733Y-62671647D01*
X145802790Y-62738447D01*
X145733582Y-62788731D01*
X145733580Y-62788733D01*
X145733579Y-62788733D01*
X145592733Y-62929579D01*
X145592733Y-62929580D01*
X145592731Y-62929582D01*
X145542447Y-62998790D01*
X145475647Y-63090733D01*
X145385213Y-63268219D01*
X145323661Y-63457656D01*
X145323661Y-63457659D01*
X145292500Y-63654403D01*
X145292500Y-63853596D01*
X145323661Y-64050340D01*
X145323661Y-64050343D01*
X145385213Y-64239780D01*
X145385215Y-64239783D01*
X145475647Y-64417266D01*
X145592731Y-64578418D01*
X145733582Y-64719269D01*
X145894734Y-64836353D01*
X145964453Y-64871877D01*
X146046172Y-64913515D01*
X146096968Y-64961490D01*
X146113763Y-65029311D01*
X146091225Y-65095446D01*
X146046172Y-65134485D01*
X145894733Y-65211647D01*
X145802790Y-65278447D01*
X145733582Y-65328731D01*
X145733580Y-65328733D01*
X145733579Y-65328733D01*
X145592733Y-65469579D01*
X145592733Y-65469580D01*
X145592731Y-65469582D01*
X145542447Y-65538790D01*
X145475647Y-65630733D01*
X145385213Y-65808219D01*
X145323661Y-65997656D01*
X145323661Y-65997659D01*
X145292500Y-66194403D01*
X145292500Y-66393596D01*
X145323661Y-66590340D01*
X145323661Y-66590343D01*
X145385213Y-66779780D01*
X145385215Y-66779783D01*
X145475647Y-66957266D01*
X145592731Y-67118418D01*
X145733582Y-67259269D01*
X145894734Y-67376353D01*
X145964453Y-67411877D01*
X146046172Y-67453515D01*
X146096968Y-67501490D01*
X146113763Y-67569311D01*
X146091225Y-67635446D01*
X146046172Y-67674485D01*
X145894733Y-67751647D01*
X145802790Y-67818447D01*
X145733582Y-67868731D01*
X145733580Y-67868733D01*
X145733579Y-67868733D01*
X145592733Y-68009579D01*
X145592733Y-68009580D01*
X145592731Y-68009582D01*
X145542447Y-68078790D01*
X145475647Y-68170733D01*
X145385213Y-68348219D01*
X145323661Y-68537656D01*
X145323661Y-68537659D01*
X145292500Y-68734403D01*
X145292500Y-68933596D01*
X145323661Y-69130340D01*
X145323661Y-69130343D01*
X145385213Y-69319780D01*
X145385215Y-69319783D01*
X145475647Y-69497266D01*
X145592731Y-69658418D01*
X145733582Y-69799269D01*
X145894734Y-69916353D01*
X145964453Y-69951877D01*
X146046172Y-69993515D01*
X146096968Y-70041490D01*
X146113763Y-70109311D01*
X146091225Y-70175446D01*
X146046172Y-70214485D01*
X145894733Y-70291647D01*
X145802790Y-70358447D01*
X145733582Y-70408731D01*
X145733580Y-70408733D01*
X145733579Y-70408733D01*
X145592733Y-70549579D01*
X145592733Y-70549580D01*
X145592731Y-70549582D01*
X145542447Y-70618790D01*
X145475647Y-70710733D01*
X145385213Y-70888219D01*
X145323661Y-71077656D01*
X145323661Y-71077659D01*
X145292500Y-71274403D01*
X145292500Y-71473596D01*
X145323661Y-71670340D01*
X145323661Y-71670343D01*
X145385213Y-71859780D01*
X145385215Y-71859783D01*
X145475647Y-72037266D01*
X145592731Y-72198418D01*
X145733582Y-72339269D01*
X145894734Y-72456353D01*
X145964453Y-72491877D01*
X146046172Y-72533515D01*
X146096968Y-72581490D01*
X146113763Y-72649311D01*
X146091225Y-72715446D01*
X146046172Y-72754485D01*
X145894733Y-72831647D01*
X145802790Y-72898447D01*
X145733582Y-72948731D01*
X145733580Y-72948733D01*
X145733579Y-72948733D01*
X145592733Y-73089579D01*
X145592733Y-73089580D01*
X145592731Y-73089582D01*
X145542447Y-73158790D01*
X145475647Y-73250733D01*
X145385213Y-73428219D01*
X145323661Y-73617656D01*
X145323661Y-73617659D01*
X145292500Y-73814403D01*
X145292500Y-74013596D01*
X145323661Y-74210340D01*
X145323661Y-74210343D01*
X145385213Y-74399780D01*
X145385215Y-74399783D01*
X145475647Y-74577266D01*
X145592731Y-74738418D01*
X145733582Y-74879269D01*
X145894734Y-74996353D01*
X145964453Y-75031877D01*
X146046172Y-75073515D01*
X146096968Y-75121490D01*
X146113763Y-75189311D01*
X146091225Y-75255446D01*
X146046172Y-75294485D01*
X145894733Y-75371647D01*
X145825856Y-75421690D01*
X145733582Y-75488731D01*
X145733580Y-75488733D01*
X145733579Y-75488733D01*
X145592733Y-75629579D01*
X145592733Y-75629580D01*
X145592731Y-75629582D01*
X145542447Y-75698790D01*
X145475647Y-75790733D01*
X145385213Y-75968219D01*
X145323661Y-76157656D01*
X145323661Y-76157659D01*
X145292500Y-76354403D01*
X145292500Y-76553596D01*
X145323661Y-76750340D01*
X145323661Y-76750343D01*
X145385213Y-76939780D01*
X145475647Y-77117266D01*
X145592731Y-77278418D01*
X145733582Y-77419269D01*
X145894734Y-77536353D01*
X145964453Y-77571877D01*
X146046172Y-77613515D01*
X146096968Y-77661490D01*
X146113763Y-77729311D01*
X146091225Y-77795446D01*
X146046172Y-77834485D01*
X145894733Y-77911647D01*
X145802790Y-77978447D01*
X145733582Y-78028731D01*
X145733580Y-78028733D01*
X145733579Y-78028733D01*
X145592733Y-78169579D01*
X145592733Y-78169580D01*
X145592731Y-78169582D01*
X145542447Y-78238790D01*
X145475647Y-78330733D01*
X145385213Y-78508219D01*
X145323661Y-78697656D01*
X145323661Y-78697659D01*
X145292500Y-78894403D01*
X145292500Y-79093596D01*
X145323661Y-79290340D01*
X145323661Y-79290343D01*
X145385213Y-79479780D01*
X145475647Y-79657266D01*
X145592731Y-79818418D01*
X145733582Y-79959269D01*
X145894734Y-80076353D01*
X145964453Y-80111877D01*
X146046172Y-80153515D01*
X146096968Y-80201490D01*
X146113763Y-80269311D01*
X146091225Y-80335446D01*
X146046172Y-80374485D01*
X145894733Y-80451647D01*
X145802790Y-80518447D01*
X145733582Y-80568731D01*
X145733580Y-80568733D01*
X145733579Y-80568733D01*
X145592733Y-80709579D01*
X145592733Y-80709580D01*
X145592731Y-80709582D01*
X145542447Y-80778790D01*
X145475647Y-80870733D01*
X145385213Y-81048219D01*
X145323661Y-81237656D01*
X145323661Y-81237659D01*
X145292500Y-81434403D01*
X145292500Y-81633596D01*
X145323661Y-81830340D01*
X145323661Y-81830343D01*
X145385213Y-82019780D01*
X145385215Y-82019783D01*
X145475647Y-82197266D01*
X145592731Y-82358418D01*
X145733582Y-82499269D01*
X145894734Y-82616353D01*
X145964453Y-82651877D01*
X146046172Y-82693515D01*
X146096968Y-82741490D01*
X146113763Y-82809311D01*
X146091225Y-82875446D01*
X146046172Y-82914485D01*
X145894733Y-82991647D01*
X145814944Y-83049618D01*
X145733582Y-83108731D01*
X145733580Y-83108733D01*
X145733579Y-83108733D01*
X145592733Y-83249579D01*
X145592733Y-83249580D01*
X145592731Y-83249582D01*
X145542447Y-83318790D01*
X145475647Y-83410733D01*
X145385213Y-83588219D01*
X145323661Y-83777656D01*
X145323661Y-83777659D01*
X145292500Y-83974403D01*
X145292500Y-84173596D01*
X145323661Y-84370340D01*
X145323661Y-84370343D01*
X145385213Y-84559780D01*
X145385215Y-84559783D01*
X145475647Y-84737266D01*
X145592731Y-84898418D01*
X145733582Y-85039269D01*
X145894734Y-85156353D01*
X145964453Y-85191877D01*
X146046172Y-85233515D01*
X146096968Y-85281490D01*
X146113763Y-85349311D01*
X146091225Y-85415446D01*
X146046172Y-85454485D01*
X145894733Y-85531647D01*
X145802790Y-85598447D01*
X145733582Y-85648731D01*
X145733580Y-85648733D01*
X145733579Y-85648733D01*
X145592733Y-85789579D01*
X145592733Y-85789580D01*
X145592731Y-85789582D01*
X145542447Y-85858790D01*
X145475647Y-85950733D01*
X145385213Y-86128219D01*
X145323661Y-86317656D01*
X145323661Y-86317659D01*
X145292500Y-86514403D01*
X145292500Y-86713596D01*
X145323661Y-86910340D01*
X145323661Y-86910343D01*
X145385213Y-87099780D01*
X145465006Y-87256381D01*
X145475647Y-87277266D01*
X145592731Y-87438418D01*
X145733582Y-87579269D01*
X145894734Y-87696353D01*
X145905356Y-87701765D01*
X146046172Y-87773515D01*
X146096968Y-87821490D01*
X146113763Y-87889311D01*
X146091225Y-87955446D01*
X146046172Y-87994485D01*
X145894733Y-88071647D01*
X145802790Y-88138447D01*
X145733582Y-88188731D01*
X145733580Y-88188733D01*
X145733579Y-88188733D01*
X145592733Y-88329579D01*
X145592733Y-88329580D01*
X145592731Y-88329582D01*
X145542447Y-88398790D01*
X145475647Y-88490733D01*
X145385213Y-88668219D01*
X145323661Y-88857656D01*
X145323661Y-88857659D01*
X145292500Y-89054403D01*
X145292500Y-89253596D01*
X145323661Y-89450340D01*
X145323661Y-89450343D01*
X145385213Y-89639780D01*
X145385215Y-89639783D01*
X145475647Y-89817266D01*
X145592731Y-89978418D01*
X145733582Y-90119269D01*
X145894734Y-90236353D01*
X145964453Y-90271877D01*
X146046172Y-90313515D01*
X146096968Y-90361490D01*
X146113763Y-90429311D01*
X146091225Y-90495446D01*
X146046172Y-90534485D01*
X145894733Y-90611647D01*
X145802790Y-90678447D01*
X145733582Y-90728731D01*
X145733580Y-90728733D01*
X145733579Y-90728733D01*
X145592733Y-90869579D01*
X145592733Y-90869580D01*
X145592731Y-90869582D01*
X145542447Y-90938790D01*
X145475647Y-91030733D01*
X145385213Y-91208219D01*
X145323661Y-91397656D01*
X145323661Y-91397659D01*
X145292500Y-91594403D01*
X145292500Y-91793596D01*
X145323661Y-91990340D01*
X145323661Y-91990343D01*
X145385213Y-92179780D01*
X145398573Y-92206000D01*
X145475647Y-92357266D01*
X145592731Y-92518418D01*
X145733582Y-92659269D01*
X145894734Y-92776353D01*
X145964453Y-92811877D01*
X146046172Y-92853515D01*
X146096968Y-92901490D01*
X146113763Y-92969311D01*
X146091225Y-93035446D01*
X146046172Y-93074485D01*
X145894733Y-93151647D01*
X145802790Y-93218447D01*
X145733582Y-93268731D01*
X145733580Y-93268733D01*
X145733579Y-93268733D01*
X145592733Y-93409579D01*
X145592733Y-93409580D01*
X145592731Y-93409582D01*
X145562914Y-93450622D01*
X145475647Y-93570733D01*
X145385213Y-93748219D01*
X145323661Y-93937656D01*
X145323661Y-93937659D01*
X145292500Y-94134403D01*
X145292500Y-94333596D01*
X145323661Y-94530340D01*
X145323661Y-94530343D01*
X145385213Y-94719780D01*
X145391065Y-94731265D01*
X145475647Y-94897266D01*
X145592731Y-95058418D01*
X145733582Y-95199269D01*
X145894734Y-95316353D01*
X145964453Y-95351877D01*
X146046172Y-95393515D01*
X146096968Y-95441490D01*
X146113763Y-95509311D01*
X146091225Y-95575446D01*
X146046172Y-95614485D01*
X145894733Y-95691647D01*
X145802790Y-95758447D01*
X145733582Y-95808731D01*
X145733580Y-95808733D01*
X145733579Y-95808733D01*
X145592733Y-95949579D01*
X145592733Y-95949580D01*
X145592731Y-95949582D01*
X145573214Y-95976445D01*
X145475647Y-96110733D01*
X145385213Y-96288219D01*
X145323661Y-96477656D01*
X145323661Y-96477659D01*
X145292500Y-96674403D01*
X145292500Y-96873596D01*
X145323661Y-97070340D01*
X145323661Y-97070343D01*
X145385213Y-97259780D01*
X145455775Y-97398265D01*
X145475647Y-97437266D01*
X145592731Y-97598418D01*
X145733582Y-97739269D01*
X145894734Y-97856353D01*
X145940186Y-97879512D01*
X146046172Y-97933515D01*
X146096968Y-97981490D01*
X146113763Y-98049311D01*
X146091225Y-98115446D01*
X146046172Y-98154485D01*
X145894733Y-98231647D01*
X145842558Y-98269555D01*
X145733582Y-98348731D01*
X145733580Y-98348733D01*
X145733579Y-98348733D01*
X145592733Y-98489579D01*
X145592733Y-98489580D01*
X145592731Y-98489582D01*
X145542447Y-98558790D01*
X145475647Y-98650733D01*
X145385213Y-98828219D01*
X145323661Y-99017656D01*
X145323661Y-99017659D01*
X145292500Y-99214403D01*
X145292500Y-99413596D01*
X145323661Y-99610340D01*
X145323661Y-99610343D01*
X145385213Y-99799780D01*
X145385215Y-99799783D01*
X145475647Y-99977266D01*
X145592731Y-100138418D01*
X145733582Y-100279269D01*
X145894734Y-100396353D01*
X146072217Y-100486785D01*
X146072219Y-100486786D01*
X146261657Y-100548338D01*
X146261658Y-100548338D01*
X146261661Y-100548339D01*
X146458403Y-100579500D01*
X146458404Y-100579500D01*
X146657596Y-100579500D01*
X146657597Y-100579500D01*
X146854339Y-100548339D01*
X146854342Y-100548338D01*
X146854343Y-100548338D01*
X147043780Y-100486786D01*
X147043780Y-100486785D01*
X147043783Y-100486785D01*
X147221266Y-100396353D01*
X147382418Y-100279269D01*
X147523269Y-100138418D01*
X147640353Y-99977266D01*
X147730785Y-99799783D01*
X147792339Y-99610339D01*
X147823500Y-99413597D01*
X147823500Y-99214403D01*
X147792339Y-99017661D01*
X147792338Y-99017657D01*
X147792338Y-99017656D01*
X147730786Y-98828219D01*
X147640352Y-98650733D01*
X147523269Y-98489582D01*
X147382418Y-98348731D01*
X147221266Y-98231647D01*
X147069827Y-98154485D01*
X147019031Y-98106510D01*
X147002236Y-98038689D01*
X147024773Y-97972554D01*
X147069827Y-97933515D01*
X147079116Y-97928781D01*
X147221266Y-97856353D01*
X147382418Y-97739269D01*
X147523269Y-97598418D01*
X147640353Y-97437266D01*
X147730785Y-97259783D01*
X147792339Y-97070339D01*
X147823500Y-96873597D01*
X147823500Y-96674403D01*
X147792339Y-96477661D01*
X147792338Y-96477657D01*
X147792338Y-96477656D01*
X147730786Y-96288219D01*
X147699276Y-96226378D01*
X147640353Y-96110734D01*
X147523269Y-95949582D01*
X147382418Y-95808731D01*
X147221266Y-95691647D01*
X147069827Y-95614485D01*
X147019031Y-95566510D01*
X147002236Y-95498689D01*
X147024773Y-95432554D01*
X147069827Y-95393515D01*
X147116792Y-95369585D01*
X147221266Y-95316353D01*
X147382418Y-95199269D01*
X147523269Y-95058418D01*
X147640353Y-94897266D01*
X147730785Y-94719783D01*
X147792339Y-94530339D01*
X147823500Y-94333597D01*
X147823500Y-94134403D01*
X147792339Y-93937661D01*
X147792338Y-93937657D01*
X147792338Y-93937656D01*
X147730786Y-93748219D01*
X147718439Y-93723987D01*
X147640353Y-93570734D01*
X147523269Y-93409582D01*
X147382418Y-93268731D01*
X147221266Y-93151647D01*
X147069827Y-93074485D01*
X147019031Y-93026510D01*
X147002236Y-92958689D01*
X147024773Y-92892554D01*
X147069827Y-92853515D01*
X147079116Y-92848781D01*
X147221266Y-92776353D01*
X147382418Y-92659269D01*
X147523269Y-92518418D01*
X147640353Y-92357266D01*
X147730785Y-92179783D01*
X147745037Y-92135920D01*
X147792338Y-91990343D01*
X147792338Y-91990342D01*
X147792339Y-91990339D01*
X147823500Y-91793597D01*
X147823500Y-91594403D01*
X147792339Y-91397661D01*
X147792338Y-91397657D01*
X147792338Y-91397656D01*
X147730786Y-91208219D01*
X147640352Y-91030733D01*
X147523269Y-90869582D01*
X147382418Y-90728731D01*
X147221266Y-90611647D01*
X147069827Y-90534485D01*
X147019031Y-90486510D01*
X147002236Y-90418689D01*
X147024773Y-90352554D01*
X147069827Y-90313515D01*
X147079116Y-90308781D01*
X147221266Y-90236353D01*
X147382418Y-90119269D01*
X147523269Y-89978418D01*
X147640353Y-89817266D01*
X147730785Y-89639783D01*
X147792339Y-89450339D01*
X147823500Y-89253597D01*
X147823500Y-89054403D01*
X147792339Y-88857661D01*
X147792338Y-88857657D01*
X147792338Y-88857656D01*
X147730786Y-88668219D01*
X147730785Y-88668217D01*
X147640353Y-88490734D01*
X147523269Y-88329582D01*
X147382418Y-88188731D01*
X147221266Y-88071647D01*
X147069827Y-87994485D01*
X147019031Y-87946510D01*
X147002236Y-87878689D01*
X147024773Y-87812554D01*
X147069827Y-87773515D01*
X147079116Y-87768781D01*
X147221266Y-87696353D01*
X147382418Y-87579269D01*
X147523269Y-87438418D01*
X147640353Y-87277266D01*
X147730785Y-87099783D01*
X147747085Y-87049618D01*
X147792338Y-86910343D01*
X147792338Y-86910342D01*
X147792339Y-86910339D01*
X147823500Y-86713597D01*
X147823500Y-86514403D01*
X147792339Y-86317661D01*
X147792338Y-86317657D01*
X147792338Y-86317656D01*
X147730786Y-86128219D01*
X147640352Y-85950733D01*
X147523269Y-85789582D01*
X147382418Y-85648731D01*
X147221266Y-85531647D01*
X147069827Y-85454485D01*
X147019031Y-85406510D01*
X147002236Y-85338689D01*
X147024773Y-85272554D01*
X147069827Y-85233515D01*
X147079116Y-85228781D01*
X147221266Y-85156353D01*
X147382418Y-85039269D01*
X147523269Y-84898418D01*
X147640353Y-84737266D01*
X147730785Y-84559783D01*
X147792339Y-84370339D01*
X147823500Y-84173597D01*
X147823500Y-83974403D01*
X147792339Y-83777661D01*
X147792338Y-83777657D01*
X147792338Y-83777656D01*
X147730786Y-83588219D01*
X147640352Y-83410733D01*
X147623264Y-83387213D01*
X147523269Y-83249582D01*
X147382418Y-83108731D01*
X147221266Y-82991647D01*
X147069827Y-82914485D01*
X147019031Y-82866510D01*
X147002236Y-82798689D01*
X147024773Y-82732554D01*
X147069827Y-82693515D01*
X147079116Y-82688781D01*
X147221266Y-82616353D01*
X147382418Y-82499269D01*
X147523269Y-82358418D01*
X147640353Y-82197266D01*
X147730785Y-82019783D01*
X147776939Y-81877736D01*
X147792338Y-81830343D01*
X147792338Y-81830342D01*
X147792339Y-81830339D01*
X147823500Y-81633597D01*
X147823500Y-81434403D01*
X147792339Y-81237661D01*
X147792338Y-81237657D01*
X147792338Y-81237656D01*
X147730786Y-81048219D01*
X147664838Y-80918789D01*
X147640353Y-80870734D01*
X147523269Y-80709582D01*
X147382418Y-80568731D01*
X147221266Y-80451647D01*
X147069827Y-80374485D01*
X147019031Y-80326510D01*
X147002236Y-80258689D01*
X147024773Y-80192554D01*
X147069827Y-80153515D01*
X147079116Y-80148781D01*
X147221266Y-80076353D01*
X147382418Y-79959269D01*
X147523269Y-79818418D01*
X147640353Y-79657266D01*
X147730785Y-79479783D01*
X147760863Y-79387213D01*
X147792338Y-79290343D01*
X147792338Y-79290342D01*
X147792339Y-79290339D01*
X147823500Y-79093597D01*
X147823500Y-78894403D01*
X147792339Y-78697661D01*
X147792338Y-78697657D01*
X147792338Y-78697656D01*
X147730786Y-78508219D01*
X147640352Y-78330733D01*
X147523269Y-78169582D01*
X147382418Y-78028731D01*
X147221266Y-77911647D01*
X147069827Y-77834485D01*
X147019031Y-77786510D01*
X147002236Y-77718689D01*
X147024773Y-77652554D01*
X147069827Y-77613515D01*
X147079116Y-77608781D01*
X147221266Y-77536353D01*
X147382418Y-77419269D01*
X147523269Y-77278418D01*
X147640353Y-77117266D01*
X147730785Y-76939783D01*
X147792339Y-76750339D01*
X147823500Y-76553597D01*
X147823500Y-76354403D01*
X147792339Y-76157661D01*
X147792338Y-76157657D01*
X147792338Y-76157656D01*
X147730786Y-75968219D01*
X147684742Y-75877852D01*
X147640353Y-75790734D01*
X147523269Y-75629582D01*
X147382418Y-75488731D01*
X147221266Y-75371647D01*
X147069827Y-75294485D01*
X147019031Y-75246510D01*
X147002236Y-75178689D01*
X147024773Y-75112554D01*
X147069827Y-75073515D01*
X147079116Y-75068781D01*
X147221266Y-74996353D01*
X147382418Y-74879269D01*
X147523269Y-74738418D01*
X147640353Y-74577266D01*
X147730785Y-74399783D01*
X147792339Y-74210339D01*
X147823500Y-74013597D01*
X147823500Y-73814403D01*
X147792339Y-73617661D01*
X147792338Y-73617657D01*
X147792338Y-73617656D01*
X147730786Y-73428219D01*
X147640352Y-73250733D01*
X147629409Y-73235671D01*
X147523269Y-73089582D01*
X147382418Y-72948731D01*
X147221266Y-72831647D01*
X147069827Y-72754485D01*
X147019031Y-72706510D01*
X147002236Y-72638689D01*
X147024773Y-72572554D01*
X147069827Y-72533515D01*
X147079116Y-72528781D01*
X147221266Y-72456353D01*
X147382418Y-72339269D01*
X147523269Y-72198418D01*
X147640353Y-72037266D01*
X147730785Y-71859783D01*
X147792339Y-71670339D01*
X147823500Y-71473597D01*
X147823500Y-71274403D01*
X147792339Y-71077661D01*
X147792338Y-71077657D01*
X147792338Y-71077656D01*
X147730786Y-70888219D01*
X147640352Y-70710733D01*
X147523269Y-70549582D01*
X147382418Y-70408731D01*
X147221266Y-70291647D01*
X147069827Y-70214485D01*
X147019031Y-70166510D01*
X147002236Y-70098689D01*
X147024773Y-70032554D01*
X147069827Y-69993515D01*
X147079116Y-69988781D01*
X147221266Y-69916353D01*
X147382418Y-69799269D01*
X147523269Y-69658418D01*
X147640353Y-69497266D01*
X147730785Y-69319783D01*
X147792339Y-69130339D01*
X147823500Y-68933597D01*
X147823500Y-68734403D01*
X147792339Y-68537661D01*
X147792338Y-68537657D01*
X147792338Y-68537656D01*
X147730786Y-68348219D01*
X147640352Y-68170733D01*
X147523269Y-68009582D01*
X147382418Y-67868731D01*
X147221266Y-67751647D01*
X147069827Y-67674485D01*
X147019031Y-67626510D01*
X147002236Y-67558689D01*
X147024773Y-67492554D01*
X147069827Y-67453515D01*
X147079116Y-67448781D01*
X147221266Y-67376353D01*
X147382418Y-67259269D01*
X147523269Y-67118418D01*
X147640353Y-66957266D01*
X147730785Y-66779783D01*
X147792339Y-66590339D01*
X147823500Y-66393597D01*
X147823500Y-66194403D01*
X147792339Y-65997661D01*
X147792338Y-65997657D01*
X147792338Y-65997656D01*
X147730786Y-65808219D01*
X147640352Y-65630733D01*
X147523269Y-65469582D01*
X147382418Y-65328731D01*
X147221266Y-65211647D01*
X147069827Y-65134485D01*
X147019031Y-65086510D01*
X147002236Y-65018689D01*
X147024773Y-64952554D01*
X147069827Y-64913515D01*
X147079116Y-64908781D01*
X147221266Y-64836353D01*
X147382418Y-64719269D01*
X147523269Y-64578418D01*
X147640353Y-64417266D01*
X147730785Y-64239783D01*
X147792339Y-64050339D01*
X147823500Y-63853597D01*
X147823500Y-63654403D01*
X147792339Y-63457661D01*
X147792338Y-63457657D01*
X147792338Y-63457656D01*
X147730786Y-63268219D01*
X147640352Y-63090733D01*
X147523269Y-62929582D01*
X147382418Y-62788731D01*
X147221266Y-62671647D01*
X147069827Y-62594485D01*
X147019031Y-62546510D01*
X147002236Y-62478689D01*
X147024773Y-62412554D01*
X147069827Y-62373515D01*
X147079116Y-62368781D01*
X147221266Y-62296353D01*
X147382418Y-62179269D01*
X147523269Y-62038418D01*
X147640353Y-61877266D01*
X147730785Y-61699783D01*
X147738219Y-61676903D01*
X147792338Y-61510343D01*
X147792338Y-61510342D01*
X147792339Y-61510339D01*
X147823500Y-61313597D01*
X147823500Y-61114403D01*
X147792339Y-60917661D01*
X147792338Y-60917657D01*
X147792338Y-60917656D01*
X147730786Y-60728219D01*
X147640352Y-60550733D01*
X147523269Y-60389582D01*
X147382418Y-60248731D01*
X147221266Y-60131647D01*
X147069827Y-60054485D01*
X147019031Y-60006510D01*
X147002236Y-59938689D01*
X147024773Y-59872554D01*
X147069827Y-59833515D01*
X147079116Y-59828781D01*
X147221266Y-59756353D01*
X147382418Y-59639269D01*
X147523269Y-59498418D01*
X147640353Y-59337266D01*
X147730785Y-59159783D01*
X147744524Y-59117500D01*
X147792338Y-58970343D01*
X147792338Y-58970342D01*
X147792339Y-58970339D01*
X147823500Y-58773597D01*
X147823500Y-58574403D01*
X147792339Y-58377661D01*
X147792338Y-58377657D01*
X147792338Y-58377656D01*
X147730786Y-58188219D01*
X147640352Y-58010733D01*
X147612879Y-57972920D01*
X147523269Y-57849582D01*
X147382418Y-57708731D01*
X147221266Y-57591647D01*
X147069827Y-57514485D01*
X147019031Y-57466510D01*
X147002236Y-57398689D01*
X147024773Y-57332554D01*
X147069827Y-57293515D01*
X147079116Y-57288781D01*
X147221266Y-57216353D01*
X147382418Y-57099269D01*
X147523269Y-56958418D01*
X147640353Y-56797266D01*
X147730785Y-56619783D01*
X147792339Y-56430339D01*
X147823500Y-56233597D01*
X147823500Y-56034403D01*
X147792339Y-55837661D01*
X147792338Y-55837657D01*
X147792338Y-55837656D01*
X147730786Y-55648219D01*
X147640352Y-55470733D01*
X147523269Y-55309582D01*
X147382418Y-55168731D01*
X147221266Y-55051647D01*
X147069827Y-54974485D01*
X147019031Y-54926510D01*
X147002236Y-54858689D01*
X147024773Y-54792554D01*
X147069827Y-54753515D01*
X147079116Y-54748781D01*
X147221266Y-54676353D01*
X147382418Y-54559269D01*
X147523269Y-54418418D01*
X147640353Y-54257266D01*
X147730785Y-54079783D01*
X147792339Y-53890339D01*
X147823500Y-53693597D01*
X147823500Y-53494403D01*
X147792339Y-53297661D01*
X147792338Y-53297657D01*
X147792338Y-53297656D01*
X147730786Y-53108219D01*
X147640352Y-52930733D01*
X147523269Y-52769582D01*
X147382418Y-52628731D01*
X147221266Y-52511647D01*
X147069827Y-52434485D01*
X147019031Y-52386510D01*
X147002236Y-52318689D01*
X147024773Y-52252554D01*
X147069827Y-52213515D01*
X147079116Y-52208781D01*
X147221266Y-52136353D01*
X147382418Y-52019269D01*
X147523269Y-51878418D01*
X147640353Y-51717266D01*
X147730785Y-51539783D01*
X147792339Y-51350339D01*
X147823500Y-51153597D01*
X147823500Y-50954403D01*
X147792339Y-50757661D01*
X147792338Y-50757657D01*
X147792338Y-50757656D01*
X147730786Y-50568219D01*
X147640352Y-50390733D01*
X147523269Y-50229582D01*
X147382418Y-50088731D01*
X147221266Y-49971647D01*
X147069827Y-49894485D01*
X147019031Y-49846510D01*
X147002236Y-49778689D01*
X147024773Y-49712554D01*
X147069827Y-49673515D01*
X147079116Y-49668781D01*
X147221266Y-49596353D01*
X147382418Y-49479269D01*
X147523269Y-49338418D01*
X147640353Y-49177266D01*
X147730785Y-48999783D01*
X147792339Y-48810339D01*
X147823500Y-48613597D01*
X147823500Y-48414403D01*
X147792339Y-48217661D01*
X147792338Y-48217657D01*
X147792338Y-48217656D01*
X147730786Y-48028219D01*
X147640352Y-47850733D01*
X147523269Y-47689582D01*
X147382418Y-47548731D01*
X147221266Y-47431647D01*
X147069827Y-47354485D01*
X147019031Y-47306510D01*
X147002236Y-47238689D01*
X147024773Y-47172554D01*
X147069827Y-47133515D01*
X147079116Y-47128781D01*
X147221266Y-47056353D01*
X147382418Y-46939269D01*
X147523269Y-46798418D01*
X147640353Y-46637266D01*
X147730785Y-46459783D01*
X147730786Y-46459780D01*
X147792338Y-46270343D01*
X147792338Y-46270342D01*
X147792339Y-46270339D01*
X147823500Y-46073597D01*
X147823500Y-45874403D01*
X168152500Y-45874403D01*
X168152500Y-46073596D01*
X168183661Y-46270340D01*
X168183661Y-46270343D01*
X168245213Y-46459780D01*
X168335647Y-46637266D01*
X168452731Y-46798418D01*
X168593582Y-46939269D01*
X168754734Y-47056353D01*
X168824453Y-47091877D01*
X168906172Y-47133515D01*
X168956968Y-47181490D01*
X168973763Y-47249311D01*
X168951225Y-47315446D01*
X168906172Y-47354485D01*
X168754733Y-47431647D01*
X168662790Y-47498447D01*
X168593582Y-47548731D01*
X168593580Y-47548733D01*
X168593579Y-47548733D01*
X168452733Y-47689579D01*
X168452733Y-47689580D01*
X168452731Y-47689582D01*
X168402447Y-47758790D01*
X168335647Y-47850733D01*
X168245213Y-48028219D01*
X168183661Y-48217656D01*
X168183661Y-48217659D01*
X168152500Y-48414403D01*
X168152500Y-48613596D01*
X168183661Y-48810340D01*
X168183661Y-48810343D01*
X168245213Y-48999780D01*
X168245215Y-48999783D01*
X168335647Y-49177266D01*
X168452731Y-49338418D01*
X168593582Y-49479269D01*
X168754734Y-49596353D01*
X168824453Y-49631877D01*
X168906172Y-49673515D01*
X168956968Y-49721490D01*
X168973763Y-49789311D01*
X168951225Y-49855446D01*
X168906172Y-49894485D01*
X168754733Y-49971647D01*
X168662790Y-50038447D01*
X168593582Y-50088731D01*
X168593580Y-50088733D01*
X168593579Y-50088733D01*
X168452733Y-50229579D01*
X168452733Y-50229580D01*
X168452731Y-50229582D01*
X168402447Y-50298790D01*
X168335647Y-50390733D01*
X168245213Y-50568219D01*
X168183661Y-50757656D01*
X168183661Y-50757659D01*
X168152500Y-50954403D01*
X168152500Y-51153596D01*
X168183661Y-51350340D01*
X168183661Y-51350343D01*
X168245213Y-51539780D01*
X168245215Y-51539783D01*
X168335647Y-51717266D01*
X168452731Y-51878418D01*
X168593582Y-52019269D01*
X168754734Y-52136353D01*
X168824453Y-52171877D01*
X168906172Y-52213515D01*
X168956968Y-52261490D01*
X168973763Y-52329311D01*
X168951225Y-52395446D01*
X168906172Y-52434485D01*
X168754733Y-52511647D01*
X168662790Y-52578447D01*
X168593582Y-52628731D01*
X168593580Y-52628733D01*
X168593579Y-52628733D01*
X168452733Y-52769579D01*
X168452733Y-52769580D01*
X168452731Y-52769582D01*
X168402447Y-52838790D01*
X168335647Y-52930733D01*
X168245213Y-53108219D01*
X168183661Y-53297656D01*
X168183661Y-53297659D01*
X168152500Y-53494403D01*
X168152500Y-53693596D01*
X168183661Y-53890340D01*
X168183661Y-53890343D01*
X168245213Y-54079780D01*
X168245215Y-54079783D01*
X168335647Y-54257266D01*
X168452731Y-54418418D01*
X168593582Y-54559269D01*
X168754734Y-54676353D01*
X168824453Y-54711877D01*
X168906172Y-54753515D01*
X168956968Y-54801490D01*
X168973763Y-54869311D01*
X168951225Y-54935446D01*
X168906172Y-54974485D01*
X168754733Y-55051647D01*
X168662790Y-55118447D01*
X168593582Y-55168731D01*
X168593580Y-55168733D01*
X168593579Y-55168733D01*
X168452733Y-55309579D01*
X168452733Y-55309580D01*
X168452731Y-55309582D01*
X168402447Y-55378790D01*
X168335647Y-55470733D01*
X168245213Y-55648219D01*
X168183661Y-55837656D01*
X168183661Y-55837659D01*
X168152500Y-56034403D01*
X168152500Y-56233596D01*
X168183661Y-56430340D01*
X168183661Y-56430343D01*
X168245213Y-56619780D01*
X168245215Y-56619783D01*
X168335647Y-56797266D01*
X168452731Y-56958418D01*
X168593582Y-57099269D01*
X168754734Y-57216353D01*
X168824453Y-57251877D01*
X168906172Y-57293515D01*
X168956968Y-57341490D01*
X168973763Y-57409311D01*
X168951225Y-57475446D01*
X168906172Y-57514485D01*
X168754733Y-57591647D01*
X168662790Y-57658447D01*
X168593582Y-57708731D01*
X168593580Y-57708733D01*
X168593579Y-57708733D01*
X168452733Y-57849579D01*
X168452733Y-57849580D01*
X168452731Y-57849582D01*
X168421186Y-57893000D01*
X168335647Y-58010733D01*
X168245213Y-58188219D01*
X168183661Y-58377656D01*
X168183661Y-58377659D01*
X168152500Y-58574403D01*
X168152500Y-58773596D01*
X168183661Y-58970340D01*
X168183661Y-58970343D01*
X168245213Y-59159780D01*
X168270849Y-59210093D01*
X168335647Y-59337266D01*
X168452731Y-59498418D01*
X168593582Y-59639269D01*
X168754734Y-59756353D01*
X168824453Y-59791877D01*
X168906172Y-59833515D01*
X168956968Y-59881490D01*
X168973763Y-59949311D01*
X168951225Y-60015446D01*
X168906172Y-60054485D01*
X168754733Y-60131647D01*
X168662790Y-60198447D01*
X168593582Y-60248731D01*
X168593580Y-60248733D01*
X168593579Y-60248733D01*
X168452733Y-60389579D01*
X168452733Y-60389580D01*
X168452731Y-60389582D01*
X168402447Y-60458790D01*
X168335647Y-60550733D01*
X168245213Y-60728219D01*
X168183661Y-60917656D01*
X168183661Y-60917659D01*
X168152500Y-61114403D01*
X168152500Y-61313596D01*
X168183661Y-61510340D01*
X168183661Y-61510343D01*
X168245213Y-61699780D01*
X168245215Y-61699783D01*
X168335647Y-61877266D01*
X168452731Y-62038418D01*
X168593582Y-62179269D01*
X168754734Y-62296353D01*
X168824453Y-62331877D01*
X168906172Y-62373515D01*
X168956968Y-62421490D01*
X168973763Y-62489311D01*
X168951225Y-62555446D01*
X168906172Y-62594485D01*
X168754733Y-62671647D01*
X168662790Y-62738447D01*
X168593582Y-62788731D01*
X168593580Y-62788733D01*
X168593579Y-62788733D01*
X168452733Y-62929579D01*
X168452733Y-62929580D01*
X168452731Y-62929582D01*
X168402447Y-62998790D01*
X168335647Y-63090733D01*
X168245213Y-63268219D01*
X168183661Y-63457656D01*
X168183661Y-63457659D01*
X168152500Y-63654403D01*
X168152500Y-63853596D01*
X168183661Y-64050340D01*
X168183661Y-64050343D01*
X168245213Y-64239780D01*
X168245215Y-64239783D01*
X168335647Y-64417266D01*
X168452731Y-64578418D01*
X168593582Y-64719269D01*
X168754734Y-64836353D01*
X168824453Y-64871877D01*
X168906172Y-64913515D01*
X168956968Y-64961490D01*
X168973763Y-65029311D01*
X168951225Y-65095446D01*
X168906172Y-65134485D01*
X168754733Y-65211647D01*
X168662790Y-65278447D01*
X168593582Y-65328731D01*
X168593580Y-65328733D01*
X168593579Y-65328733D01*
X168452733Y-65469579D01*
X168452733Y-65469580D01*
X168452731Y-65469582D01*
X168402447Y-65538790D01*
X168335647Y-65630733D01*
X168245213Y-65808219D01*
X168183661Y-65997656D01*
X168183661Y-65997659D01*
X168152500Y-66194403D01*
X168152500Y-66393596D01*
X168183661Y-66590340D01*
X168183661Y-66590343D01*
X168245213Y-66779780D01*
X168245215Y-66779783D01*
X168335647Y-66957266D01*
X168452731Y-67118418D01*
X168593582Y-67259269D01*
X168754734Y-67376353D01*
X168824453Y-67411877D01*
X168906172Y-67453515D01*
X168956968Y-67501490D01*
X168973763Y-67569311D01*
X168951225Y-67635446D01*
X168906172Y-67674485D01*
X168754733Y-67751647D01*
X168662790Y-67818447D01*
X168593582Y-67868731D01*
X168593580Y-67868733D01*
X168593579Y-67868733D01*
X168452733Y-68009579D01*
X168452733Y-68009580D01*
X168452731Y-68009582D01*
X168402447Y-68078790D01*
X168335647Y-68170733D01*
X168245213Y-68348219D01*
X168183661Y-68537656D01*
X168183661Y-68537659D01*
X168152500Y-68734403D01*
X168152500Y-68933596D01*
X168183661Y-69130340D01*
X168183661Y-69130343D01*
X168245213Y-69319780D01*
X168245215Y-69319783D01*
X168335647Y-69497266D01*
X168452731Y-69658418D01*
X168593582Y-69799269D01*
X168754734Y-69916353D01*
X168824453Y-69951877D01*
X168906172Y-69993515D01*
X168956968Y-70041490D01*
X168973763Y-70109311D01*
X168951225Y-70175446D01*
X168906172Y-70214485D01*
X168754733Y-70291647D01*
X168662790Y-70358447D01*
X168593582Y-70408731D01*
X168593580Y-70408733D01*
X168593579Y-70408733D01*
X168452733Y-70549579D01*
X168452733Y-70549580D01*
X168452731Y-70549582D01*
X168402447Y-70618790D01*
X168335647Y-70710733D01*
X168245213Y-70888219D01*
X168183661Y-71077656D01*
X168183661Y-71077659D01*
X168152500Y-71274403D01*
X168152500Y-71473596D01*
X168183661Y-71670340D01*
X168183661Y-71670343D01*
X168245213Y-71859780D01*
X168245215Y-71859783D01*
X168335647Y-72037266D01*
X168452731Y-72198418D01*
X168593582Y-72339269D01*
X168754734Y-72456353D01*
X168824453Y-72491877D01*
X168906172Y-72533515D01*
X168956968Y-72581490D01*
X168973763Y-72649311D01*
X168951225Y-72715446D01*
X168906172Y-72754485D01*
X168754733Y-72831647D01*
X168662790Y-72898447D01*
X168593582Y-72948731D01*
X168593580Y-72948733D01*
X168593579Y-72948733D01*
X168452733Y-73089579D01*
X168452733Y-73089580D01*
X168452731Y-73089582D01*
X168402447Y-73158790D01*
X168335647Y-73250733D01*
X168245213Y-73428219D01*
X168183661Y-73617656D01*
X168183661Y-73617659D01*
X168152500Y-73814403D01*
X168152500Y-74013596D01*
X168183661Y-74210340D01*
X168183661Y-74210343D01*
X168245213Y-74399780D01*
X168245215Y-74399783D01*
X168335647Y-74577266D01*
X168452731Y-74738418D01*
X168593582Y-74879269D01*
X168754734Y-74996353D01*
X168824453Y-75031877D01*
X168906172Y-75073515D01*
X168956968Y-75121490D01*
X168973763Y-75189311D01*
X168951225Y-75255446D01*
X168906172Y-75294485D01*
X168754733Y-75371647D01*
X168685856Y-75421690D01*
X168593582Y-75488731D01*
X168593580Y-75488733D01*
X168593579Y-75488733D01*
X168452733Y-75629579D01*
X168452733Y-75629580D01*
X168452731Y-75629582D01*
X168402447Y-75698790D01*
X168335647Y-75790733D01*
X168245213Y-75968219D01*
X168183661Y-76157656D01*
X168183661Y-76157659D01*
X168152500Y-76354403D01*
X168152500Y-76553596D01*
X168183661Y-76750340D01*
X168183661Y-76750343D01*
X168245213Y-76939780D01*
X168335647Y-77117266D01*
X168452731Y-77278418D01*
X168593582Y-77419269D01*
X168754734Y-77536353D01*
X168824453Y-77571877D01*
X168906172Y-77613515D01*
X168956968Y-77661490D01*
X168973763Y-77729311D01*
X168951225Y-77795446D01*
X168906172Y-77834485D01*
X168754733Y-77911647D01*
X168662790Y-77978447D01*
X168593582Y-78028731D01*
X168593580Y-78028733D01*
X168593579Y-78028733D01*
X168452733Y-78169579D01*
X168452733Y-78169580D01*
X168452731Y-78169582D01*
X168402447Y-78238790D01*
X168335647Y-78330733D01*
X168245213Y-78508219D01*
X168183661Y-78697656D01*
X168183661Y-78697659D01*
X168152500Y-78894403D01*
X168152500Y-79093596D01*
X168183661Y-79290340D01*
X168183661Y-79290343D01*
X168245213Y-79479780D01*
X168335647Y-79657266D01*
X168452731Y-79818418D01*
X168593582Y-79959269D01*
X168754734Y-80076353D01*
X168824453Y-80111877D01*
X168906172Y-80153515D01*
X168956968Y-80201490D01*
X168973763Y-80269311D01*
X168951225Y-80335446D01*
X168906172Y-80374485D01*
X168754733Y-80451647D01*
X168662790Y-80518447D01*
X168593582Y-80568731D01*
X168593580Y-80568733D01*
X168593579Y-80568733D01*
X168452733Y-80709579D01*
X168452733Y-80709580D01*
X168452731Y-80709582D01*
X168402447Y-80778790D01*
X168335647Y-80870733D01*
X168245213Y-81048219D01*
X168183661Y-81237656D01*
X168183661Y-81237659D01*
X168152500Y-81434403D01*
X168152500Y-81633596D01*
X168183661Y-81830340D01*
X168183661Y-81830343D01*
X168245213Y-82019780D01*
X168245215Y-82019783D01*
X168335647Y-82197266D01*
X168452731Y-82358418D01*
X168593582Y-82499269D01*
X168754734Y-82616353D01*
X168824453Y-82651877D01*
X168906172Y-82693515D01*
X168956968Y-82741490D01*
X168973763Y-82809311D01*
X168951225Y-82875446D01*
X168906172Y-82914485D01*
X168754733Y-82991647D01*
X168674944Y-83049618D01*
X168593582Y-83108731D01*
X168593580Y-83108733D01*
X168593579Y-83108733D01*
X168452733Y-83249579D01*
X168452733Y-83249580D01*
X168452731Y-83249582D01*
X168402447Y-83318790D01*
X168335647Y-83410733D01*
X168245213Y-83588219D01*
X168183661Y-83777656D01*
X168183661Y-83777659D01*
X168152500Y-83974403D01*
X168152500Y-84173596D01*
X168183661Y-84370340D01*
X168183661Y-84370343D01*
X168245213Y-84559780D01*
X168245215Y-84559783D01*
X168335647Y-84737266D01*
X168452731Y-84898418D01*
X168593582Y-85039269D01*
X168754734Y-85156353D01*
X168824453Y-85191877D01*
X168906172Y-85233515D01*
X168956968Y-85281490D01*
X168973763Y-85349311D01*
X168951225Y-85415446D01*
X168906172Y-85454485D01*
X168754733Y-85531647D01*
X168662790Y-85598447D01*
X168593582Y-85648731D01*
X168593580Y-85648733D01*
X168593579Y-85648733D01*
X168452733Y-85789579D01*
X168452733Y-85789580D01*
X168452731Y-85789582D01*
X168402447Y-85858790D01*
X168335647Y-85950733D01*
X168245213Y-86128219D01*
X168183661Y-86317656D01*
X168183661Y-86317659D01*
X168152500Y-86514403D01*
X168152500Y-86713596D01*
X168183661Y-86910340D01*
X168183661Y-86910343D01*
X168245213Y-87099780D01*
X168325006Y-87256381D01*
X168335647Y-87277266D01*
X168452731Y-87438418D01*
X168593582Y-87579269D01*
X168754734Y-87696353D01*
X168765356Y-87701765D01*
X168906172Y-87773515D01*
X168956968Y-87821490D01*
X168973763Y-87889311D01*
X168951225Y-87955446D01*
X168906172Y-87994485D01*
X168754733Y-88071647D01*
X168662790Y-88138447D01*
X168593582Y-88188731D01*
X168593580Y-88188733D01*
X168593579Y-88188733D01*
X168452733Y-88329579D01*
X168452733Y-88329580D01*
X168452731Y-88329582D01*
X168402447Y-88398790D01*
X168335647Y-88490733D01*
X168245213Y-88668219D01*
X168183661Y-88857656D01*
X168183661Y-88857659D01*
X168152500Y-89054403D01*
X168152500Y-89253596D01*
X168183661Y-89450340D01*
X168183661Y-89450343D01*
X168245213Y-89639780D01*
X168245215Y-89639783D01*
X168335647Y-89817266D01*
X168452731Y-89978418D01*
X168593582Y-90119269D01*
X168754734Y-90236353D01*
X168824453Y-90271877D01*
X168906172Y-90313515D01*
X168956968Y-90361490D01*
X168973763Y-90429311D01*
X168951225Y-90495446D01*
X168906172Y-90534485D01*
X168754733Y-90611647D01*
X168662790Y-90678447D01*
X168593582Y-90728731D01*
X168593580Y-90728733D01*
X168593579Y-90728733D01*
X168452733Y-90869579D01*
X168452733Y-90869580D01*
X168452731Y-90869582D01*
X168402447Y-90938790D01*
X168335647Y-91030733D01*
X168245213Y-91208219D01*
X168183661Y-91397656D01*
X168183661Y-91397659D01*
X168152500Y-91594403D01*
X168152500Y-91793596D01*
X168183661Y-91990340D01*
X168183661Y-91990343D01*
X168245213Y-92179780D01*
X168258573Y-92206000D01*
X168335647Y-92357266D01*
X168452731Y-92518418D01*
X168593582Y-92659269D01*
X168754734Y-92776353D01*
X168824453Y-92811877D01*
X168906172Y-92853515D01*
X168956968Y-92901490D01*
X168973763Y-92969311D01*
X168951225Y-93035446D01*
X168906172Y-93074485D01*
X168754733Y-93151647D01*
X168662790Y-93218447D01*
X168593582Y-93268731D01*
X168593580Y-93268733D01*
X168593579Y-93268733D01*
X168452733Y-93409579D01*
X168452733Y-93409580D01*
X168452731Y-93409582D01*
X168422914Y-93450622D01*
X168335647Y-93570733D01*
X168245213Y-93748219D01*
X168183661Y-93937656D01*
X168183661Y-93937659D01*
X168152500Y-94134403D01*
X168152500Y-94333596D01*
X168183661Y-94530340D01*
X168183661Y-94530343D01*
X168245213Y-94719780D01*
X168251065Y-94731265D01*
X168335647Y-94897266D01*
X168452731Y-95058418D01*
X168593582Y-95199269D01*
X168754734Y-95316353D01*
X168824453Y-95351877D01*
X168906172Y-95393515D01*
X168956968Y-95441490D01*
X168973763Y-95509311D01*
X168951225Y-95575446D01*
X168906172Y-95614485D01*
X168754733Y-95691647D01*
X168662790Y-95758447D01*
X168593582Y-95808731D01*
X168593580Y-95808733D01*
X168593579Y-95808733D01*
X168452733Y-95949579D01*
X168452733Y-95949580D01*
X168452731Y-95949582D01*
X168433214Y-95976445D01*
X168335647Y-96110733D01*
X168245213Y-96288219D01*
X168183661Y-96477656D01*
X168183661Y-96477659D01*
X168152500Y-96674403D01*
X168152500Y-96873596D01*
X168183661Y-97070340D01*
X168183661Y-97070343D01*
X168245213Y-97259780D01*
X168315775Y-97398265D01*
X168335647Y-97437266D01*
X168452731Y-97598418D01*
X168593582Y-97739269D01*
X168710455Y-97824182D01*
X168753121Y-97879512D01*
X168759100Y-97949125D01*
X168726494Y-98010920D01*
X168665656Y-98045277D01*
X168637573Y-98048500D01*
X168605131Y-98048500D01*
X168605123Y-98048501D01*
X168545516Y-98054908D01*
X168410671Y-98105202D01*
X168410664Y-98105206D01*
X168295455Y-98191452D01*
X168295452Y-98191455D01*
X168209206Y-98306664D01*
X168209202Y-98306671D01*
X168158908Y-98441517D01*
X168153741Y-98489580D01*
X168152501Y-98501123D01*
X168152500Y-98501135D01*
X168152500Y-100126870D01*
X168152501Y-100126876D01*
X168158908Y-100186483D01*
X168209202Y-100321328D01*
X168209206Y-100321335D01*
X168295452Y-100436544D01*
X168295455Y-100436547D01*
X168410664Y-100522793D01*
X168410671Y-100522797D01*
X168545517Y-100573091D01*
X168545516Y-100573091D01*
X168552444Y-100573835D01*
X168605127Y-100579500D01*
X170230872Y-100579499D01*
X170290483Y-100573091D01*
X170425331Y-100522796D01*
X170540546Y-100436546D01*
X170626796Y-100321331D01*
X170677091Y-100186483D01*
X170683500Y-100126873D01*
X170683499Y-98501128D01*
X170677091Y-98441517D01*
X170626796Y-98306669D01*
X170626795Y-98306668D01*
X170626793Y-98306664D01*
X170540547Y-98191455D01*
X170540544Y-98191452D01*
X170425335Y-98105206D01*
X170425328Y-98105202D01*
X170290482Y-98054908D01*
X170290483Y-98054908D01*
X170230883Y-98048501D01*
X170230881Y-98048500D01*
X170230873Y-98048500D01*
X170230865Y-98048500D01*
X170198431Y-98048500D01*
X170131392Y-98028815D01*
X170085637Y-97976011D01*
X170075693Y-97906853D01*
X170104718Y-97843297D01*
X170125543Y-97824183D01*
X170242418Y-97739269D01*
X170383269Y-97598418D01*
X170500353Y-97437266D01*
X170590785Y-97259783D01*
X170652339Y-97070339D01*
X170683500Y-96873597D01*
X170683500Y-96674403D01*
X170652339Y-96477661D01*
X170652338Y-96477657D01*
X170652338Y-96477656D01*
X170590786Y-96288219D01*
X170559276Y-96226378D01*
X170500353Y-96110734D01*
X170383269Y-95949582D01*
X170242418Y-95808731D01*
X170081266Y-95691647D01*
X169929827Y-95614485D01*
X169879031Y-95566510D01*
X169862236Y-95498689D01*
X169884773Y-95432554D01*
X169929827Y-95393515D01*
X169976792Y-95369585D01*
X170081266Y-95316353D01*
X170242418Y-95199269D01*
X170383269Y-95058418D01*
X170500353Y-94897266D01*
X170590785Y-94719783D01*
X170652339Y-94530339D01*
X170678766Y-94363486D01*
X174592500Y-94363486D01*
X174592500Y-94548513D01*
X174621445Y-94731265D01*
X174678619Y-94907232D01*
X174678620Y-94907235D01*
X174728640Y-95005403D01*
X174762622Y-95072096D01*
X174871379Y-95221787D01*
X175002213Y-95352621D01*
X175006421Y-95355678D01*
X175006432Y-95355686D01*
X175049094Y-95411019D01*
X175055069Y-95480633D01*
X175022459Y-95542426D01*
X175006432Y-95556314D01*
X175002210Y-95559381D01*
X174871381Y-95690210D01*
X174871381Y-95690211D01*
X174871379Y-95690213D01*
X174836054Y-95738834D01*
X174762622Y-95839903D01*
X174678620Y-96004764D01*
X174678619Y-96004767D01*
X174621445Y-96180734D01*
X174592500Y-96363486D01*
X174592500Y-96548513D01*
X174621445Y-96731265D01*
X174678619Y-96907232D01*
X174678620Y-96907235D01*
X174761727Y-97070339D01*
X174762622Y-97072096D01*
X174871379Y-97221787D01*
X175002213Y-97352621D01*
X175151904Y-97461378D01*
X175232763Y-97502577D01*
X175316764Y-97545379D01*
X175316767Y-97545380D01*
X175404750Y-97573967D01*
X175492736Y-97602555D01*
X175675486Y-97631500D01*
X175675487Y-97631500D01*
X175860513Y-97631500D01*
X175860514Y-97631500D01*
X176043264Y-97602555D01*
X176219235Y-97545379D01*
X176384096Y-97461378D01*
X176533787Y-97352621D01*
X176664621Y-97221787D01*
X176773378Y-97072096D01*
X176857379Y-96907235D01*
X176914555Y-96731264D01*
X176943500Y-96548514D01*
X176943500Y-96363486D01*
X176914555Y-96180736D01*
X176857379Y-96004765D01*
X176857379Y-96004764D01*
X176773377Y-95839903D01*
X176664621Y-95690213D01*
X176533787Y-95559379D01*
X176529576Y-95556319D01*
X176486909Y-95500994D01*
X176480926Y-95431381D01*
X176513529Y-95369585D01*
X176529570Y-95355684D01*
X176533787Y-95352621D01*
X176664621Y-95221787D01*
X176773378Y-95072096D01*
X176857379Y-94907235D01*
X176914555Y-94731264D01*
X176943500Y-94548514D01*
X176943500Y-94363486D01*
X176914555Y-94180736D01*
X176885967Y-94092750D01*
X176857380Y-94004767D01*
X176857379Y-94004764D01*
X176776424Y-93845883D01*
X176773378Y-93839904D01*
X176689159Y-93723987D01*
X176665680Y-93658183D01*
X176681505Y-93590129D01*
X176715167Y-93551836D01*
X176800190Y-93488186D01*
X176886350Y-93373093D01*
X176886354Y-93373086D01*
X176936596Y-93238379D01*
X176936598Y-93238372D01*
X176942999Y-93178844D01*
X176943000Y-93178827D01*
X176943000Y-92706000D01*
X176083686Y-92706000D01*
X176088080Y-92701606D01*
X176140741Y-92610394D01*
X176168000Y-92508661D01*
X176168000Y-92403339D01*
X176140741Y-92301606D01*
X176088080Y-92210394D01*
X176083686Y-92206000D01*
X176943000Y-92206000D01*
X176943000Y-91733172D01*
X176942999Y-91733155D01*
X176936598Y-91673627D01*
X176936596Y-91673620D01*
X176886354Y-91538913D01*
X176886350Y-91538906D01*
X176800190Y-91423812D01*
X176800187Y-91423809D01*
X176685093Y-91337649D01*
X176685086Y-91337645D01*
X176550379Y-91287403D01*
X176550372Y-91287401D01*
X176490844Y-91281000D01*
X176018000Y-91281000D01*
X176018000Y-92140314D01*
X176013606Y-92135920D01*
X175922394Y-92083259D01*
X175820661Y-92056000D01*
X175715339Y-92056000D01*
X175613606Y-92083259D01*
X175522394Y-92135920D01*
X175518000Y-92140314D01*
X175518000Y-91281000D01*
X175045155Y-91281000D01*
X174985627Y-91287401D01*
X174985620Y-91287403D01*
X174850913Y-91337645D01*
X174850906Y-91337649D01*
X174735812Y-91423809D01*
X174735809Y-91423812D01*
X174649649Y-91538906D01*
X174649645Y-91538913D01*
X174599403Y-91673620D01*
X174599401Y-91673627D01*
X174593000Y-91733155D01*
X174593000Y-92206000D01*
X175452314Y-92206000D01*
X175447920Y-92210394D01*
X175395259Y-92301606D01*
X175368000Y-92403339D01*
X175368000Y-92508661D01*
X175395259Y-92610394D01*
X175447920Y-92701606D01*
X175452314Y-92706000D01*
X174593000Y-92706000D01*
X174593000Y-93178844D01*
X174599401Y-93238372D01*
X174599403Y-93238379D01*
X174649645Y-93373086D01*
X174649649Y-93373093D01*
X174735809Y-93488186D01*
X174820832Y-93551835D01*
X174862703Y-93607769D01*
X174867687Y-93677461D01*
X174846839Y-93723987D01*
X174762624Y-93839900D01*
X174678620Y-94004764D01*
X174678619Y-94004767D01*
X174621445Y-94180734D01*
X174592500Y-94363486D01*
X170678766Y-94363486D01*
X170683500Y-94333597D01*
X170683500Y-94134403D01*
X170652339Y-93937661D01*
X170652338Y-93937657D01*
X170652338Y-93937656D01*
X170590786Y-93748219D01*
X170578439Y-93723987D01*
X170500353Y-93570734D01*
X170383269Y-93409582D01*
X170242418Y-93268731D01*
X170081266Y-93151647D01*
X169929827Y-93074485D01*
X169879031Y-93026510D01*
X169862236Y-92958689D01*
X169884773Y-92892554D01*
X169929827Y-92853515D01*
X169939116Y-92848781D01*
X170081266Y-92776353D01*
X170242418Y-92659269D01*
X170383269Y-92518418D01*
X170500353Y-92357266D01*
X170590785Y-92179783D01*
X170605037Y-92135920D01*
X170652338Y-91990343D01*
X170652338Y-91990342D01*
X170652339Y-91990339D01*
X170683500Y-91793597D01*
X170683500Y-91594403D01*
X170652339Y-91397661D01*
X170652338Y-91397657D01*
X170652338Y-91397656D01*
X170590786Y-91208219D01*
X170500352Y-91030733D01*
X170383269Y-90869582D01*
X170242418Y-90728731D01*
X170081266Y-90611647D01*
X169929827Y-90534485D01*
X169879031Y-90486510D01*
X169862236Y-90418689D01*
X169884773Y-90352554D01*
X169929827Y-90313515D01*
X169939116Y-90308781D01*
X170081266Y-90236353D01*
X170242418Y-90119269D01*
X170383269Y-89978418D01*
X170500353Y-89817266D01*
X170590785Y-89639783D01*
X170652339Y-89450339D01*
X170683500Y-89253597D01*
X170683500Y-89054403D01*
X170652339Y-88857661D01*
X170652338Y-88857657D01*
X170652338Y-88857656D01*
X170590786Y-88668219D01*
X170590785Y-88668217D01*
X170500353Y-88490734D01*
X170383269Y-88329582D01*
X170242418Y-88188731D01*
X170081266Y-88071647D01*
X169929827Y-87994485D01*
X169879031Y-87946510D01*
X169862236Y-87878689D01*
X169884773Y-87812554D01*
X169929827Y-87773515D01*
X169939116Y-87768781D01*
X170081266Y-87696353D01*
X170242418Y-87579269D01*
X170383269Y-87438418D01*
X170500353Y-87277266D01*
X170590785Y-87099783D01*
X170607085Y-87049618D01*
X170652338Y-86910343D01*
X170652338Y-86910342D01*
X170652339Y-86910339D01*
X170683500Y-86713597D01*
X170683500Y-86514403D01*
X170652339Y-86317661D01*
X170652338Y-86317657D01*
X170652338Y-86317656D01*
X170590786Y-86128219D01*
X170500352Y-85950733D01*
X170383269Y-85789582D01*
X170242418Y-85648731D01*
X170081266Y-85531647D01*
X169929827Y-85454485D01*
X169879031Y-85406510D01*
X169862236Y-85338689D01*
X169884773Y-85272554D01*
X169929827Y-85233515D01*
X169939116Y-85228781D01*
X170081266Y-85156353D01*
X170242418Y-85039269D01*
X170383269Y-84898418D01*
X170500353Y-84737266D01*
X170590785Y-84559783D01*
X170652339Y-84370339D01*
X170683500Y-84173597D01*
X170683500Y-83974403D01*
X170652339Y-83777661D01*
X170652338Y-83777657D01*
X170652338Y-83777656D01*
X170590786Y-83588219D01*
X170500352Y-83410733D01*
X170483264Y-83387213D01*
X170383269Y-83249582D01*
X170242418Y-83108731D01*
X170081266Y-82991647D01*
X169929827Y-82914485D01*
X169879031Y-82866510D01*
X169862236Y-82798689D01*
X169884773Y-82732554D01*
X169929827Y-82693515D01*
X169939116Y-82688781D01*
X170081266Y-82616353D01*
X170242418Y-82499269D01*
X170383269Y-82358418D01*
X170500353Y-82197266D01*
X170590785Y-82019783D01*
X170636939Y-81877736D01*
X170652338Y-81830343D01*
X170652338Y-81830342D01*
X170652339Y-81830339D01*
X170683500Y-81633597D01*
X170683500Y-81434403D01*
X170652339Y-81237661D01*
X170652338Y-81237657D01*
X170652338Y-81237656D01*
X170590786Y-81048219D01*
X170524838Y-80918789D01*
X170500353Y-80870734D01*
X170383269Y-80709582D01*
X170242418Y-80568731D01*
X170081266Y-80451647D01*
X169929827Y-80374485D01*
X169879031Y-80326510D01*
X169862236Y-80258689D01*
X169884773Y-80192554D01*
X169929827Y-80153515D01*
X169939116Y-80148781D01*
X170081266Y-80076353D01*
X170242418Y-79959269D01*
X170383269Y-79818418D01*
X170500353Y-79657266D01*
X170590785Y-79479783D01*
X170620863Y-79387213D01*
X170652338Y-79290343D01*
X170652338Y-79290342D01*
X170652339Y-79290339D01*
X170683500Y-79093597D01*
X170683500Y-78894403D01*
X170652339Y-78697661D01*
X170652338Y-78697657D01*
X170652338Y-78697656D01*
X170590786Y-78508219D01*
X170500352Y-78330733D01*
X170383269Y-78169582D01*
X170242418Y-78028731D01*
X170081266Y-77911647D01*
X169929827Y-77834485D01*
X169879031Y-77786510D01*
X169862236Y-77718689D01*
X169884773Y-77652554D01*
X169929827Y-77613515D01*
X169939116Y-77608781D01*
X170081266Y-77536353D01*
X170242418Y-77419269D01*
X170383269Y-77278418D01*
X170500353Y-77117266D01*
X170590785Y-76939783D01*
X170652339Y-76750339D01*
X170683500Y-76553597D01*
X170683500Y-76354403D01*
X170652339Y-76157661D01*
X170652338Y-76157657D01*
X170652338Y-76157656D01*
X170590786Y-75968219D01*
X170544742Y-75877852D01*
X170500353Y-75790734D01*
X170383269Y-75629582D01*
X170242418Y-75488731D01*
X170081266Y-75371647D01*
X169929827Y-75294485D01*
X169879031Y-75246510D01*
X169862236Y-75178689D01*
X169884773Y-75112554D01*
X169929827Y-75073515D01*
X169939116Y-75068781D01*
X170081266Y-74996353D01*
X170242418Y-74879269D01*
X170383269Y-74738418D01*
X170500353Y-74577266D01*
X170590785Y-74399783D01*
X170652339Y-74210339D01*
X170683500Y-74013597D01*
X170683500Y-73814403D01*
X170652339Y-73617661D01*
X170652338Y-73617657D01*
X170652338Y-73617656D01*
X170590786Y-73428219D01*
X170500352Y-73250733D01*
X170489409Y-73235671D01*
X170383269Y-73089582D01*
X170242418Y-72948731D01*
X170081266Y-72831647D01*
X169929827Y-72754485D01*
X169879031Y-72706510D01*
X169862236Y-72638689D01*
X169884773Y-72572554D01*
X169929827Y-72533515D01*
X169939116Y-72528781D01*
X170081266Y-72456353D01*
X170242418Y-72339269D01*
X170383269Y-72198418D01*
X170500353Y-72037266D01*
X170590785Y-71859783D01*
X170652339Y-71670339D01*
X170683500Y-71473597D01*
X170683500Y-71274403D01*
X170652339Y-71077661D01*
X170652338Y-71077657D01*
X170652338Y-71077656D01*
X170590786Y-70888219D01*
X170500352Y-70710733D01*
X170383269Y-70549582D01*
X170242418Y-70408731D01*
X170081266Y-70291647D01*
X169929827Y-70214485D01*
X169879031Y-70166510D01*
X169862236Y-70098689D01*
X169884773Y-70032554D01*
X169929827Y-69993515D01*
X169939116Y-69988781D01*
X170081266Y-69916353D01*
X170242418Y-69799269D01*
X170383269Y-69658418D01*
X170500353Y-69497266D01*
X170590785Y-69319783D01*
X170652339Y-69130339D01*
X170683500Y-68933597D01*
X170683500Y-68734403D01*
X170652339Y-68537661D01*
X170652338Y-68537657D01*
X170652338Y-68537656D01*
X170590786Y-68348219D01*
X170500352Y-68170733D01*
X170383269Y-68009582D01*
X170242418Y-67868731D01*
X170081266Y-67751647D01*
X169929827Y-67674485D01*
X169879031Y-67626510D01*
X169862236Y-67558689D01*
X169884773Y-67492554D01*
X169929827Y-67453515D01*
X169939116Y-67448781D01*
X170081266Y-67376353D01*
X170242418Y-67259269D01*
X170383269Y-67118418D01*
X170500353Y-66957266D01*
X170590785Y-66779783D01*
X170652339Y-66590339D01*
X170683500Y-66393597D01*
X170683500Y-66194403D01*
X170652339Y-65997661D01*
X170652338Y-65997657D01*
X170652338Y-65997656D01*
X170590786Y-65808219D01*
X170500352Y-65630733D01*
X170383269Y-65469582D01*
X170242418Y-65328731D01*
X170081266Y-65211647D01*
X169929827Y-65134485D01*
X169879031Y-65086510D01*
X169862236Y-65018689D01*
X169884773Y-64952554D01*
X169929827Y-64913515D01*
X169939116Y-64908781D01*
X170081266Y-64836353D01*
X170242418Y-64719269D01*
X170383269Y-64578418D01*
X170500353Y-64417266D01*
X170590785Y-64239783D01*
X170652339Y-64050339D01*
X170683500Y-63853597D01*
X170683500Y-63654403D01*
X170652339Y-63457661D01*
X170652338Y-63457657D01*
X170652338Y-63457656D01*
X170590786Y-63268219D01*
X170500352Y-63090733D01*
X170383269Y-62929582D01*
X170242418Y-62788731D01*
X170081266Y-62671647D01*
X169929827Y-62594485D01*
X169879031Y-62546510D01*
X169862236Y-62478689D01*
X169884773Y-62412554D01*
X169929827Y-62373515D01*
X169939116Y-62368781D01*
X170081266Y-62296353D01*
X170242418Y-62179269D01*
X170383269Y-62038418D01*
X170500353Y-61877266D01*
X170590785Y-61699783D01*
X170598219Y-61676903D01*
X170652338Y-61510343D01*
X170652338Y-61510342D01*
X170652339Y-61510339D01*
X170683500Y-61313597D01*
X170683500Y-61114403D01*
X170652339Y-60917661D01*
X170652338Y-60917657D01*
X170652338Y-60917656D01*
X170590786Y-60728219D01*
X170500352Y-60550733D01*
X170383269Y-60389582D01*
X170242418Y-60248731D01*
X170176015Y-60200486D01*
X179545500Y-60200486D01*
X179545500Y-60385513D01*
X179574445Y-60568265D01*
X179631619Y-60744232D01*
X179631620Y-60744235D01*
X179715622Y-60909096D01*
X179824379Y-61058787D01*
X179955213Y-61189621D01*
X179959421Y-61192678D01*
X179959432Y-61192686D01*
X180002094Y-61248019D01*
X180008069Y-61317633D01*
X179975459Y-61379426D01*
X179959432Y-61393314D01*
X179955210Y-61396381D01*
X179824381Y-61527210D01*
X179824381Y-61527211D01*
X179824379Y-61527213D01*
X179777672Y-61591499D01*
X179715622Y-61676903D01*
X179631620Y-61841764D01*
X179631619Y-61841767D01*
X179574445Y-62017734D01*
X179545500Y-62200486D01*
X179545500Y-62385513D01*
X179574445Y-62568265D01*
X179631619Y-62744232D01*
X179631620Y-62744235D01*
X179715622Y-62909096D01*
X179824379Y-63058787D01*
X179955213Y-63189621D01*
X180104904Y-63298378D01*
X180185763Y-63339577D01*
X180269764Y-63382379D01*
X180269767Y-63382380D01*
X180357750Y-63410967D01*
X180445736Y-63439555D01*
X180628486Y-63468500D01*
X180628487Y-63468500D01*
X180813513Y-63468500D01*
X180813514Y-63468500D01*
X180996264Y-63439555D01*
X181172235Y-63382379D01*
X181337096Y-63298378D01*
X181486787Y-63189621D01*
X181617621Y-63058787D01*
X181726378Y-62909096D01*
X181810379Y-62744235D01*
X181867555Y-62568264D01*
X181896500Y-62385514D01*
X181896500Y-62200486D01*
X181867555Y-62017736D01*
X181810379Y-61841765D01*
X181810379Y-61841764D01*
X181726377Y-61676903D01*
X181617621Y-61527213D01*
X181486787Y-61396379D01*
X181482576Y-61393319D01*
X181439909Y-61337994D01*
X181433926Y-61268381D01*
X181466529Y-61206585D01*
X181482570Y-61192684D01*
X181486787Y-61189621D01*
X181617621Y-61058787D01*
X181726378Y-60909096D01*
X181810379Y-60744235D01*
X181867555Y-60568264D01*
X181896500Y-60385514D01*
X181896500Y-60200486D01*
X181867555Y-60017736D01*
X181832010Y-59908339D01*
X181810380Y-59841767D01*
X181810379Y-59841764D01*
X181726377Y-59676903D01*
X181726375Y-59676900D01*
X181642159Y-59560987D01*
X181618680Y-59495183D01*
X181634505Y-59427129D01*
X181668167Y-59388836D01*
X181753190Y-59325186D01*
X181839350Y-59210093D01*
X181839354Y-59210086D01*
X181889596Y-59075379D01*
X181889598Y-59075372D01*
X181895999Y-59015844D01*
X181896000Y-59015827D01*
X181896000Y-58543000D01*
X181036686Y-58543000D01*
X181041080Y-58538606D01*
X181093741Y-58447394D01*
X181121000Y-58345661D01*
X181121000Y-58240339D01*
X181093741Y-58138606D01*
X181041080Y-58047394D01*
X181036686Y-58043000D01*
X181896000Y-58043000D01*
X181896000Y-57570172D01*
X181895999Y-57570155D01*
X181889598Y-57510627D01*
X181889596Y-57510620D01*
X181839354Y-57375913D01*
X181839350Y-57375906D01*
X181753190Y-57260812D01*
X181753187Y-57260809D01*
X181638093Y-57174649D01*
X181638086Y-57174645D01*
X181503379Y-57124403D01*
X181503372Y-57124401D01*
X181443844Y-57118000D01*
X180971000Y-57118000D01*
X180971000Y-57977314D01*
X180966606Y-57972920D01*
X180875394Y-57920259D01*
X180773661Y-57893000D01*
X180668339Y-57893000D01*
X180566606Y-57920259D01*
X180475394Y-57972920D01*
X180471000Y-57977314D01*
X180471000Y-57118000D01*
X179998155Y-57118000D01*
X179938627Y-57124401D01*
X179938620Y-57124403D01*
X179803913Y-57174645D01*
X179803906Y-57174649D01*
X179688812Y-57260809D01*
X179688809Y-57260812D01*
X179602649Y-57375906D01*
X179602645Y-57375913D01*
X179552403Y-57510620D01*
X179552401Y-57510627D01*
X179546000Y-57570155D01*
X179546000Y-58043000D01*
X180405314Y-58043000D01*
X180400920Y-58047394D01*
X180348259Y-58138606D01*
X180321000Y-58240339D01*
X180321000Y-58345661D01*
X180348259Y-58447394D01*
X180400920Y-58538606D01*
X180405314Y-58543000D01*
X179546000Y-58543000D01*
X179546000Y-59015844D01*
X179552401Y-59075372D01*
X179552403Y-59075379D01*
X179602645Y-59210086D01*
X179602649Y-59210093D01*
X179688809Y-59325186D01*
X179773832Y-59388835D01*
X179815703Y-59444769D01*
X179820687Y-59514461D01*
X179799839Y-59560987D01*
X179715624Y-59676900D01*
X179631620Y-59841764D01*
X179631619Y-59841767D01*
X179574445Y-60017734D01*
X179545500Y-60200486D01*
X170176015Y-60200486D01*
X170081266Y-60131647D01*
X169929827Y-60054485D01*
X169879031Y-60006510D01*
X169862236Y-59938689D01*
X169884773Y-59872554D01*
X169929827Y-59833515D01*
X169939116Y-59828781D01*
X170081266Y-59756353D01*
X170242418Y-59639269D01*
X170383269Y-59498418D01*
X170500353Y-59337266D01*
X170590785Y-59159783D01*
X170604524Y-59117500D01*
X170652338Y-58970343D01*
X170652338Y-58970342D01*
X170652339Y-58970339D01*
X170683500Y-58773597D01*
X170683500Y-58574403D01*
X170652339Y-58377661D01*
X170652338Y-58377657D01*
X170652338Y-58377656D01*
X170590786Y-58188219D01*
X170500352Y-58010733D01*
X170472879Y-57972920D01*
X170383269Y-57849582D01*
X170242418Y-57708731D01*
X170081266Y-57591647D01*
X169929827Y-57514485D01*
X169879031Y-57466510D01*
X169862236Y-57398689D01*
X169884773Y-57332554D01*
X169929827Y-57293515D01*
X169939116Y-57288781D01*
X170081266Y-57216353D01*
X170242418Y-57099269D01*
X170383269Y-56958418D01*
X170500353Y-56797266D01*
X170590785Y-56619783D01*
X170652339Y-56430339D01*
X170683500Y-56233597D01*
X170683500Y-56034403D01*
X170652339Y-55837661D01*
X170652338Y-55837657D01*
X170652338Y-55837656D01*
X170590786Y-55648219D01*
X170500352Y-55470733D01*
X170383269Y-55309582D01*
X170242418Y-55168731D01*
X170081266Y-55051647D01*
X169929827Y-54974485D01*
X169879031Y-54926510D01*
X169862236Y-54858689D01*
X169884773Y-54792554D01*
X169929827Y-54753515D01*
X169939116Y-54748781D01*
X170081266Y-54676353D01*
X170242418Y-54559269D01*
X170383269Y-54418418D01*
X170500353Y-54257266D01*
X170590785Y-54079783D01*
X170652339Y-53890339D01*
X170683500Y-53693597D01*
X170683500Y-53494403D01*
X170652339Y-53297661D01*
X170652338Y-53297657D01*
X170652338Y-53297656D01*
X170590786Y-53108219D01*
X170500352Y-52930733D01*
X170383269Y-52769582D01*
X170242418Y-52628731D01*
X170081266Y-52511647D01*
X169929827Y-52434485D01*
X169879031Y-52386510D01*
X169862236Y-52318689D01*
X169884773Y-52252554D01*
X169929827Y-52213515D01*
X169939116Y-52208781D01*
X170081266Y-52136353D01*
X170242418Y-52019269D01*
X170383269Y-51878418D01*
X170500353Y-51717266D01*
X170590785Y-51539783D01*
X170652339Y-51350339D01*
X170683500Y-51153597D01*
X170683500Y-50954403D01*
X170652339Y-50757661D01*
X170652338Y-50757657D01*
X170652338Y-50757656D01*
X170590786Y-50568219D01*
X170500352Y-50390733D01*
X170383269Y-50229582D01*
X170242418Y-50088731D01*
X170081266Y-49971647D01*
X169929827Y-49894485D01*
X169879031Y-49846510D01*
X169862236Y-49778689D01*
X169884773Y-49712554D01*
X169929827Y-49673515D01*
X169939116Y-49668781D01*
X170081266Y-49596353D01*
X170242418Y-49479269D01*
X170383269Y-49338418D01*
X170500353Y-49177266D01*
X170590785Y-48999783D01*
X170652339Y-48810339D01*
X170683500Y-48613597D01*
X170683500Y-48414403D01*
X170652339Y-48217661D01*
X170652338Y-48217657D01*
X170652338Y-48217656D01*
X170590786Y-48028219D01*
X170500352Y-47850733D01*
X170383269Y-47689582D01*
X170242418Y-47548731D01*
X170081266Y-47431647D01*
X169929827Y-47354485D01*
X169879031Y-47306510D01*
X169862236Y-47238689D01*
X169884773Y-47172554D01*
X169929827Y-47133515D01*
X169939116Y-47128781D01*
X170081266Y-47056353D01*
X170242418Y-46939269D01*
X170383269Y-46798418D01*
X170500353Y-46637266D01*
X170590785Y-46459783D01*
X170590786Y-46459780D01*
X170652338Y-46270343D01*
X170652338Y-46270342D01*
X170652339Y-46270339D01*
X170683500Y-46073597D01*
X170683500Y-45874403D01*
X170652339Y-45677661D01*
X170652338Y-45677657D01*
X170652338Y-45677656D01*
X170590786Y-45488219D01*
X170560215Y-45428220D01*
X170500353Y-45310734D01*
X170383269Y-45149582D01*
X170242418Y-45008731D01*
X170081266Y-44891647D01*
X170008765Y-44854706D01*
X169903780Y-44801213D01*
X169714342Y-44739661D01*
X169566782Y-44716290D01*
X169517597Y-44708500D01*
X169318403Y-44708500D01*
X169252822Y-44718887D01*
X169121659Y-44739661D01*
X169121656Y-44739661D01*
X168932219Y-44801213D01*
X168754733Y-44891647D01*
X168662790Y-44958447D01*
X168593582Y-45008731D01*
X168593580Y-45008733D01*
X168593579Y-45008733D01*
X168452733Y-45149579D01*
X168452733Y-45149580D01*
X168452731Y-45149582D01*
X168404371Y-45216144D01*
X168335647Y-45310733D01*
X168245213Y-45488219D01*
X168183661Y-45677656D01*
X168183661Y-45677659D01*
X168152500Y-45874403D01*
X147823500Y-45874403D01*
X147792339Y-45677661D01*
X147792338Y-45677657D01*
X147792338Y-45677656D01*
X147730786Y-45488219D01*
X147700215Y-45428220D01*
X147640353Y-45310734D01*
X147523269Y-45149582D01*
X147382418Y-45008731D01*
X147221266Y-44891647D01*
X147148765Y-44854706D01*
X147043780Y-44801213D01*
X146854342Y-44739661D01*
X146706782Y-44716290D01*
X146657597Y-44708500D01*
X146458403Y-44708500D01*
X146392822Y-44718887D01*
X146261659Y-44739661D01*
X146261656Y-44739661D01*
X146072219Y-44801213D01*
X145894733Y-44891647D01*
X145802790Y-44958447D01*
X145733582Y-45008731D01*
X145733580Y-45008733D01*
X145733579Y-45008733D01*
X145592733Y-45149579D01*
X145592733Y-45149580D01*
X145592731Y-45149582D01*
X145544371Y-45216144D01*
X145475647Y-45310733D01*
X145385213Y-45488219D01*
X145323661Y-45677656D01*
X145323661Y-45677659D01*
X145292500Y-45874403D01*
X136079227Y-45874403D01*
X136178750Y-45753134D01*
X136379384Y-45452864D01*
X136549620Y-45134374D01*
X136687819Y-44800732D01*
X136792650Y-44455151D01*
X136792652Y-44455141D01*
X136792655Y-44455130D01*
X136863103Y-44100957D01*
X136898500Y-43741566D01*
X136898500Y-43380434D01*
X136885992Y-43253437D01*
X177538500Y-43253437D01*
X177538500Y-43614562D01*
X177573896Y-43973957D01*
X177644344Y-44328130D01*
X177644347Y-44328141D01*
X177749181Y-44673733D01*
X177887381Y-45007376D01*
X177887383Y-45007381D01*
X178057609Y-45325852D01*
X178057620Y-45325870D01*
X178258244Y-45626125D01*
X178258254Y-45626139D01*
X178487354Y-45905297D01*
X178742702Y-46160645D01*
X178742707Y-46160649D01*
X178742708Y-46160650D01*
X179021866Y-46389750D01*
X179322136Y-46590384D01*
X179322145Y-46590389D01*
X179322147Y-46590390D01*
X179640618Y-46760616D01*
X179640620Y-46760616D01*
X179640626Y-46760620D01*
X179974268Y-46898819D01*
X180319849Y-47003650D01*
X180319855Y-47003651D01*
X180319858Y-47003652D01*
X180319869Y-47003655D01*
X180674042Y-47074103D01*
X181033434Y-47109500D01*
X181033437Y-47109500D01*
X181394563Y-47109500D01*
X181394566Y-47109500D01*
X181753958Y-47074103D01*
X181843199Y-47056352D01*
X182108130Y-47003655D01*
X182108141Y-47003652D01*
X182108141Y-47003651D01*
X182108151Y-47003650D01*
X182453732Y-46898819D01*
X182787374Y-46760620D01*
X183105864Y-46590384D01*
X183406134Y-46389750D01*
X183685292Y-46160650D01*
X183940650Y-45905292D01*
X184169750Y-45626134D01*
X184370384Y-45325864D01*
X184540620Y-45007374D01*
X184678819Y-44673732D01*
X184783650Y-44328151D01*
X184783652Y-44328141D01*
X184783655Y-44328130D01*
X184854103Y-43973957D01*
X184889500Y-43614566D01*
X184889500Y-43253434D01*
X184854103Y-42894042D01*
X184839495Y-42820603D01*
X184783655Y-42539869D01*
X184783652Y-42539858D01*
X184783651Y-42539855D01*
X184783650Y-42539849D01*
X184678819Y-42194268D01*
X184540620Y-41860626D01*
X184429030Y-41651856D01*
X184370390Y-41542147D01*
X184370389Y-41542145D01*
X184370384Y-41542136D01*
X184169750Y-41241866D01*
X183940650Y-40962708D01*
X183940649Y-40962707D01*
X183940645Y-40962702D01*
X183685297Y-40707354D01*
X183406139Y-40478254D01*
X183406138Y-40478253D01*
X183406134Y-40478250D01*
X183105864Y-40277616D01*
X183105859Y-40277613D01*
X183105852Y-40277609D01*
X182787381Y-40107383D01*
X182787376Y-40107381D01*
X182453733Y-39969181D01*
X182108141Y-39864347D01*
X182108130Y-39864344D01*
X181753957Y-39793896D01*
X181483279Y-39767237D01*
X181394566Y-39758500D01*
X181033434Y-39758500D01*
X180951465Y-39766573D01*
X180674042Y-39793896D01*
X180319869Y-39864344D01*
X180319858Y-39864347D01*
X179974266Y-39969181D01*
X179640623Y-40107381D01*
X179640618Y-40107383D01*
X179322147Y-40277609D01*
X179322129Y-40277620D01*
X179021874Y-40478244D01*
X179021860Y-40478254D01*
X178742702Y-40707354D01*
X178487354Y-40962702D01*
X178258254Y-41241860D01*
X178258244Y-41241874D01*
X178057620Y-41542129D01*
X178057609Y-41542147D01*
X177887383Y-41860618D01*
X177887381Y-41860623D01*
X177749181Y-42194266D01*
X177644347Y-42539858D01*
X177644344Y-42539869D01*
X177573896Y-42894042D01*
X177538500Y-43253437D01*
X136885992Y-43253437D01*
X136863103Y-43021042D01*
X136856134Y-42986005D01*
X136792655Y-42666869D01*
X136792652Y-42666858D01*
X136792651Y-42666855D01*
X136792650Y-42666849D01*
X136687819Y-42321268D01*
X136549620Y-41987626D01*
X136438030Y-41778856D01*
X136379390Y-41669147D01*
X136379389Y-41669145D01*
X136379384Y-41669136D01*
X136178750Y-41368866D01*
X135949650Y-41089708D01*
X135949649Y-41089707D01*
X135949645Y-41089702D01*
X135694297Y-40834354D01*
X135415139Y-40605254D01*
X135415138Y-40605253D01*
X135415134Y-40605250D01*
X135114864Y-40404616D01*
X135114859Y-40404613D01*
X135114852Y-40404609D01*
X134796381Y-40234383D01*
X134796376Y-40234381D01*
X134462733Y-40096181D01*
X134117141Y-39991347D01*
X134117130Y-39991344D01*
X133762957Y-39920896D01*
X133492279Y-39894237D01*
X133403566Y-39885500D01*
X133042434Y-39885500D01*
X132960465Y-39893573D01*
X132683042Y-39920896D01*
X132328869Y-39991344D01*
X132328858Y-39991347D01*
X131983266Y-40096181D01*
X131649623Y-40234381D01*
X131649618Y-40234383D01*
X131331147Y-40404609D01*
X131331129Y-40404620D01*
X131030874Y-40605244D01*
X131030860Y-40605254D01*
X130751702Y-40834354D01*
X130496354Y-41089702D01*
X130267254Y-41368860D01*
X130267244Y-41368874D01*
X130066620Y-41669129D01*
X130066609Y-41669147D01*
X129896383Y-41987618D01*
X129896381Y-41987623D01*
X129758181Y-42321266D01*
X129653347Y-42666858D01*
X129653344Y-42666869D01*
X129582896Y-43021042D01*
X129547500Y-43380437D01*
X127274910Y-43380437D01*
X127318576Y-42992894D01*
X127319953Y-42983756D01*
X127408592Y-42515289D01*
X127410655Y-42506250D01*
X127460221Y-42321268D01*
X127534058Y-42045704D01*
X127536782Y-42036874D01*
X127694258Y-41586832D01*
X127697633Y-41578230D01*
X127888304Y-41141209D01*
X127892326Y-41132861D01*
X128115099Y-40711352D01*
X128119732Y-40703328D01*
X128373400Y-40299619D01*
X128378618Y-40291968D01*
X128600483Y-39991350D01*
X128661738Y-39908352D01*
X128667499Y-39901127D01*
X128978518Y-39539717D01*
X128984799Y-39532948D01*
X129321948Y-39195799D01*
X129328717Y-39189518D01*
X129690127Y-38878499D01*
X129697352Y-38872738D01*
X130080968Y-38589618D01*
X130088619Y-38584400D01*
X130492335Y-38330727D01*
X130500352Y-38326099D01*
X130921866Y-38103323D01*
X130930209Y-38099304D01*
X131367230Y-37908633D01*
X131375832Y-37905258D01*
X131825874Y-37747782D01*
X131834704Y-37745058D01*
X132295251Y-37621654D01*
X132304291Y-37619592D01*
X132772756Y-37530953D01*
X132781894Y-37529576D01*
X133255695Y-37476191D01*
X133264915Y-37475500D01*
X133706526Y-37458977D01*
X133743676Y-37457587D01*
X133748312Y-37457500D01*
X133811892Y-37457500D01*
X181148108Y-37457500D01*
X181211688Y-37457500D01*
X181216324Y-37457587D01*
G37*
%TD.AperFunction*%
%TD*%
M02*
